<?xml version="1.0" encoding="UTF-8"?>
<!DOCTYPE svg PUBLIC "-//W3C//DTD SVG 1.1//EN" "http://www.w3.org/Graphics/SVG/1.1/DTD/svg11.dtd">
<svg xmlns="http://www.w3.org/2000/svg" version="1.1" width="2000px" height="2000px" style="shape-rendering:geometricPrecision; text-rendering:geometricPrecision; image-rendering:optimizeQuality; fill-rule:evenodd; clip-rule:evenodd" xmlns:xlink="http://www.w3.org/1999/xlink">
<g><path style="opacity:0.997" fill="#fefffe" d="M 201.5,192.5 C 230.683,190.284 259.349,193.118 287.5,201C 319.688,209.927 350.688,221.927 380.5,237C 433.104,265.128 482.104,298.461 527.5,337C 582.968,386.135 635.468,438.301 685,493.5C 790.397,613.564 883.397,742.564 964,880.5C 976.088,902.341 987.921,924.341 999.5,946.5C 1046.4,856.312 1099.57,770.312 1159,688.5C 1219.45,605.345 1284.45,525.678 1354,449.5C 1376.81,426.694 1399.64,403.86 1422.5,381C 1460.82,344.672 1501.48,311.339 1544.5,281C 1584.12,254.519 1626.12,232.186 1670.5,214C 1697.04,203.933 1724.37,196.933 1752.5,193C 1835,184.798 1886.5,220.631 1907,300.5C 1910.41,314.32 1912.75,328.32 1914,342.5C 1915.64,387.832 1914.14,432.999 1909.5,478C 1901.63,598.879 1890.8,719.713 1877,840.5C 1871.21,931.372 1836.71,1009.04 1773.5,1073.5C 1730.28,1114.46 1679.95,1143.63 1622.5,1161C 1547.16,1182.62 1470.49,1189.29 1392.5,1181C 1450.22,1192.26 1505.56,1210.59 1558.5,1236C 1598.68,1255.69 1634.18,1281.85 1665,1314.5C 1718.56,1378.58 1729.56,1449.58 1698,1527.5C 1679.32,1568.88 1654.65,1606.22 1624,1639.5C 1585.01,1682.04 1541.85,1719.54 1494.5,1752C 1451.17,1780.41 1404.5,1798.41 1354.5,1806C 1301.38,1807.73 1253.38,1793.06 1210.5,1762C 1186.73,1743.53 1165.23,1722.69 1146,1699.5C 1108.55,1650.61 1077.55,1597.61 1053,1540.5C 1033.89,1494.85 1016.56,1448.52 1001,1401.5C 1000,1402.83 999,1402.83 998,1401.5C 979.75,1456.92 958.75,1511.25 935,1564.5C 908.124,1624.31 872.79,1678.31 829,1726.5C 801.876,1755.15 770.043,1776.98 733.5,1792C 704.243,1802.7 674.91,1807.03 645.5,1805C 601.532,1799.57 560.532,1785.57 522.5,1763C 457.643,1722.16 400.81,1671.99 352,1612.5C 324.458,1578.55 304.125,1540.55 291,1498.5C 273.276,1429.43 287.609,1368.1 334,1314.5C 364.821,1281.85 400.321,1255.69 440.5,1236C 493.444,1210.59 548.777,1192.26 606.5,1181C 528.507,1189.29 451.841,1182.62 376.5,1161C 296.701,1137.15 232.534,1091.65 184,1024.5C 159.631,988.414 142.298,949.081 132,906.5C 121.036,838.496 112.703,770.163 107,701.5C 98.2892,606.994 90.9559,512.661 85,418.5C 84.3333,393.167 84.3333,367.833 85,342.5C 87.6086,310.393 96.2753,280.06 111,251.5C 131.975,217.918 162.142,198.251 201.5,192.5 Z"/></g>
</svg>
