<?xml version="1.0" encoding="UTF-8"?>
<!DOCTYPE svg PUBLIC "-//W3C//DTD SVG 1.1//EN" "http://www.w3.org/Graphics/SVG/1.1/DTD/svg11.dtd">
<svg xmlns="http://www.w3.org/2000/svg" version="1.1" width="1000px" height="1000px" style="shape-rendering:geometricPrecision; text-rendering:geometricPrecision; image-rendering:optimizeQuality; fill-rule:evenodd; clip-rule:evenodd" xmlns:xlink="http://www.w3.org/1999/xlink">
<g><path style="opacity:0.996" fill="#fefefe" d="M 999.5,133.5 C 999.5,149.5 999.5,165.5 999.5,181.5C 998.167,182.167 998.167,182.833 999.5,183.5C 999.5,187.833 999.5,192.167 999.5,196.5C 998.826,205.21 997.492,213.876 995.5,222.5C 996.102,224.608 996.435,226.775 996.5,229C 995.627,238.734 994.627,248.401 993.5,258C 994.122,259.569 994.456,261.236 994.5,263C 993.53,273.169 992.53,283.336 991.5,293.5C 991.33,295.715 990.663,297.715 989.5,299.5C 990.164,309.212 989.497,318.879 987.5,328.5C 988.063,329.939 988.397,331.439 988.5,333C 984.217,370.657 979.717,408.491 975,446.5C 967.391,479.078 952.224,508.078 929.5,533.5C 928.675,534.386 927.675,534.719 926.5,534.5C 926.607,536.903 925.607,538.736 923.5,540C 906.554,555.495 887.887,568.162 867.5,578C 841.172,588.973 813.505,595.973 784.5,599C 763.838,600.62 743.171,600.954 722.5,600C 759.855,607.642 794.355,620.809 826,639.5C 826.442,641.679 827.442,642.345 829,641.5C 830.579,643.041 832.413,644.208 834.5,645C 845.915,653.484 855.749,662.317 864,671.5C 870.071,678.605 875.405,686.272 880,694.5C 883.017,701.207 885.85,708.04 888.5,715C 888.355,715.772 888.022,716.439 887.5,717C 889.891,724.783 891.225,732.783 891.5,741C 891.317,749.599 889.984,758.265 887.5,767C 887.957,767.414 888.291,767.914 888.5,768.5C 888.374,771.424 887.041,774.091 884.5,776.5C 884.833,777.167 885.167,777.833 885.5,778.5C 881.75,789.838 876.416,800.671 869.5,811C 861.81,824.412 852.644,837.245 842,849.5C 830.222,860.276 818.722,871.443 807.5,883C 791.793,895.937 775.293,907.77 758,918.5C 757.667,918.167 757.333,917.833 757,917.5C 750.171,923.419 742.505,927.086 734,928.5C 732.087,931.122 729.754,932.122 727,931.5C 719.216,935.156 711.049,937.656 702.5,939C 690.5,939.667 678.5,939.667 666.5,939C 658.312,937.235 650.312,934.902 642.5,932C 634.178,928.174 626.178,923.84 618.5,919C 616.951,917.786 615.785,916.286 615,914.5C 614.667,914.833 614.333,915.167 614,915.5C 594.048,899.91 577.548,881.743 564.5,861C 559.882,854.859 555.549,848.526 551.5,842C 551.833,841.667 552.167,841.333 552.5,841C 548.351,833.038 543.684,825.372 538.5,818C 538.833,817.667 539.167,817.333 539.5,817C 534.877,810.844 532.21,804.511 531.5,798C 530.333,796.833 529.167,795.667 528,794.5C 523.24,782.611 518.406,770.777 513.5,759C 513.833,758.667 514.167,758.333 514.5,758C 513.773,756.601 513.273,755.101 513,753.5C 509.376,743.709 505.543,734.042 501.5,724.5C 501.709,723.914 502.043,723.414 502.5,723C 501.299,722.097 500.465,720.931 500,719.5C 497.889,721.828 497.055,724.328 497.5,727C 496.749,730.272 495.083,732.939 492.5,735C 493.458,736.147 493.125,737.147 491.5,738C 492.028,744.068 490.028,749.735 485.5,755C 485.745,757.089 485.745,759.089 485.5,761C 482,767.419 479.167,774.586 477,782.5C 475.833,783.667 474.667,784.833 473.5,786C 473.957,786.414 474.291,786.914 474.5,787.5C 463.017,815.075 448.517,842.075 431,868.5C 418.971,884.868 405.138,899.701 389.5,913C 373.75,924.541 356.416,932.875 337.5,938C 312.715,942.132 288.715,939.466 265.5,930C 209.949,903.161 164.616,863.828 129.5,812C 129.833,811.667 130.167,811.333 130.5,811C 125.816,806.126 122.982,800.626 122,794.5C 118.625,791.737 117.125,788.403 117.5,784.5C 115.536,781.982 114.87,779.316 115.5,776.5C 114.115,775.449 113.115,774.116 112.5,772.5C 112.5,770.5 112.5,768.5 112.5,766.5C 110.665,765.572 110.332,764.406 111.5,763C 109.727,756.323 108.727,749.49 108.5,742.5C 108.92,732.804 110.087,723.138 112,713.5C 112.674,711.483 113.841,709.817 115.5,708.5C 115.291,707.914 114.957,707.414 114.5,707C 117.762,700.067 121.096,693.233 124.5,686.5C 125.325,685.614 126.325,685.281 127.5,685.5C 127.081,682.675 128.081,680.509 130.5,679C 133.656,673.513 137.822,669.013 143,665.5C 147.942,658.887 153.775,653.387 160.5,649C 162.025,647.991 163.692,647.491 165.5,647.5C 165.281,646.325 165.614,645.325 166.5,644.5C 199.662,623.056 235.329,608.723 273.5,601.5C 274.795,600.902 276.128,600.402 277.5,600C 245.25,602.087 213.25,600.087 181.5,594C 180.069,593.535 178.903,592.701 178,591.5C 153.722,587.694 130.556,578.861 108.5,565C 107.874,564.25 107.374,563.416 107,562.5C 106.667,562.833 106.333,563.167 106,563.5C 84.3471,550.013 66.8471,532.347 53.5,510.5C 52.675,509.614 51.675,509.281 50.5,509.5C 49.1193,504.619 46.4527,499.953 42.5,495.5C 42.7093,494.914 43.0426,494.414 43.5,494C 41.7647,491.808 40.598,489.308 40,486.5C 38.2866,485.122 36.9533,483.455 36,481.5C 34.3948,475.622 32.2281,469.956 29.5,464.5C 29.7093,463.914 30.0426,463.414 30.5,463C 24.8031,450.524 22.4698,437.524 23.5,424C 22.3759,423.161 21.7092,421.994 21.5,420.5C 18.3564,391.888 15.0231,362.888 11.5,333.5C 11.5901,331.772 11.9234,330.106 12.5,328.5C 11.415,327.216 10.7483,325.716 10.5,324C 10.1643,315.657 10.1643,307.324 10.5,299C 8.23198,295.929 7.89864,292.596 9.5,289C 9,288.5 8.5,288 8,287.5C 6.80332,275.837 5.63666,264.17 4.5,252.5C 4.53956,250.571 4.87289,248.738 5.5,247C 2.99327,230.248 1.99327,213.414 2.5,196.5C 0.957082,192.215 -0.0429182,187.881 -0.5,183.5C -0.5,176.5 -0.5,169.5 -0.5,162.5C 0.833333,161.5 0.833333,160.5 -0.5,159.5C -0.5,153.167 -0.5,146.833 -0.5,140.5C 0.630307,131.767 2.63031,123.1 5.5,114.5C 5.16667,113.833 4.83333,113.167 4.5,112.5C 10.428,92.8692 21.428,77.7025 37.5,67C 39.6147,66.4427 41.6147,65.6094 43.5,64.5C 44.9647,65.6087 45.9647,65.1087 46.5,63C 62.2352,58.7307 78.2352,57.5641 94.5,59.5C 112.722,63.028 130.222,68.3613 147,75.5C 154.589,79.0413 162.423,82.8747 170.5,87C 176.992,90.4118 183.325,94.0785 189.5,98C 192.978,100.15 196.145,102.65 199,105.5C 199.333,105.167 199.667,104.833 200,104.5C 200.483,105.448 200.649,106.448 200.5,107.5C 206.715,109.609 212.381,112.776 217.5,117C 235.801,131.365 253.134,146.031 269.5,161C 285.539,176.81 301.372,192.977 317,209.5C 337.533,233.964 358.033,258.297 378.5,282.5C 384.042,289.879 389.375,297.545 394.5,305.5C 401.782,313.366 408.116,322.033 413.5,331.5C 415.944,335.113 418.944,338.28 422.5,341C 422.167,341.333 421.833,341.667 421.5,342C 435.435,361.381 448.935,381.548 462,402.5C 462.49,403.793 462.657,405.127 462.5,406.5C 463.675,406.281 464.675,406.614 465.5,407.5C 468.832,413.209 471.998,418.542 475,423.5C 475.49,424.793 475.657,426.127 475.5,427.5C 476.552,427.351 477.552,427.517 478.5,428C 478.167,428.333 477.833,428.667 477.5,429C 480.885,434.33 484.052,439.83 487,445.5C 487.49,446.793 487.657,448.127 487.5,449.5C 488.5,449.5 489.5,449.5 490.5,449.5C 493.514,456.535 496.681,463.535 500,470.5C 500.707,468.919 501.54,467.419 502.5,466C 502.167,465.667 501.833,465.333 501.5,465C 502.416,464.626 503.25,464.126 504,463.5C 505.012,460.139 506.512,456.972 508.5,454C 508.167,453.667 507.833,453.333 507.5,453C 508.509,450.828 510.176,449.662 512.5,449.5C 512.317,447.064 512.984,444.897 514.5,443C 514.167,442.667 513.833,442.333 513.5,442C 514.646,441.355 515.646,440.522 516.5,439.5C 517.269,436.128 518.935,433.295 521.5,431C 520.639,428.679 521.639,427.513 524.5,427.5C 524.629,424.234 525.629,421.234 527.5,418.5C 574.682,341.088 630.182,267.422 694,197.5C 714.653,175.806 735.486,155.973 756.5,138C 785.33,112.94 817.497,92.1063 853,75.5C 853.333,75.8333 853.667,76.1667 854,76.5C 855.709,73.8844 857.876,72.8844 860.5,73.5C 869.352,67.9355 878.852,64.9355 889,64.5C 889.605,62.5188 890.605,62.1854 892,63.5C 893.171,62.1068 894.671,61.2735 896.5,61C 915.689,57.208 934.689,57.8746 953.5,63C 968.076,69.1847 979.742,79.8513 988.5,95C 988.167,95.3333 987.833,95.6667 987.5,96C 990.089,100.512 992.423,105.178 994.5,110C 994.167,110.333 993.833,110.667 993.5,111C 995.127,115.384 996.46,119.884 997.5,124.5C 997.392,125.442 997.059,126.275 996.5,127C 997.926,129.045 998.926,131.212 999.5,133.5 Z"/></g>
</svg>
