<?xml version="1.0" encoding="UTF-8"?>
<!DOCTYPE svg PUBLIC "-//W3C//DTD SVG 1.1//EN" "http://www.w3.org/Graphics/SVG/1.1/DTD/svg11.dtd">
<svg xmlns="http://www.w3.org/2000/svg" version="1.1" width="2000px" height="2000px" style="shape-rendering:geometricPrecision; text-rendering:geometricPrecision; image-rendering:optimizeQuality; fill-rule:evenodd; clip-rule:evenodd" xmlns:xlink="http://www.w3.org/1999/xlink">
<g><path style="opacity:0.997" fill="#fefffe" d="M 1999.5,282.5 C 1999.5,308.167 1999.5,333.833 1999.5,359.5C 1990.09,508.031 1977.25,656.697 1961,805.5C 1957.18,839.742 1951.85,873.742 1945,907.5C 1907.06,1036.78 1824.56,1123.95 1697.5,1169C 1623.13,1193.5 1546.8,1203.5 1468.5,1199C 1453.8,1198 1439.13,1197 1424.5,1196C 1497.6,1209.93 1566.93,1234.26 1632.5,1269C 1664.29,1286.83 1693.13,1308.66 1719,1334.5C 1783.14,1404.21 1798.14,1483.54 1764,1572.5C 1746.27,1613.52 1722.94,1650.85 1694,1684.5C 1648.32,1735.86 1597.49,1781.03 1541.5,1820C 1503.58,1845.62 1462.24,1863.62 1417.5,1874C 1351.74,1886.99 1291.4,1874.32 1236.5,1836C 1201.33,1810.17 1170.83,1779.67 1145,1744.5C 1113.09,1699.36 1085.75,1651.36 1063,1600.5C 1039.97,1546.74 1019.3,1492.08 1001,1436.5C 1000,1440.5 999,1440.5 998,1436.5C 978.421,1495.91 956.088,1554.24 931,1611.5C 904.496,1670.59 870.829,1724.92 830,1774.5C 796.912,1813.62 757.078,1843.45 710.5,1864C 677.76,1876.08 644.093,1880.92 609.5,1878.5C 566.939,1873.03 526.939,1859.86 489.5,1839C 442.898,1812.35 400.231,1780.35 361.5,1743C 324.841,1709.03 292.674,1671.53 265,1630.5C 239.456,1591.87 223.789,1549.54 218,1503.5C 213.607,1453.4 225.607,1407.73 254,1366.5C 281.223,1329.27 314.723,1299.11 354.5,1276C 406.123,1246.45 460.79,1224.12 518.5,1209C 537.072,1204.29 555.739,1199.95 574.5,1196C 490.274,1205.47 407.274,1199.13 325.5,1177C 249.355,1155.12 184.855,1114.96 132,1056.5C 88.1937,1004.54 60.1937,944.874 48,877.5C 37.2124,801.412 28.5458,725.079 22,648.5C 13.3702,551.821 5.87022,455.488 -0.5,359.5C -0.5,333.833 -0.5,308.167 -0.5,282.5C 12.6206,146.892 85.6206,94.3917 218.5,125C 278.604,142.057 334.604,167.724 386.5,202C 439.963,237.441 489.963,277.441 536.5,322C 623.394,406.522 703.227,496.689 776,592.5C 850.876,690.537 918.543,793.537 979,901.5C 985.593,915.021 992.427,928.354 999.5,941.5C 1039.99,862.886 1085.16,787.219 1135,714.5C 1208.35,607.56 1288.68,505.893 1376,409.5C 1419.62,363.209 1465.12,319.042 1512.5,277C 1567.58,229.279 1627.91,189.279 1693.5,157C 1734.42,137.041 1777.42,123.708 1822.5,117C 1918.28,108.979 1975.45,152.146 1994,246.5C 1995.81,258.649 1997.64,270.649 1999.5,282.5 Z"/></g>
</svg>
