<?xml version="1.0" encoding="UTF-8"?>
<!DOCTYPE svg PUBLIC "-//W3C//DTD SVG 1.1//EN" "http://www.w3.org/Graphics/SVG/1.1/DTD/svg11.dtd">
<svg xmlns="http://www.w3.org/2000/svg" version="1.1" width="1000px" height="1000px" style="shape-rendering:geometricPrecision; text-rendering:geometricPrecision; image-rendering:optimizeQuality; fill-rule:evenodd; clip-rule:evenodd" xmlns:xlink="http://www.w3.org/1999/xlink">
<g><path style="opacity:0.994" fill="#fefefe" d="M 995.5,185.5 C 992.833,186.167 992.833,186.833 995.5,187.5C 996.055,191.997 995.389,196.164 993.5,200C 994.733,201.698 995.4,203.698 995.5,206C 994.606,212.671 993.273,219.171 991.5,225.5C 992.095,227.44 992.428,229.44 992.5,231.5C 990.259,254.303 988.425,276.97 987,299.5C 985.448,316.641 983.615,333.974 981.5,351.5C 981.57,352.772 981.903,353.938 982.5,355C 979.341,377.777 976.508,400.944 974,424.5C 967.382,478.446 943.216,522.112 901.5,555.5C 892.109,561.879 882.443,567.879 872.5,573.5C 872.631,572.624 872.298,571.957 871.5,571.5C 870.614,572.325 870.281,573.325 870.5,574.5C 838.775,589.241 805.441,597.741 770.5,600C 757.5,600.333 744.5,600.667 731.5,601C 757.007,606.963 782.341,616.296 807.5,629C 830.668,641.104 850.834,657.604 868,678.5C 872.667,687.167 877.333,695.833 882,704.5C 887.353,719.811 889.186,735.311 887.5,751C 883.476,777.627 872.976,802.127 856,824.5C 831.483,855.854 802.983,882.854 770.5,905.5C 752.31,916.76 732.977,925.594 712.5,932C 692.764,936.644 673.097,936.644 653.5,932C 635.016,926.096 618.349,917.096 603.5,905C 574.054,876.221 550.888,843.054 534,805.5C 523.52,782.612 514.353,759.612 506.5,736.5C 506.709,735.914 507.043,735.414 507.5,735C 505.288,732.737 503.622,730.07 502.5,727C 502.833,726.667 503.167,726.333 503.5,726C 502.144,723.602 500.977,721.102 500,718.5C 497.48,723.744 495.647,728.911 494.5,734C 492.431,734.324 492.098,735.158 493.5,736.5C 482.147,769.705 467.647,803.038 450,836.5C 435.574,860.617 418.407,882.784 398.5,903C 390.453,910.013 381.787,916.013 372.5,921C 366.321,924.054 359.987,926.887 353.5,929.5C 352.914,929.291 352.414,928.957 352,928.5C 349.878,931.315 347.212,932.315 344,931.5C 340.942,932.763 337.775,933.763 334.5,934.5C 294.416,937.859 258.582,927.192 227,902.5C 226.667,902.833 226.333,903.167 226,903.5C 190.643,877.809 160.309,847.142 135,811.5C 123.766,793.384 116.433,774.384 113,754.5C 112.253,749.524 111.753,744.524 111.5,739.5C 111.574,736.713 112.24,734.213 113.5,732C 112.925,717.903 116.259,705.237 123.5,694C 123.167,693.667 122.833,693.333 122.5,693C 123.416,692.626 124.25,692.126 125,691.5C 129.526,681.131 136.026,672.131 144.5,664.5C 165.701,644.185 190.034,628.352 217.5,617C 226.083,614.028 234.583,610.862 243,607.5C 244.583,607.493 246.249,607.826 248,608.5C 250.039,605.469 252.705,604.469 256,605.5C 257.588,603.192 259.588,602.525 262,603.5C 262.605,601.519 263.605,601.185 265,602.5C 266.067,601.809 267.234,601.309 268.5,601C 237.032,601.917 206.366,598.75 176.5,591.5C 172.509,590.546 168.676,589.213 165,587.5C 163.984,588.634 163.317,588.301 163,586.5C 161.184,587.743 159.684,587.41 158.5,585.5C 157.833,582.833 157.167,582.833 156.5,585.5C 136.067,578.953 117.401,569.286 100.5,556.5C 100.719,555.325 100.386,554.325 99.5,553.5C 98.8933,553.624 98.56,553.957 98.5,554.5C 90.9616,549.078 84.1283,543.411 78,537.5C 68.1394,525.664 58.806,513.331 50,500.5C 37.6786,477.7 29.8453,453.367 26.5,427.5C 22.9935,398.93 19.6602,370.097 16.5,341C 16.0868,329.672 15.0868,318.172 13.5,306.5C 13.5901,304.772 13.9234,303.106 14.5,301.5C 12.3162,298.193 11.9829,294.693 13.5,291C 11.6353,286.143 10.6353,280.976 10.5,275.5C 10.5507,273.9 10.8841,272.4 11.5,271C 9.09049,249.592 7.09049,228.092 5.5,206.5C 5.55929,204.109 5.89262,201.775 6.5,199.5C 5.67504,198.614 4.67504,198.281 3.5,198.5C 2.85406,179.764 3.52072,161.264 5.5,143C 4.4216,142.326 3.75493,141.326 3.5,140C 6.0014,130.143 8.5014,120.643 11,111.5C 19.8284,84.8085 37.6617,68.8085 64.5,63.5C 76.1667,62.1667 87.8333,62.1667 99.5,63.5C 111.118,65.922 122.784,69.0887 134.5,73C 167.753,86.1418 198.753,103.808 227.5,126C 271.368,162.202 311.534,202.035 348,245.5C 361.644,263.802 375.977,281.468 391,298.5C 420.985,340.012 449.319,382.012 476,424.5C 483.998,439.161 491.998,453.828 500,468.5C 560.472,355.466 636.639,253.966 728.5,164C 742.363,152.205 755.697,140.538 768.5,129C 798.301,105.288 830.635,86.6211 865.5,73C 877.552,69.2651 889.218,66.0984 900.5,63.5C 925.749,59.18 948.082,64.0133 967.5,78C 982.183,92.5302 990.516,110.03 992.5,130.5C 995.75,132.032 996.084,133.866 993.5,136C 995.477,152.261 996.143,168.761 995.5,185.5 Z"/></g>
<g><path style="opacity:0.067" fill="#dedede" d="M 995.5,185.5 C 995.5,186.167 995.5,186.833 995.5,187.5C 992.833,186.833 992.833,186.167 995.5,185.5 Z"/></g>
<g><path style="opacity:0.486" fill="#e8e8e8" d="M 98.5,554.5 C 98.56,553.957 98.8933,553.624 99.5,553.5C 100.386,554.325 100.719,555.325 100.5,556.5C 99.8333,555.833 99.1667,555.167 98.5,554.5 Z"/></g>
<g><path style="opacity:0.094" fill="#e4e4e4" d="M 872.5,573.5 C 871.833,573.833 871.167,574.167 870.5,574.5C 870.281,573.325 870.614,572.325 871.5,571.5C 872.298,571.957 872.631,572.624 872.5,573.5 Z"/></g>
<g><path style="opacity:0.173" fill="#e9e9e9" d="M 158.5,585.5 C 157.833,585.5 157.167,585.5 156.5,585.5C 157.167,582.833 157.833,582.833 158.5,585.5 Z"/></g>
</svg>
