<?xml version="1.0" encoding="UTF-8"?>
<!DOCTYPE svg PUBLIC "-//W3C//DTD SVG 1.1//EN" "http://www.w3.org/Graphics/SVG/1.1/DTD/svg11.dtd">
<svg xmlns="http://www.w3.org/2000/svg" version="1.1" width="1500px" height="1500px" style="shape-rendering:geometricPrecision; text-rendering:geometricPrecision; image-rendering:optimizeQuality; fill-rule:evenodd; clip-rule:evenodd" xmlns:xlink="http://www.w3.org/1999/xlink">
<g><path style="opacity:1" fill="#000000" d="M -0.5,-0.5 C 499.5,-0.5 999.5,-0.5 1499.5,-0.5C 1499.5,499.5 1499.5,999.5 1499.5,1499.5C 999.5,1499.5 499.5,1499.5 -0.5,1499.5C -0.5,999.5 -0.5,499.5 -0.5,-0.5 Z"/></g>
<g><path style="opacity:1" fill="#fbfbfb" d="M 468.5,405.5 C 474.885,404.373 478.719,407.04 480,413.5C 501.727,460.952 522.894,508.618 543.5,556.5C 543.43,557.772 543.097,558.938 542.5,560C 535.833,560.667 529.167,560.667 522.5,560C 517.021,549.732 512.021,539.232 507.5,528.5C 483.84,527.334 460.174,527.167 436.5,528C 431.598,537.639 427.098,547.472 423,557.5C 422.167,558.333 421.333,559.167 420.5,560C 414.167,560.667 407.833,560.667 401.5,560C 399.163,557.407 398.996,554.574 401,551.5C 423.257,502.657 445.757,453.99 468.5,405.5 Z"/></g>
<g><path style="opacity:1" fill="#fafafa" d="M 676.5,405.5 C 679.518,405.335 682.518,405.502 685.5,406C 701.449,443.337 717.116,480.837 732.5,518.5C 747.662,481.509 762.828,444.509 778,407.5C 781.442,405.267 785.108,404.933 789,406.5C 799.17,457.012 808.17,507.679 816,558.5C 815.5,559 815,559.5 814.5,560C 808.167,560.667 801.833,560.667 795.5,560C 795,559.5 794.5,559 794,558.5C 788.44,526.137 782.773,493.804 777,461.5C 764,494.5 751,527.5 738,560.5C 734.817,562.523 731.317,563.023 727.5,562C 713.616,528.354 700.116,494.521 687,460.5C 681.28,492.767 675.947,525.101 671,557.5C 670.5,558.667 669.667,559.5 668.5,560C 662.167,560.667 655.833,560.667 649.5,560C 649,559.5 648.5,559 648,558.5C 656.14,509.795 664.806,461.128 674,412.5C 674.379,409.97 675.213,407.637 676.5,405.5 Z"/></g>
<g><path style="opacity:1" fill="#fcfcfc" d="M 269.5,407.5 C 275.842,407.334 282.175,407.5 288.5,408C 289,408.5 289.5,409 290,409.5C 290.958,449.529 290.625,489.529 289,529.5C 280.237,554.975 262.404,565.809 235.5,562C 226.031,559.191 218.197,554.024 212,546.5C 211.333,544.833 211.333,543.167 212,541.5C 215.204,538.631 218.037,535.465 220.5,532C 222.833,530 225.167,530 227.5,532C 239.049,545.833 250.882,546 263,532.5C 265.705,527.164 267.038,521.498 267,515.5C 267.333,480.167 267.667,444.833 268,409.5C 268.717,408.956 269.217,408.289 269.5,407.5 Z"/></g>
<g><path style="opacity:1" fill="#fcfcfc" d="M 943.5,407.5 C 974.168,407.333 1004.84,407.5 1035.5,408C 1036,408.5 1036.5,409 1037,409.5C 1037.67,415.167 1037.67,420.833 1037,426.5C 1036.5,427 1036,427.5 1035.5,428C 1011.84,428.5 988.169,428.667 964.5,428.5C 964.5,443.167 964.5,457.833 964.5,472.5C 984.503,472.333 1004.5,472.5 1024.5,473C 1025.78,475.894 1026.45,479.061 1026.5,482.5C 1026.33,485.5 1026.17,488.5 1026,491.5C 1025.5,492 1025,492.5 1024.5,493C 1004.5,493.5 984.503,493.667 964.5,493.5C 964.5,508.833 964.5,524.167 964.5,539.5C 988.169,539.333 1011.84,539.5 1035.5,540C 1036,540.5 1036.5,541 1037,541.5C 1037.67,547.167 1037.67,552.833 1037,558.5C 1036.5,559 1036,559.5 1035.5,560C 1004.83,560.667 974.167,560.667 943.5,560C 943,559.5 942.5,559 942,558.5C 941.333,508.833 941.333,459.167 942,409.5C 942.717,408.956 943.217,408.289 943.5,407.5 Z"/></g>
<g><path style="opacity:1" fill="#fbfbfb" d="M 1143.5,407.5 C 1150.84,407.334 1158.17,407.5 1165.5,408C 1178.48,426.803 1191.81,445.303 1205.5,463.5C 1219,445.163 1232.33,426.663 1245.5,408C 1252.83,407.333 1260.17,407.333 1267.5,408C 1270.08,410.892 1269.92,413.725 1267,416.5C 1250.33,439.833 1233.67,463.167 1217,486.5C 1216.67,510.5 1216.33,534.5 1216,558.5C 1215.5,559 1215,559.5 1214.5,560C 1208.17,560.667 1201.83,560.667 1195.5,560C 1195,559.5 1194.5,559 1194,558.5C 1193.67,534.5 1193.33,510.5 1193,486.5C 1176.25,461.992 1159.25,437.659 1142,413.5C 1141.25,411.16 1141.75,409.16 1143.5,407.5 Z"/></g>
<g><path style="opacity:1" fill="#020202" d="M 497.5,506.5 C 480.341,507.497 463.008,507.83 445.5,507.5C 453.623,487.921 462.29,468.588 471.5,449.5C 480.543,468.283 489.21,487.283 497.5,506.5 Z"/></g>
<g><path style="opacity:1" fill="#686868" d="M 497.5,506.5 C 498.043,506.56 498.376,506.893 498.5,507.5C 489.5,507.833 480.5,508.167 471.5,508.5C 462.09,508.514 453.423,508.18 445.5,507.5C 463.008,507.83 480.341,507.497 497.5,506.5 Z"/></g>
<g><path style="opacity:1" fill="#fafafa" d="M 238.5,667.5 C 241.518,667.335 244.518,667.502 247.5,668C 263.129,705.428 278.629,742.928 294,780.5C 309.325,743.201 324.658,705.867 340,668.5C 343.892,666.933 347.558,667.267 351,669.5C 360.327,718.964 369.494,768.464 378.5,818C 378.561,819.711 377.894,821.044 376.5,822C 370.167,822.667 363.833,822.667 357.5,822C 357,821.5 356.5,821 356,820.5C 349.903,787.92 344.237,755.254 339,722.5C 325.875,756.554 312.375,790.388 298.5,824C 295.5,824.667 292.5,824.667 289.5,824C 288.299,823.097 287.465,821.931 287,820.5C 274.445,787.723 261.611,755.056 248.5,722.5C 242.89,755.157 237.39,787.824 232,820.5C 231.5,821 231,821.5 230.5,822C 224.167,822.667 217.833,822.667 211.5,822C 211,821.5 210.5,821 210,820.5C 217.342,774.781 225.342,729.114 234,683.5C 234.691,677.844 236.191,672.511 238.5,667.5 Z"/></g>
<g><path style="opacity:1" fill="#fbfbfb" d="M 501.5,667.5 C 504.685,667.02 507.519,667.686 510,669.5C 532,718.167 554,766.833 576,815.5C 576.896,818.025 576.396,820.192 574.5,822C 568.167,822.667 561.833,822.667 555.5,822C 549.926,811.519 544.593,800.853 539.5,790C 515.826,789.167 492.16,789.334 468.5,790.5C 464.158,801.35 459.158,811.85 453.5,822C 446.586,822.811 439.752,822.645 433,821.5C 432.333,819.5 432.333,817.5 433,815.5C 455.186,765.733 478.019,716.4 501.5,667.5 Z"/></g>
<g><path style="opacity:1" fill="#fafafa" d="M 883.5,667.5 C 906.405,664.242 927.072,669.409 945.5,683C 948.325,685.143 950.325,687.81 951.5,691C 948.082,696.755 943.582,701.588 938,705.5C 920.164,690.11 899.997,685.944 877.5,693C 850.52,707.13 839.686,729.296 845,759.5C 854.764,789.968 875.598,803.801 907.5,801C 911.984,800.129 916.317,798.796 920.5,797C 926.634,793.837 932.467,790.337 938,786.5C 942.876,789.364 947.21,793.031 951,797.5C 951.667,799.5 951.667,801.5 951,803.5C 926.061,825.486 897.894,830.653 866.5,819C 829.5,800.505 814,770.672 820,729.5C 828.857,696.142 850.024,675.475 883.5,667.5 Z"/></g>
<g><path style="opacity:1" fill="#fcfcfc" d="M 696.5,763.5 C 685.679,762.505 674.679,762.172 663.5,762.5C 663.5,781.5 663.5,800.5 663.5,819.5C 663.586,820.496 663.252,821.329 662.5,822C 655.586,822.811 648.752,822.645 642,821.5C 641.333,771.167 641.333,720.833 642,670.5C 666.094,669.339 690.261,669.173 714.5,670C 741.628,678.124 754.128,696.291 752,724.5C 747.621,741.883 737.121,754.05 720.5,761C 730.46,779.087 740.294,797.254 750,815.5C 750.896,818.025 750.396,820.192 748.5,822C 740.92,822.813 733.42,822.647 726,821.5C 716.392,801.95 706.559,782.616 696.5,763.5 Z"/></g>
<g><path style="opacity:1" fill="#fcfcfc" d="M 1048.5,755.5 C 1047.5,770.991 1047.17,786.658 1047.5,802.5C 1071.17,802.5 1094.83,802.5 1118.5,802.5C 1119.12,802.611 1119.62,802.944 1120,803.5C 1120.17,806.5 1120.33,809.5 1120.5,812.5C 1120.45,815.939 1119.78,819.106 1118.5,822C 1087.59,822.829 1056.76,822.662 1026,821.5C 1024.84,796.419 1024.34,771.252 1024.5,746C 1024.34,720.748 1024.84,695.581 1026,670.5C 1057.09,669.338 1088.26,669.171 1119.5,670C 1120.64,676.084 1120.81,682.251 1120,688.5C 1119.5,689 1119,689.5 1118.5,690C 1094.84,690.5 1071.17,690.667 1047.5,690.5C 1047.5,705.167 1047.5,719.833 1047.5,734.5C 1067.84,734.333 1088.17,734.5 1108.5,735C 1109,735.5 1109.5,736 1110,736.5C 1110.67,741.833 1110.67,747.167 1110,752.5C 1109.63,753.416 1109.13,754.25 1108.5,755C 1088.5,755.5 1068.5,755.667 1048.5,755.5 Z"/></g>
<g><path style="opacity:1" fill="#f8f8f8" d="M 1198.5,669.5 C 1205.17,669.334 1211.84,669.5 1218.5,670C 1219.13,670.75 1219.63,671.584 1220,672.5C 1220.5,715.499 1220.67,758.499 1220.5,801.5C 1240.5,801.333 1260.5,801.5 1280.5,802C 1281.33,802.833 1282.17,803.667 1283,804.5C 1283.67,809.833 1283.67,815.167 1283,820.5C 1282.5,821 1282,821.5 1281.5,822C 1253.59,822.828 1225.76,822.661 1198,821.5C 1196.84,796.419 1196.34,771.252 1196.5,746C 1196.67,721.5 1196.83,697 1197,672.5C 1197.51,671.473 1198.01,670.473 1198.5,669.5 Z"/></g>
<g><path style="opacity:1" fill="#020202" d="M 664.5,690.5 C 678.504,690.333 692.504,690.5 706.5,691C 727.477,697.785 733.644,711.285 725,731.5C 721.407,736.084 716.907,739.584 711.5,742C 695.883,743.42 680.216,743.92 664.5,743.5C 664.5,725.833 664.5,708.167 664.5,690.5 Z"/></g>
<g><path style="opacity:1" fill="#020202" d="M 530.5,768.5 C 513.167,769.833 495.833,769.833 478.5,768.5C 486.78,749.326 495.447,730.326 504.5,711.5C 513.438,730.376 522.105,749.376 530.5,768.5 Z"/></g>
<g><path style="opacity:1" fill="#929292" d="M 696.5,763.5 C 685.833,763.5 675.167,763.5 664.5,763.5C 664.83,782.341 664.497,801.007 663.5,819.5C 663.5,800.5 663.5,781.5 663.5,762.5C 674.679,762.172 685.679,762.505 696.5,763.5 Z"/></g>
<g><path style="opacity:1" fill="#6a6a6a" d="M 478.5,768.5 C 495.833,769.833 513.167,769.833 530.5,768.5C 531.043,768.56 531.376,768.893 531.5,769.5C 513.5,770.833 495.5,770.833 477.5,769.5C 477.624,768.893 477.957,768.56 478.5,768.5 Z"/></g>
<g><path style="opacity:1" fill="#919191" d="M 1048.5,755.5 C 1048.5,770.833 1048.5,786.167 1048.5,801.5C 1072.01,801.169 1095.34,801.502 1118.5,802.5C 1094.83,802.5 1071.17,802.5 1047.5,802.5C 1047.17,786.658 1047.5,770.991 1048.5,755.5 Z"/></g>
<g><path style="opacity:1" fill="#fbfbfb" d="M 737.5,929.5 C 775.433,925.88 803.6,940.546 822,973.5C 836.727,1010.08 829.894,1041.91 801.5,1069C 782.289,1083.76 760.622,1089.42 736.5,1086C 703.932,1078.47 683.099,1058.64 674,1026.5C 667.412,983.502 683.579,952.668 722.5,934C 727.577,932.32 732.577,930.82 737.5,929.5 Z"/></g>
<g><path style="opacity:1" fill="#fafafa" d="M 1190.5,929.5 C 1225.96,925.984 1253.46,938.984 1273,968.5C 1290.4,1004.94 1285.23,1037.77 1257.5,1067C 1232.22,1087.39 1204.22,1092.05 1173.5,1081C 1142.99,1066.34 1126.99,1042.01 1125.5,1008C 1126.72,977.822 1140.05,954.822 1165.5,939C 1173.61,934.913 1181.94,931.747 1190.5,929.5 Z"/></g>
<g><path style="opacity:1" fill="#fbfbfb" d="M 214.5,931.5 C 234.836,931.333 255.169,931.5 275.5,932C 299.98,938.149 313.313,953.816 315.5,979C 313.834,1006 299.834,1022.67 273.5,1029C 260.838,1029.5 248.171,1029.67 235.5,1029.5C 235.667,1046.84 235.5,1064.17 235,1081.5C 234.626,1082.42 234.126,1083.25 233.5,1084C 226.586,1084.81 219.752,1084.64 213,1083.5C 212.833,1058.33 212.667,1033.17 212.5,1008C 212.509,982.285 213.176,956.785 214.5,931.5 Z"/></g>
<g><path style="opacity:1" fill="#fcfcfc" d="M 430.5,931.5 C 437.422,931.188 444.256,931.521 451,932.5C 451.5,953.831 451.667,975.164 451.5,996.5C 478.167,996.5 504.833,996.5 531.5,996.5C 531.333,975.497 531.5,954.497 532,933.5C 532.5,933 533,932.5 533.5,932C 539.833,931.333 546.167,931.333 552.5,932C 553,932.5 553.5,933 554,933.5C 554.667,983.167 554.667,1032.83 554,1082.5C 553.5,1083 553,1083.5 552.5,1084C 546.167,1084.67 539.833,1084.67 533.5,1084C 533,1083.5 532.5,1083 532,1082.5C 531.5,1060.84 531.333,1039.17 531.5,1017.5C 504.833,1017.5 478.167,1017.5 451.5,1017.5C 451.667,1039.5 451.5,1061.5 451,1083.5C 444.248,1084.64 437.414,1084.81 430.5,1084C 430,1083.5 429.5,1083 429,1082.5C 428.333,1032.83 428.333,983.167 429,933.5C 429.717,932.956 430.217,932.289 430.5,931.5 Z"/></g>
<g><path style="opacity:1" fill="#fbfbfb" d="M 928.5,931.5 C 961.502,931.333 994.502,931.5 1027.5,932C 1028.64,938.084 1028.81,944.251 1028,950.5C 1027.5,951 1027,951.5 1026.5,952C 1014.17,952.5 1001.84,952.667 989.5,952.5C 989.667,995.835 989.5,1039.17 989,1082.5C 988.5,1083 988,1083.5 987.5,1084C 980.586,1084.81 973.752,1084.64 967,1083.5C 966.5,1039.83 966.333,996.168 966.5,952.5C 953.829,952.667 941.162,952.5 928.5,952C 928,951.5 927.5,951 927,950.5C 926.333,944.833 926.333,939.167 927,933.5C 927.717,932.956 928.217,932.289 928.5,931.5 Z"/></g>
<g><path style="opacity:1" fill="#010101" d="M 743.5,951.5 C 768.134,950.232 786.967,959.898 800,980.5C 811.13,1003.06 809.13,1024.39 794,1044.5C 777.287,1062.06 757.12,1067.89 733.5,1062C 702.818,1048.65 690.652,1025.49 697,992.5C 704.617,969.707 720.117,956.04 743.5,951.5 Z"/></g>
<g><path style="opacity:1" fill="#000000" d="M 1195.5,951.5 C 1225.59,949.947 1246.42,962.947 1258,990.5C 1265.01,1017.81 1257.18,1039.64 1234.5,1056C 1207.78,1069.68 1183.62,1066.18 1162,1045.5C 1144.84,1021.95 1144.17,997.946 1160,973.5C 1169.48,962.158 1181.31,954.825 1195.5,951.5 Z"/></g>
<g><path style="opacity:1" fill="#000000" d="M 235.5,953.5 C 245.839,953.334 256.172,953.5 266.5,954C 281.613,955.947 290.28,964.447 292.5,979.5C 291.165,995.667 282.498,1004.83 266.5,1007C 256.172,1007.5 245.839,1007.67 235.5,1007.5C 235.5,989.5 235.5,971.5 235.5,953.5 Z"/></g>
</svg>
