<svg version="1.1" id="Layer_1" xmlns="http://www.w3.org/2000/svg" xmlns:xlink="http://www.w3.org/1999/xlink" x="0px" y="0px"
	 width="100%" viewBox="0 0 1500 1500" enable-background="new 0 0 1500 1500" xml:space="preserve">
<path fill="#000000" opacity="1.000000" stroke="none" 
	d="
M990.000000,1501.000000 
	C660.000061,1501.000000 330.500122,1501.000000 1.000133,1501.000000 
	C1.000088,1001.000122 1.000088,501.000305 1.000044,1.000334 
	C500.999756,1.000223 1000.999512,1.000223 1500.999512,1.000111 
	C1500.999634,500.999664 1500.999634,1000.999329 1500.999756,1500.999512 
	C1330.833374,1501.000000 1160.666626,1501.000000 990.000000,1501.000000 
M698.957031,435.443604 
	C695.679871,427.465485 692.135437,419.582916 689.235168,411.470032 
	C687.723206,407.240448 685.114380,406.393372 681.226929,406.612640 
	C677.175842,406.841156 676.617737,409.650330 676.049866,412.743195 
	C670.530762,442.804840 664.958740,472.856750 659.428589,502.916351 
	C656.182434,520.561646 652.956482,538.210876 649.784668,555.869629 
	C648.962463,560.446838 650.251709,561.923157 654.877502,561.994263 
	C658.708374,562.053162 662.551086,561.831482 666.369751,562.054993 
	C670.292725,562.284546 672.128784,560.650452 672.728943,556.798767 
	C676.413330,533.151978 680.197693,509.520691 683.982666,485.889648 
	C685.241028,478.033356 686.599121,470.193024 688.155090,460.889252 
	C701.361267,494.478333 714.021973,526.544189 726.525940,558.671143 
	C727.943420,562.313110 729.566589,564.457275 733.916626,564.475708 
	C738.213806,564.493835 739.588196,562.119141 740.884033,558.770569 
	C752.260803,529.371521 763.719482,500.004211 775.176453,470.636292 
	C776.184631,468.051971 777.354065,465.530548 779.043274,461.594025 
	C780.554138,470.703094 781.798645,478.227692 783.050720,485.751007 
	C787.005310,509.513702 791.013855,533.267578 794.865845,557.046875 
	C795.468750,560.768982 797.280823,562.186646 800.895874,562.037537 
	C804.388489,561.893433 807.891724,562.015320 811.390259,562.004456 
	C817.670288,561.984924 818.694275,560.687195 817.558899,554.587280 
	C814.975220,540.705688 812.443359,526.814392 809.910095,512.923462 
	C803.800049,479.420105 797.714783,445.912231 791.573120,412.414703 
	C791.061035,409.621643 790.448730,406.810822 786.600281,406.614990 
	C782.785461,406.420837 780.130005,407.103607 778.460876,411.292480 
	C767.836304,437.955811 756.937378,464.509918 746.125183,491.098480 
	C742.228271,500.681274 738.321411,510.259979 733.927856,521.046509 
	C722.005737,491.907806 710.604065,464.041290 698.957031,435.443604 
M227.200363,731.613159 
	C225.985199,738.318848 224.791183,745.028442 223.550995,751.729492 
	C219.468658,773.787109 215.347717,795.837708 211.295273,817.900818 
	C210.478226,822.349182 211.926788,823.926636 216.615067,823.997742 
	C219.614304,824.043213 222.614807,824.006531 225.614731,824.006348 
	C233.434875,824.005798 233.563034,823.903076 234.772018,816.290405 
	C238.866318,790.509705 242.943665,764.726318 247.060043,738.949158 
	C247.816055,734.214844 248.724152,729.504883 249.562042,724.783691 
	C251.377380,726.983826 252.233963,729.119141 253.075562,731.260376 
	C264.913635,761.378845 276.801819,791.477783 288.516602,821.644165 
	C289.895996,825.196167 291.914337,826.462036 295.592896,826.436707 
	C299.141357,826.412292 300.866028,825.039795 302.142975,821.700562 
	C310.323883,800.307861 318.722443,778.998169 327.073669,757.670776 
	C331.459930,746.469116 335.895294,735.286682 340.679688,723.154297 
	C343.293182,739.195801 345.711914,754.120056 348.158783,769.039673 
	C350.849121,785.444092 353.611725,801.836853 356.237946,818.251526 
	C356.899231,822.384766 358.714600,824.488708 363.211578,824.070679 
	C366.681519,823.748169 370.205566,824.024292 373.705322,824.002197 
	C379.318787,823.966736 380.219025,822.904541 379.259552,817.527283 
	C378.150726,811.313171 377.068176,805.094299 375.931732,798.885254 
	C368.391937,757.690857 360.831635,716.500244 353.311035,675.302368 
	C352.728577,672.111572 352.445953,668.983337 348.110046,668.616821 
	C343.865173,668.257996 341.546997,669.744080 339.885986,673.923401 
	C329.407227,700.289612 318.640045,726.541382 307.953888,752.825073 
	C303.965424,762.635193 299.938812,772.429871 295.579376,783.087769 
	C293.089417,776.978943 290.970917,771.776489 288.848724,766.575623 
	C276.180725,735.530334 263.453094,704.509033 250.915100,673.411377 
	C249.283112,669.363586 246.707794,668.265015 242.778030,668.643005 
	C239.166962,668.990295 238.411804,671.316040 237.849548,674.414490 
	C234.438110,693.214172 230.847305,711.981384 227.200363,731.613159 
M1142.832642,962.317078 
	C1129.493286,980.791077 1124.464478,1001.408875 1128.610962,1023.712524 
	C1135.458008,1060.543335 1163.115356,1084.940430 1200.492920,1088.068848 
	C1253.316528,1092.489990 1295.555786,1042.547974 1282.258057,990.972717 
	C1274.184937,959.660828 1254.045166,939.346191 1222.518066,932.614014 
	C1190.637939,925.806458 1163.826538,936.142029 1142.832642,962.317078 
M741.784119,1087.788940 
	C750.893127,1087.433350 760.252930,1088.308838 769.068359,1086.512451 
	C810.680542,1078.033691 836.767700,1038.447266 829.777954,995.454956 
	C823.141296,954.633911 783.624817,925.777954 741.837708,931.238770 
	C693.022034,937.618103 661.668396,988.070862 677.835815,1034.833862 
	C688.218689,1064.865723 709.776367,1082.126343 741.784119,1087.788940 
M730.345093,677.125061 
	C722.756653,673.006531 714.742920,670.855530 706.010864,670.940308 
	C687.355286,671.121643 668.696655,670.994202 650.039307,670.996765 
	C643.085999,670.997681 642.656799,671.416321 642.656250,678.290649 
	C642.652649,724.267700 642.653564,770.244812 642.653137,816.221863 
	C642.653137,817.221375 642.646057,818.220947 642.658691,819.220337 
	C642.699524,822.457825 644.183228,824.126160 647.581970,824.027466 
	C651.243774,823.921204 654.911011,824.012695 658.575867,824.002136 
	C664.602905,823.984741 665.703003,822.896179 665.714478,816.651550 
	C665.743042,801.159363 665.724426,785.666992 665.724670,770.174744 
	C665.724731,768.380920 665.724670,766.587158 665.724670,764.348694 
	C675.158142,764.348694 684.112366,764.531860 693.052734,764.260010 
	C696.710754,764.148804 698.649780,765.233154 700.276245,768.625610 
	C706.744324,782.116333 714.533569,795.059021 719.964172,808.936157 
	C724.759644,821.190002 731.714844,826.228027 744.852905,824.211914 
	C752.396240,823.054382 753.824585,821.660889 750.039307,814.612915 
	C740.702393,797.227844 731.381287,779.834229 722.025696,762.391602 
	C740.002380,753.986145 752.531860,741.266602 753.802063,720.582031 
	C754.952759,701.841919 746.795532,687.519348 730.345093,677.125061 
M547.328125,932.994812 
	C545.495850,932.994812 543.663635,932.994873 541.831360,932.994873 
	C532.696777,932.994934 532.648132,933.044128 532.648376,942.141663 
	C532.648987,960.618591 532.648621,979.095520 532.648621,997.783142 
	C506.146332,997.783142 479.881775,997.783142 453.350372,997.783142 
	C453.350372,995.774292 453.350372,993.959229 453.350342,992.144165 
	C453.350128,974.488342 453.279846,956.831970 453.399353,939.177002 
	C453.428986,934.799377 452.003601,932.587402 447.314728,932.948730 
	C444.168671,933.191162 440.988831,932.991943 437.824097,932.995300 
	C430.691406,933.002869 430.275116,933.425232 430.274811,940.737427 
	C430.272888,985.210144 430.273743,1029.682861 430.273956,1074.155640 
	C430.273956,1076.487549 430.239197,1078.820190 430.286896,1081.151123 
	C430.351837,1084.323608 431.777649,1086.103638 435.189392,1086.024902 
	C439.018341,1085.936401 442.850922,1086.013672 446.681885,1086.003052 
	C452.686798,1085.986328 453.332123,1085.388184 453.341858,1079.491333 
	C453.365479,1065.166748 453.349670,1050.842163 453.349701,1036.517578 
	C453.349701,1030.757080 453.349701,1024.996704 453.349701,1019.270386 
	C480.092133,1019.270386 506.289764,1019.270386 532.654297,1019.270386 
	C532.654297,1021.295654 532.654358,1022.956787 532.654297,1024.617920 
	C532.653687,1042.940063 532.686279,1061.262207 532.626648,1079.584106 
	C532.613281,1083.691162 533.633301,1086.412964 538.534912,1086.051758 
	C541.848267,1085.807617 545.194031,1086.008667 548.525330,1086.004395 
	C555.342285,1085.995850 555.906799,1085.443237 555.907410,1078.606323 
	C555.911377,1032.634521 555.909973,986.662659 555.906433,940.690857 
	C555.905884,933.493530 555.440125,933.033875 547.328125,932.994812 
M1097.475220,756.909912 
	C1097.974976,756.909973 1098.474854,756.908264 1098.974609,756.910400 
	C1112.224487,756.967468 1111.863159,758.075439 1111.740601,744.265503 
	C1111.670776,736.399109 1111.333008,735.994385 1103.652588,735.993774 
	C1085.682251,735.992371 1067.711914,735.993347 1049.546997,735.993347 
	C1049.546997,721.213379 1049.546997,706.791443 1049.546997,691.908752 
	C1051.297607,691.908752 1052.931519,691.908752 1054.565308,691.908752 
	C1072.390747,691.908691 1090.216064,691.903931 1108.041504,691.909790 
	C1123.845947,691.915039 1122.213257,693.415527 1122.411255,677.282776 
	C1122.469482,672.544495 1120.724854,670.882935 1115.935669,670.911865 
	C1088.282227,671.078918 1060.627441,670.987610 1032.973022,670.998169 
	C1027.299438,671.000366 1026.286255,671.958740 1026.283569,677.646729 
	C1026.262207,724.126099 1026.263916,770.605408 1026.280273,817.084778 
	C1026.282471,823.067139 1027.257812,824.001099 1033.230347,824.003113 
	C1058.385864,824.011536 1083.541382,824.036194 1108.696899,823.995667 
	C1123.773560,823.971375 1122.336548,825.927551 1122.338989,809.915405 
	C1122.339844,804.331970 1121.242065,803.283936 1115.559814,803.278564 
	C1095.402100,803.259460 1075.244385,803.271301 1055.086670,803.271423 
	C1053.297607,803.271423 1051.508545,803.271423 1049.536621,803.271423 
	C1049.536621,787.621948 1049.536621,772.512268 1049.536621,756.909485 
	C1065.230591,756.909485 1080.856567,756.909485 1097.475220,756.909912 
M943.093445,498.499969 
	C943.092651,517.157837 943.087891,535.815674 943.093079,554.473511 
	C943.095032,561.346191 943.728210,562.000488 950.412415,562.002136 
	C975.733826,562.008240 1001.055176,562.007629 1026.376587,562.003296 
	C1040.277100,562.000916 1039.002563,563.312805 1039.003906,549.443665 
	C1039.004639,541.634155 1038.647949,541.275879 1030.862671,541.275269 
	C1009.404480,541.273682 987.946289,541.274719 966.246948,541.274719 
	C966.246948,525.753296 966.246948,510.520447 966.246948,494.906067 
	C983.204651,494.906067 999.984802,494.905609 1016.765015,494.906219 
	C1028.350464,494.906616 1028.350342,494.907257 1028.348145,483.119110 
	C1028.346436,473.995514 1028.346558,473.995422 1019.224243,473.995422 
	C1001.612976,473.995361 984.001709,473.995422 966.349121,473.995422 
	C966.349121,459.053009 966.349121,444.518677 966.349121,429.906891 
	C968.524597,429.906891 970.355835,429.906891 972.187073,429.906891 
	C992.011047,429.906982 1011.834961,429.913910 1031.658936,429.903442 
	C1038.339722,429.899902 1038.993408,429.210602 1039.004028,422.378632 
	C1039.007324,420.212982 1039.009033,418.047333 1039.003662,415.881683 
	C1038.987549,409.365173 1038.645996,408.999969 1032.282837,408.998352 
	C1005.129028,408.991516 977.975159,408.994781 950.821350,408.995850 
	C943.558167,408.996124 943.095886,409.438995 943.094604,416.538208 
	C943.089722,443.525452 943.092529,470.512695 943.093445,498.499969 
M463.839691,419.229919 
	C452.951019,443.081665 442.053711,466.929413 431.176300,490.786316 
	C421.538849,511.923615 411.900330,533.060425 402.314148,554.221008 
	C399.766815,559.843933 401.138306,561.946960 407.182465,562.000366 
	C410.680969,562.031250 414.192444,561.820312 417.675415,562.054993 
	C421.627838,562.321350 423.718628,560.545532 425.206238,557.006958 
	C428.678680,548.747070 432.594910,540.673218 436.041199,532.403076 
	C437.195709,529.632446 438.690796,528.823120 441.606140,528.840759 
	C462.597992,528.967346 483.591492,528.977234 504.583099,528.832642 
	C507.728088,528.810913 509.213196,529.761047 510.345398,532.722534 
	C512.415527,538.137268 514.950745,543.382690 517.452026,548.622375 
	C525.203613,564.860657 520.520752,561.685120 537.989014,561.982300 
	C545.743347,562.114258 546.897278,560.242371 543.670105,553.091309 
	C534.114990,531.918030 524.514771,510.765106 514.943298,489.599243 
	C503.185730,463.599304 491.513306,437.560181 479.550964,411.654907 
	C478.570068,409.530731 475.881073,407.530609 473.575195,406.836456 
	C469.983429,405.755188 468.392883,408.828369 467.153046,411.715393 
	C466.172302,413.999176 465.116333,416.250641 463.839691,419.229919 
M504.241425,668.845764 
	C502.793488,670.524841 500.858154,671.980286 499.969879,673.916138 
	C483.567230,709.664429 467.284393,745.467712 450.988617,781.265015 
	C445.628418,793.039856 440.244324,804.804443 434.988495,816.625854 
	C432.627136,821.936951 434.040436,823.955505 439.831390,824.000732 
	C443.329865,824.028076 446.843689,823.803101 450.323517,824.059448 
	C454.272339,824.350281 456.449951,822.604370 457.944458,819.100159 
	C461.523499,810.707886 465.393341,802.439575 468.974274,794.048096 
	C469.936310,791.793640 471.030396,790.823242 473.659851,790.838562 
	C495.151184,790.963501 516.643982,790.851685 538.134521,791.032837 
	C539.606323,791.045227 541.707336,792.506287 542.412903,793.865845 
	C545.160645,799.160828 547.395325,804.718933 549.944641,810.120728 
	C558.004150,827.198120 552.893738,823.602295 571.597961,823.979980 
	C578.009949,824.109558 579.432373,821.896912 576.816528,816.117188 
	C555.268066,768.506042 533.663269,720.920288 512.192383,673.274231 
	C510.655853,669.864441 508.656281,668.202759 504.241425,668.845764 
M213.649994,990.499512 
	C213.649551,1010.155334 213.649109,1029.811157 213.648666,1049.466919 
	C213.648438,1059.794556 213.702042,1070.122437 213.620667,1080.449463 
	C213.589371,1084.418091 215.158539,1086.274292 219.297638,1086.051758 
	C223.283905,1085.837524 227.294510,1085.897095 231.287369,1086.037109 
	C234.908020,1086.164185 236.460724,1084.297852 236.698593,1080.982300 
	C236.805634,1079.490601 236.726242,1077.985352 236.726318,1076.486206 
	C236.727081,1061.376709 236.726791,1046.267090 236.726791,1030.726807 
	C246.954224,1030.726807 256.736664,1030.779175 266.517883,1030.695312 
	C269.497528,1030.669678 272.499756,1030.444824 275.447815,1030.012207 
	C300.184326,1026.382812 318.591797,1003.225525 316.725464,978.172119 
	C314.835297,952.798462 293.700684,933.048950 268.341492,933.000183 
	C252.516968,932.969727 236.692337,932.991028 220.867767,932.996094 
	C214.305573,932.998169 213.660538,933.610413 213.654755,940.026855 
	C213.639877,956.517700 213.649521,973.008606 213.649994,990.499512 
M951.506775,797.981140 
	C949.231262,795.782593 946.744385,793.760437 944.728149,791.345459 
	C941.460754,787.432129 938.607178,787.516785 934.617188,790.670898 
	C921.787598,800.812622 907.206726,805.458069 890.792664,802.955566 
	C867.242859,799.365051 848.339233,779.271484 845.057129,754.544800 
	C841.775574,729.822815 855.788513,704.342407 878.140198,695.125122 
	C899.082764,686.488831 918.204163,690.794128 935.537292,704.491455 
	C938.854431,707.112793 941.055908,707.500977 943.804688,704.063599 
	C945.875732,701.473633 948.420044,699.266968 950.687134,696.827820 
	C954.426941,692.804199 954.306580,690.999268 950.156311,687.446533 
	C932.302185,672.162598 911.452637,665.929443 888.458130,669.381165 
	C856.169739,674.228088 833.712708,692.455750 823.916626,723.711487 
	C814.101624,755.027405 821.480896,783.109192 845.572205,805.691162 
	C874.823120,833.109497 921.061829,833.306396 950.194275,806.945190 
	C952.941101,804.459595 954.801453,802.028015 951.506775,797.981140 
M1218.349365,554.083374 
	C1218.349854,533.595032 1218.250732,513.105652 1218.468994,492.619629 
	C1218.498535,489.863708 1219.549561,486.731110 1221.111084,484.444611 
	C1228.800781,473.184296 1236.827637,462.154480 1244.724487,451.035492 
	C1252.815063,439.643738 1260.969238,428.295441 1268.883179,416.782104 
	C1269.918945,415.275146 1270.443115,412.592834 1269.802490,411.029327 
	C1269.327026,409.869019 1266.610596,409.207794 1264.838867,409.083099 
	C1260.860840,408.803101 1256.821899,409.288483 1252.859497,408.913513 
	C1248.830566,408.532288 1246.450439,410.166016 1244.229004,413.354126 
	C1232.913696,429.593628 1221.415527,445.705719 1209.967773,461.852844 
	C1209.044556,463.154816 1208.019409,464.384399 1206.860352,465.881958 
	C1205.958130,464.676788 1205.357178,463.910583 1204.794434,463.117218 
	C1192.864868,446.299561 1180.980103,429.449738 1168.947021,412.706421 
	C1167.813843,411.129730 1165.828735,409.311005 1164.109253,409.167999 
	C1158.650146,408.713928 1153.125000,408.866425 1147.634155,409.047333 
	C1143.934204,409.169220 1142.424805,411.956726 1144.081299,415.284851 
	C1144.741455,416.611145 1145.730835,417.775604 1146.587036,419.002106 
	C1161.818726,440.822815 1177.119751,462.595795 1192.190918,484.526764 
	C1193.835327,486.919556 1194.936768,490.212036 1194.968994,493.101929 
	C1195.201782,513.920837 1195.165649,534.743958 1195.038086,555.564697 
	C1195.009521,560.221008 1196.638550,562.397034 1201.473755,562.050171 
	C1204.788086,561.812378 1208.133301,562.015381 1211.464722,562.002319 
	C1217.451538,561.978821 1218.060059,561.352234 1218.349365,554.083374 
M1029.670410,934.812744 
	C1027.555176,934.206604 1025.442017,933.081970 1023.324219,933.072937 
	C995.682007,932.954712 968.039062,932.991150 940.396301,932.995850 
	C926.950073,932.998169 927.969299,931.626465 927.991943,945.255493 
	C928.006104,953.750610 928.152588,953.907166 936.675964,953.907227 
	C946.940308,953.907288 957.204712,953.907227 967.650085,953.907227 
	C967.650085,956.510864 967.650146,958.504089 967.650085,960.497253 
	C967.648987,999.463562 967.647766,1038.429932 967.646912,1077.396240 
	C967.646912,1078.561890 967.655029,1079.727539 967.648804,1080.893188 
	C967.630249,1084.327148 969.087952,1086.179321 972.769226,1086.032959 
	C976.094421,1085.900757 979.429077,1086.006104 982.759521,1086.005249 
	C990.410583,1086.003296 990.725586,1085.700928 990.726013,1078.209839 
	C990.728210,1038.577393 990.726929,998.945068 990.726929,959.312683 
	C990.726929,957.572510 990.726990,955.832275 990.726990,953.908081 
	C1002.400269,953.908081 1013.375916,953.828308 1024.349365,953.948608 
	C1028.550537,953.994568 1030.568237,952.331360 1030.367920,948.043640 
	C1030.174438,943.899292 1030.119263,939.748474 1029.670410,934.812744 
M1221.737793,759.500122 
	C1221.737793,744.846375 1221.737793,730.192627 1221.737793,715.538879 
	C1221.737793,703.049866 1221.759521,690.560852 1221.728394,678.071899 
	C1221.713379,672.065735 1220.653198,671.013000 1214.868286,670.989929 
	C1211.537842,670.976624 1208.207397,670.974487 1204.877075,670.990295 
	C1199.260498,671.017090 1198.276123,671.950439 1198.273682,677.701965 
	C1198.253296,724.160950 1198.254761,770.619934 1198.271362,817.078918 
	C1198.273438,823.066345 1199.250122,824.006775 1205.179443,824.009094 
	C1227.160034,824.017761 1249.140747,824.027405 1271.121338,824.007263 
	C1285.873901,823.993774 1284.979492,825.890259 1284.904175,809.935730 
	C1284.878784,804.579468 1283.515015,803.307129 1277.982300,803.270630 
	C1272.320923,803.233337 1266.658936,803.263184 1260.997314,803.263245 
	C1248.056519,803.263367 1235.115723,803.263245 1221.737793,803.263245 
	C1221.737793,788.714050 1221.737793,774.607117 1221.737793,759.500122 
M268.995148,473.500000 
	C268.725342,489.963959 268.899414,506.451813 268.014404,522.882629 
	C267.506958,532.303162 262.430756,539.656921 253.010452,542.703979 
	C243.836700,545.671143 236.390762,541.930359 230.198181,535.304810 
	C227.920502,532.867859 225.865387,531.148560 222.567719,533.440735 
	C216.193787,537.871094 211.857727,544.896179 213.642975,548.126831 
	C214.196808,549.129028 214.967209,550.078491 215.831818,550.829529 
	C218.586975,553.222900 221.196075,555.902649 224.284424,557.773926 
	C238.879562,566.617432 254.096619,566.579773 268.982666,559.064636 
	C284.668823,551.145508 291.432526,536.857788 291.717743,520.162415 
	C292.320770,484.865021 291.887390,449.550171 291.930359,414.242584 
	C291.935028,410.408630 290.227905,408.822357 286.446960,408.963715 
	C282.621796,409.106689 278.770477,409.219360 274.960754,408.937683 
	C270.318451,408.594482 268.879608,410.527832 268.920868,415.042419 
	C269.095917,434.193573 268.995148,453.347260 268.995148,473.500000 
z"/>
<path fill="#FCFCFC" opacity="1.000000" stroke="none" 
	d="
M699.079712,435.809204 
	C710.604065,464.041290 722.005737,491.907806 733.927856,521.046509 
	C738.321411,510.259979 742.228271,500.681274 746.125183,491.098480 
	C756.937378,464.509918 767.836304,437.955811 778.460876,411.292480 
	C780.130005,407.103607 782.785461,406.420837 786.600281,406.614990 
	C790.448730,406.810822 791.061035,409.621643 791.573120,412.414703 
	C797.714783,445.912231 803.800049,479.420105 809.910095,512.923462 
	C812.443359,526.814392 814.975220,540.705688 817.558899,554.587280 
	C818.694275,560.687195 817.670288,561.984924 811.390259,562.004456 
	C807.891724,562.015320 804.388489,561.893433 800.895874,562.037537 
	C797.280823,562.186646 795.468750,560.768982 794.865845,557.046875 
	C791.013855,533.267578 787.005310,509.513702 783.050720,485.751007 
	C781.798645,478.227692 780.554138,470.703094 779.043274,461.594025 
	C777.354065,465.530548 776.184631,468.051971 775.176453,470.636292 
	C763.719482,500.004211 752.260803,529.371521 740.884033,558.770569 
	C739.588196,562.119141 738.213806,564.493835 733.916626,564.475708 
	C729.566589,564.457275 727.943420,562.313110 726.525940,558.671143 
	C714.021973,526.544189 701.361267,494.478333 688.155090,460.889252 
	C686.599121,470.193024 685.241028,478.033356 683.982666,485.889648 
	C680.197693,509.520691 676.413330,533.151978 672.728943,556.798767 
	C672.128784,560.650452 670.292725,562.284546 666.369751,562.054993 
	C662.551086,561.831482 658.708374,562.053162 654.877502,561.994263 
	C650.251709,561.923157 648.962463,560.446838 649.784668,555.869629 
	C652.956482,538.210876 656.182434,520.561646 659.428589,502.916351 
	C664.958740,472.856750 670.530762,442.804840 676.049866,412.743195 
	C676.617737,409.650330 677.175842,406.841156 681.226929,406.612640 
	C685.114380,406.393372 687.723206,407.240448 689.235168,411.470032 
	C692.135437,419.582916 695.679871,427.465485 699.079712,435.809204 
z"/>
<path fill="#FCFCFC" opacity="1.000000" stroke="none" 
	d="
M227.258377,731.186279 
	C230.847305,711.981384 234.438110,693.214172 237.849548,674.414490 
	C238.411804,671.316040 239.166962,668.990295 242.778030,668.643005 
	C246.707794,668.265015 249.283112,669.363586 250.915100,673.411377 
	C263.453094,704.509033 276.180725,735.530334 288.848724,766.575623 
	C290.970917,771.776489 293.089417,776.978943 295.579376,783.087769 
	C299.938812,772.429871 303.965424,762.635193 307.953888,752.825073 
	C318.640045,726.541382 329.407227,700.289612 339.885986,673.923401 
	C341.546997,669.744080 343.865173,668.257996 348.110046,668.616821 
	C352.445953,668.983337 352.728577,672.111572 353.311035,675.302368 
	C360.831635,716.500244 368.391937,757.690857 375.931732,798.885254 
	C377.068176,805.094299 378.150726,811.313171 379.259552,817.527283 
	C380.219025,822.904541 379.318787,823.966736 373.705322,824.002197 
	C370.205566,824.024292 366.681519,823.748169 363.211578,824.070679 
	C358.714600,824.488708 356.899231,822.384766 356.237946,818.251526 
	C353.611725,801.836853 350.849121,785.444092 348.158783,769.039673 
	C345.711914,754.120056 343.293182,739.195801 340.679688,723.154297 
	C335.895294,735.286682 331.459930,746.469116 327.073669,757.670776 
	C318.722443,778.998169 310.323883,800.307861 302.142975,821.700562 
	C300.866028,825.039795 299.141357,826.412292 295.592896,826.436707 
	C291.914337,826.462036 289.895996,825.196167 288.516602,821.644165 
	C276.801819,791.477783 264.913635,761.378845 253.075562,731.260376 
	C252.233963,729.119141 251.377380,726.983826 249.562042,724.783691 
	C248.724152,729.504883 247.816055,734.214844 247.060043,738.949158 
	C242.943665,764.726318 238.866318,790.509705 234.772018,816.290405 
	C233.563034,823.903076 233.434875,824.005798 225.614731,824.006348 
	C222.614807,824.006531 219.614304,824.043213 216.615067,823.997742 
	C211.926788,823.926636 210.478226,822.349182 211.295273,817.900818 
	C215.347717,795.837708 219.468658,773.787109 223.550995,751.729492 
	C224.791183,745.028442 225.985199,738.318848 227.258377,731.186279 
z"/>
<path fill="#FCFCFC" opacity="1.000000" stroke="none" 
	d="
M1143.022827,962.015869 
	C1163.826538,936.142029 1190.637939,925.806458 1222.518066,932.614014 
	C1254.045166,939.346191 1274.184937,959.660828 1282.258057,990.972717 
	C1295.555786,1042.547974 1253.316528,1092.489990 1200.492920,1088.068848 
	C1163.115356,1084.940430 1135.458008,1060.543335 1128.610962,1023.712524 
	C1124.464478,1001.408875 1129.493286,980.791077 1143.022827,962.015869 
M1239.387573,1054.967651 
	C1257.636963,1040.416626 1265.197388,1021.657104 1261.059937,998.598633 
	C1256.241821,971.746277 1230.983887,952.031250 1203.094604,953.004944 
	C1176.941040,953.918030 1152.694580,976.329895 1150.094971,1002.694763 
	C1147.741577,1026.564331 1156.716064,1045.652832 1177.346191,1057.960938 
	C1198.004883,1070.286133 1218.830444,1068.773682 1239.387573,1054.967651 
z"/>
<path fill="#FCFCFC" opacity="1.000000" stroke="none" 
	d="
M741.344849,1087.736328 
	C709.776367,1082.126343 688.218689,1064.865723 677.835815,1034.833862 
	C661.668396,988.070862 693.022034,937.618103 741.837708,931.238770 
	C783.624817,925.777954 823.141296,954.633911 829.777954,995.454956 
	C836.767700,1038.447266 810.680542,1078.033691 769.068359,1086.512451 
	C760.252930,1088.308838 750.893127,1087.433350 741.344849,1087.736328 
M696.004578,1012.262573 
	C698.390503,1049.986694 733.967285,1073.120850 766.921875,1064.127930 
	C792.662659,1057.103394 811.111511,1031.451416 808.478638,1005.700989 
	C805.523376,976.797302 783.197144,954.499390 755.718506,953.007568 
	C723.008911,951.231750 696.005371,977.616272 696.004578,1012.262573 
z"/>
<path fill="#FDFDFD" opacity="1.000000" stroke="none" 
	d="
M730.644897,677.334290 
	C746.795532,687.519348 754.952759,701.841919 753.802063,720.582031 
	C752.531860,741.266602 740.002380,753.986145 722.025696,762.391602 
	C731.381287,779.834229 740.702393,797.227844 750.039307,814.612915 
	C753.824585,821.660889 752.396240,823.054382 744.852905,824.211914 
	C731.714844,826.228027 724.759644,821.190002 719.964172,808.936157 
	C714.533569,795.059021 706.744324,782.116333 700.276245,768.625610 
	C698.649780,765.233154 696.710754,764.148804 693.052734,764.260010 
	C684.112366,764.531860 675.158142,764.348694 665.724670,764.348694 
	C665.724670,766.587158 665.724731,768.380920 665.724670,770.174744 
	C665.724426,785.666992 665.743042,801.159363 665.714478,816.651550 
	C665.703003,822.896179 664.602905,823.984741 658.575867,824.002136 
	C654.911011,824.012695 651.243774,823.921204 647.581970,824.027466 
	C644.183228,824.126160 642.699524,822.457825 642.658691,819.220337 
	C642.646057,818.220947 642.653137,817.221375 642.653137,816.221863 
	C642.653564,770.244812 642.652649,724.267700 642.656250,678.290649 
	C642.656799,671.416321 643.085999,670.997681 650.039307,670.996765 
	C668.696655,670.994202 687.355286,671.121643 706.010864,670.940308 
	C714.742920,670.855530 722.756653,673.006531 730.644897,677.334290 
M665.902466,713.500122 
	C665.902466,723.933899 665.902466,734.367676 665.902466,745.026489 
	C679.712463,745.026489 693.021057,745.436401 706.292603,744.911438 
	C719.646667,744.383362 730.653809,732.237793 730.996094,718.725830 
	C731.317139,706.048279 720.544250,693.699646 707.325256,692.870422 
	C694.883301,692.089905 682.368530,692.459656 669.885620,692.355042 
	C668.624451,692.344482 667.361450,692.552246 665.902039,692.675293 
	C665.902039,699.525330 665.902039,706.012817 665.902466,713.500122 
z"/>
<path fill="#FCFCFC" opacity="1.000000" stroke="none" 
	d="
M547.795715,932.994812 
	C555.440125,933.033875 555.905884,933.493530 555.906433,940.690857 
	C555.909973,986.662659 555.911377,1032.634521 555.907410,1078.606323 
	C555.906799,1085.443237 555.342285,1085.995850 548.525330,1086.004395 
	C545.194031,1086.008667 541.848267,1085.807617 538.534912,1086.051758 
	C533.633301,1086.412964 532.613281,1083.691162 532.626648,1079.584106 
	C532.686279,1061.262207 532.653687,1042.940063 532.654297,1024.617920 
	C532.654358,1022.956787 532.654297,1021.295654 532.654297,1019.270386 
	C506.289764,1019.270386 480.092133,1019.270386 453.349701,1019.270386 
	C453.349701,1024.996704 453.349701,1030.757080 453.349701,1036.517578 
	C453.349670,1050.842163 453.365479,1065.166748 453.341858,1079.491333 
	C453.332123,1085.388184 452.686798,1085.986328 446.681885,1086.003052 
	C442.850922,1086.013672 439.018341,1085.936401 435.189392,1086.024902 
	C431.777649,1086.103638 430.351837,1084.323608 430.286896,1081.151123 
	C430.239197,1078.820190 430.273956,1076.487549 430.273956,1074.155640 
	C430.273743,1029.682861 430.272888,985.210144 430.274811,940.737427 
	C430.275116,933.425232 430.691406,933.002869 437.824097,932.995300 
	C440.988831,932.991943 444.168671,933.191162 447.314728,932.948730 
	C452.003601,932.587402 453.428986,934.799377 453.399353,939.177002 
	C453.279846,956.831970 453.350128,974.488342 453.350342,992.144165 
	C453.350372,993.959229 453.350372,995.774292 453.350372,997.783142 
	C479.881775,997.783142 506.146332,997.783142 532.648621,997.783142 
	C532.648621,979.095520 532.648987,960.618591 532.648376,942.141663 
	C532.648132,933.044128 532.696777,932.994934 541.831360,932.994873 
	C543.663635,932.994873 545.495850,932.994812 547.795715,932.994812 
z"/>
<path fill="#FBFBFB" opacity="1.000000" stroke="none" 
	d="
M1096.978760,756.909668 
	C1080.856567,756.909485 1065.230591,756.909485 1049.536621,756.909485 
	C1049.536621,772.512268 1049.536621,787.621948 1049.536621,803.271423 
	C1051.508545,803.271423 1053.297607,803.271423 1055.086670,803.271423 
	C1075.244385,803.271301 1095.402100,803.259460 1115.559814,803.278564 
	C1121.242065,803.283936 1122.339844,804.331970 1122.338989,809.915405 
	C1122.336548,825.927551 1123.773560,823.971375 1108.696899,823.995667 
	C1083.541382,824.036194 1058.385864,824.011536 1033.230347,824.003113 
	C1027.257812,824.001099 1026.282471,823.067139 1026.280273,817.084778 
	C1026.263916,770.605408 1026.262207,724.126099 1026.283569,677.646729 
	C1026.286255,671.958740 1027.299438,671.000366 1032.973022,670.998169 
	C1060.627441,670.987610 1088.282227,671.078918 1115.935669,670.911865 
	C1120.724854,670.882935 1122.469482,672.544495 1122.411255,677.282776 
	C1122.213257,693.415527 1123.845947,691.915039 1108.041504,691.909790 
	C1090.216064,691.903931 1072.390747,691.908691 1054.565308,691.908752 
	C1052.931519,691.908752 1051.297607,691.908752 1049.546997,691.908752 
	C1049.546997,706.791443 1049.546997,721.213379 1049.546997,735.993347 
	C1067.711914,735.993347 1085.682251,735.992371 1103.652588,735.993774 
	C1111.333008,735.994385 1111.670776,736.399109 1111.740601,744.265503 
	C1111.863159,758.075439 1112.224487,756.967468 1098.974609,756.910400 
	C1098.474854,756.908264 1097.974976,756.909973 1096.978760,756.909668 
z"/>
<path fill="#FDFDFD" opacity="1.000000" stroke="none" 
	d="
M943.092896,497.999939 
	C943.092529,470.512695 943.089722,443.525452 943.094604,416.538208 
	C943.095886,409.438995 943.558167,408.996124 950.821350,408.995850 
	C977.975159,408.994781 1005.129028,408.991516 1032.282837,408.998352 
	C1038.645996,408.999969 1038.987549,409.365173 1039.003662,415.881683 
	C1039.009033,418.047333 1039.007324,420.212982 1039.004028,422.378632 
	C1038.993408,429.210602 1038.339722,429.899902 1031.658936,429.903442 
	C1011.834961,429.913910 992.011047,429.906982 972.187073,429.906891 
	C970.355835,429.906891 968.524597,429.906891 966.349121,429.906891 
	C966.349121,444.518677 966.349121,459.053009 966.349121,473.995422 
	C984.001709,473.995422 1001.612976,473.995361 1019.224243,473.995422 
	C1028.346558,473.995422 1028.346436,473.995514 1028.348145,483.119110 
	C1028.350342,494.907257 1028.350464,494.906616 1016.765015,494.906219 
	C999.984802,494.905609 983.204651,494.906067 966.246948,494.906067 
	C966.246948,510.520447 966.246948,525.753296 966.246948,541.274719 
	C987.946289,541.274719 1009.404480,541.273682 1030.862671,541.275269 
	C1038.647949,541.275879 1039.004639,541.634155 1039.003906,549.443665 
	C1039.002563,563.312805 1040.277100,562.000916 1026.376587,562.003296 
	C1001.055176,562.007629 975.733826,562.008240 950.412415,562.002136 
	C943.728210,562.000488 943.095032,561.346191 943.093079,554.473511 
	C943.087891,535.815674 943.092651,517.157837 943.092896,497.999939 
z"/>
<path fill="#FCFCFC" opacity="1.000000" stroke="none" 
	d="
M463.966736,418.873169 
	C465.116333,416.250641 466.172302,413.999176 467.153046,411.715393 
	C468.392883,408.828369 469.983429,405.755188 473.575195,406.836456 
	C475.881073,407.530609 478.570068,409.530731 479.550964,411.654907 
	C491.513306,437.560181 503.185730,463.599304 514.943298,489.599243 
	C524.514771,510.765106 534.114990,531.918030 543.670105,553.091309 
	C546.897278,560.242371 545.743347,562.114258 537.989014,561.982300 
	C520.520752,561.685120 525.203613,564.860657 517.452026,548.622375 
	C514.950745,543.382690 512.415527,538.137268 510.345398,532.722534 
	C509.213196,529.761047 507.728088,528.810913 504.583099,528.832642 
	C483.591492,528.977234 462.597992,528.967346 441.606140,528.840759 
	C438.690796,528.823120 437.195709,529.632446 436.041199,532.403076 
	C432.594910,540.673218 428.678680,548.747070 425.206238,557.006958 
	C423.718628,560.545532 421.627838,562.321350 417.675415,562.054993 
	C414.192444,561.820312 410.680969,562.031250 407.182465,562.000366 
	C401.138306,561.946960 399.766815,559.843933 402.314148,554.221008 
	C411.900330,533.060425 421.538849,511.923615 431.176300,490.786316 
	C442.053711,466.929413 452.951019,443.081665 463.966736,418.873169 
M454.637207,509.669556 
	C469.540344,509.669556 484.443481,509.669556 500.078247,509.669556 
	C491.077026,489.591003 482.346008,470.115112 473.121857,449.539246 
	C463.937653,470.229095 455.316040,489.651520 446.429596,509.670532 
	C449.432892,509.670532 451.558533,509.670532 454.637207,509.669556 
z"/>
<path fill="#FCFCFC" opacity="1.000000" stroke="none" 
	d="
M504.600952,668.779175 
	C508.656281,668.202759 510.655853,669.864441 512.192383,673.274231 
	C533.663269,720.920288 555.268066,768.506042 576.816528,816.117188 
	C579.432373,821.896912 578.009949,824.109558 571.597961,823.979980 
	C552.893738,823.602295 558.004150,827.198120 549.944641,810.120728 
	C547.395325,804.718933 545.160645,799.160828 542.412903,793.865845 
	C541.707336,792.506287 539.606323,791.045227 538.134521,791.032837 
	C516.643982,790.851685 495.151184,790.963501 473.659851,790.838562 
	C471.030396,790.823242 469.936310,791.793640 468.974274,794.048096 
	C465.393341,802.439575 461.523499,810.707886 457.944458,819.100159 
	C456.449951,822.604370 454.272339,824.350281 450.323517,824.059448 
	C446.843689,823.803101 443.329865,824.028076 439.831390,824.000732 
	C434.040436,823.955505 432.627136,821.936951 434.988495,816.625854 
	C440.244324,804.804443 445.628418,793.039856 450.988617,781.265015 
	C467.284393,745.467712 483.567230,709.664429 499.969879,673.916138 
	C500.858154,671.980286 502.793488,670.524841 504.600952,668.779175 
M479.899506,769.932312 
	C481.251343,770.510803 482.599152,771.581055 483.955688,771.592163 
	C498.757324,771.713867 513.560303,771.677734 528.362915,771.657104 
	C529.590210,771.655396 530.817261,771.454529 532.592651,771.297791 
	C523.658630,751.368164 514.959656,731.962891 505.833679,711.605042 
	C496.950897,731.485352 488.542419,750.304199 479.899506,769.932312 
z"/>
<path fill="#FCFCFC" opacity="1.000000" stroke="none" 
	d="
M213.649673,989.999512 
	C213.649521,973.008606 213.639877,956.517700 213.654755,940.026855 
	C213.660538,933.610413 214.305573,932.998169 220.867767,932.996094 
	C236.692337,932.991028 252.516968,932.969727 268.341492,933.000183 
	C293.700684,933.048950 314.835297,952.798462 316.725464,978.172119 
	C318.591797,1003.225525 300.184326,1026.382812 275.447815,1030.012207 
	C272.499756,1030.444824 269.497528,1030.669678 266.517883,1030.695312 
	C256.736664,1030.779175 246.954224,1030.726807 236.726791,1030.726807 
	C236.726791,1046.267090 236.727081,1061.376709 236.726318,1076.486206 
	C236.726242,1077.985352 236.805634,1079.490601 236.698593,1080.982300 
	C236.460724,1084.297852 234.908020,1086.164185 231.287369,1086.037109 
	C227.294510,1085.897095 223.283905,1085.837524 219.297638,1086.051758 
	C215.158539,1086.274292 213.589371,1084.418091 213.620667,1080.449463 
	C213.702042,1070.122437 213.648438,1059.794556 213.648666,1049.466919 
	C213.649109,1029.811157 213.649551,1010.155334 213.649673,989.999512 
M236.725784,957.591064 
	C236.725784,974.646851 236.725784,991.702637 236.725784,1008.977112 
	C247.315079,1008.977112 257.300934,1009.380249 267.241730,1008.882690 
	C282.162109,1008.135986 293.461121,996.354248 293.990143,981.759033 
	C294.462738,968.721619 284.348846,957.159729 269.563507,955.571228 
	C259.194641,954.457214 248.632217,955.124207 238.155914,955.095703 
	C237.683853,955.094421 237.209122,956.081177 236.725784,957.591064 
z"/>
<path fill="#FCFCFC" opacity="1.000000" stroke="none" 
	d="
M951.754028,798.227905 
	C954.801453,802.028015 952.941101,804.459595 950.194275,806.945190 
	C921.061829,833.306396 874.823120,833.109497 845.572205,805.691162 
	C821.480896,783.109192 814.101624,755.027405 823.916626,723.711487 
	C833.712708,692.455750 856.169739,674.228088 888.458130,669.381165 
	C911.452637,665.929443 932.302185,672.162598 950.156311,687.446533 
	C954.306580,690.999268 954.426941,692.804199 950.687134,696.827820 
	C948.420044,699.266968 945.875732,701.473633 943.804688,704.063599 
	C941.055908,707.500977 938.854431,707.112793 935.537292,704.491455 
	C918.204163,690.794128 899.082764,686.488831 878.140198,695.125122 
	C855.788513,704.342407 841.775574,729.822815 845.057129,754.544800 
	C848.339233,779.271484 867.242859,799.365051 890.792664,802.955566 
	C907.206726,805.458069 921.787598,800.812622 934.617188,790.670898 
	C938.607178,787.516785 941.460754,787.432129 944.728149,791.345459 
	C946.744385,793.760437 949.231262,795.782593 951.754028,798.227905 
z"/>
<path fill="#FCFCFC" opacity="1.000000" stroke="none" 
	d="
M1218.349854,554.533020 
	C1218.060059,561.352234 1217.451538,561.978821 1211.464722,562.002319 
	C1208.133301,562.015381 1204.788086,561.812378 1201.473755,562.050171 
	C1196.638550,562.397034 1195.009521,560.221008 1195.038086,555.564697 
	C1195.165649,534.743958 1195.201782,513.920837 1194.968994,493.101929 
	C1194.936768,490.212036 1193.835327,486.919556 1192.190918,484.526764 
	C1177.119751,462.595795 1161.818726,440.822815 1146.587036,419.002106 
	C1145.730835,417.775604 1144.741455,416.611145 1144.081299,415.284851 
	C1142.424805,411.956726 1143.934204,409.169220 1147.634155,409.047333 
	C1153.125000,408.866425 1158.650146,408.713928 1164.109253,409.167999 
	C1165.828735,409.311005 1167.813843,411.129730 1168.947021,412.706421 
	C1180.980103,429.449738 1192.864868,446.299561 1204.794434,463.117218 
	C1205.357178,463.910583 1205.958130,464.676788 1206.860352,465.881958 
	C1208.019409,464.384399 1209.044556,463.154816 1209.967773,461.852844 
	C1221.415527,445.705719 1232.913696,429.593628 1244.229004,413.354126 
	C1246.450439,410.166016 1248.830566,408.532288 1252.859497,408.913513 
	C1256.821899,409.288483 1260.860840,408.803101 1264.838867,409.083099 
	C1266.610596,409.207794 1269.327026,409.869019 1269.802490,411.029327 
	C1270.443115,412.592834 1269.918945,415.275146 1268.883179,416.782104 
	C1260.969238,428.295441 1252.815063,439.643738 1244.724487,451.035492 
	C1236.827637,462.154480 1228.800781,473.184296 1221.111084,484.444611 
	C1219.549561,486.731110 1218.498535,489.863708 1218.468994,492.619629 
	C1218.250732,513.105652 1218.349854,533.595032 1218.349854,554.533020 
z"/>
<path fill="#FCFCFC" opacity="1.000000" stroke="none" 
	d="
M1029.836914,935.206604 
	C1030.119263,939.748474 1030.174438,943.899292 1030.367920,948.043640 
	C1030.568237,952.331360 1028.550537,953.994568 1024.349365,953.948608 
	C1013.375916,953.828308 1002.400269,953.908081 990.726990,953.908081 
	C990.726990,955.832275 990.726929,957.572510 990.726929,959.312683 
	C990.726929,998.945068 990.728210,1038.577393 990.726013,1078.209839 
	C990.725586,1085.700928 990.410583,1086.003296 982.759521,1086.005249 
	C979.429077,1086.006104 976.094421,1085.900757 972.769226,1086.032959 
	C969.087952,1086.179321 967.630249,1084.327148 967.648804,1080.893188 
	C967.655029,1079.727539 967.646912,1078.561890 967.646912,1077.396240 
	C967.647766,1038.429932 967.648987,999.463562 967.650085,960.497253 
	C967.650146,958.504089 967.650085,956.510864 967.650085,953.907227 
	C957.204712,953.907227 946.940308,953.907288 936.675964,953.907227 
	C928.152588,953.907166 928.006104,953.750610 927.991943,945.255493 
	C927.969299,931.626465 926.950073,932.998169 940.396301,932.995850 
	C968.039062,932.991150 995.682007,932.954712 1023.324219,933.072937 
	C1025.442017,933.081970 1027.555176,934.206604 1029.836914,935.206604 
z"/>
<path fill="#F8F8F8" opacity="1.000000" stroke="none" 
	d="
M1221.737793,760.000183 
	C1221.737793,774.607117 1221.737793,788.714050 1221.737793,803.263245 
	C1235.115723,803.263245 1248.056519,803.263367 1260.997314,803.263245 
	C1266.658936,803.263184 1272.320923,803.233337 1277.982300,803.270630 
	C1283.515015,803.307129 1284.878784,804.579468 1284.904175,809.935730 
	C1284.979492,825.890259 1285.873901,823.993774 1271.121338,824.007263 
	C1249.140747,824.027405 1227.160034,824.017761 1205.179443,824.009094 
	C1199.250122,824.006775 1198.273438,823.066345 1198.271362,817.078918 
	C1198.254761,770.619934 1198.253296,724.160950 1198.273682,677.701965 
	C1198.276123,671.950439 1199.260498,671.017090 1204.877075,670.990295 
	C1208.207397,670.974487 1211.537842,670.976624 1214.868286,670.989929 
	C1220.653198,671.013000 1221.713379,672.065735 1221.728394,678.071899 
	C1221.759521,690.560852 1221.737793,703.049866 1221.737793,715.538879 
	C1221.737793,730.192627 1221.737793,744.846375 1221.737793,760.000183 
z"/>
<path fill="#FCFCFC" opacity="1.000000" stroke="none" 
	d="
M268.995148,473.000000 
	C268.995148,453.347260 269.095917,434.193573 268.920868,415.042419 
	C268.879608,410.527832 270.318451,408.594482 274.960754,408.937683 
	C278.770477,409.219360 282.621796,409.106689 286.446960,408.963715 
	C290.227905,408.822357 291.935028,410.408630 291.930359,414.242584 
	C291.887390,449.550171 292.320770,484.865021 291.717743,520.162415 
	C291.432526,536.857788 284.668823,551.145508 268.982666,559.064636 
	C254.096619,566.579773 238.879562,566.617432 224.284424,557.773926 
	C221.196075,555.902649 218.586975,553.222900 215.831818,550.829529 
	C214.967209,550.078491 214.196808,549.129028 213.642975,548.126831 
	C211.857727,544.896179 216.193787,537.871094 222.567719,533.440735 
	C225.865387,531.148560 227.920502,532.867859 230.198181,535.304810 
	C236.390762,541.930359 243.836700,545.671143 253.010452,542.703979 
	C262.430756,539.656921 267.506958,532.303162 268.014404,522.882629 
	C268.899414,506.451813 268.725342,489.963959 268.995148,473.000000 
z"/>
<path fill="#010101" opacity="1.000000" stroke="none" 
	d="
M1239.078125,1055.148804 
	C1218.830444,1068.773682 1198.004883,1070.286133 1177.346191,1057.960938 
	C1156.716064,1045.652832 1147.741577,1026.564331 1150.094971,1002.694763 
	C1152.694580,976.329895 1176.941040,953.918030 1203.094604,953.004944 
	C1230.983887,952.031250 1256.241821,971.746277 1261.059937,998.598633 
	C1265.197388,1021.657104 1257.636963,1040.416626 1239.078125,1055.148804 
z"/>
<path fill="#010101" opacity="1.000000" stroke="none" 
	d="
M696.004395,1011.807861 
	C696.005371,977.616272 723.008911,951.231750 755.718506,953.007568 
	C783.197144,954.499390 805.523376,976.797302 808.478638,1005.700989 
	C811.111511,1031.451416 792.662659,1057.103394 766.921875,1064.127930 
	C733.967285,1073.120850 698.390503,1049.986694 696.004395,1011.807861 
z"/>
<path fill="#020202" opacity="1.000000" stroke="none" 
	d="
M665.902222,713.000183 
	C665.902039,706.012817 665.902039,699.525330 665.902039,692.675293 
	C667.361450,692.552246 668.624451,692.344482 669.885620,692.355042 
	C682.368530,692.459656 694.883301,692.089905 707.325256,692.870422 
	C720.544250,693.699646 731.317139,706.048279 730.996094,718.725830 
	C730.653809,732.237793 719.646667,744.383362 706.292603,744.911438 
	C693.021057,745.436401 679.712463,745.026489 665.902466,745.026489 
	C665.902466,734.367676 665.902466,723.933899 665.902222,713.000183 
z"/>
<path fill="#050505" opacity="1.000000" stroke="none" 
	d="
M454.160675,509.670044 
	C451.558533,509.670532 449.432892,509.670532 446.429596,509.670532 
	C455.316040,489.651520 463.937653,470.229095 473.121857,449.539246 
	C482.346008,470.115112 491.077026,489.591003 500.078247,509.669556 
	C484.443481,509.669556 469.540344,509.669556 454.160675,509.670044 
z"/>
<path fill="#050505" opacity="1.000000" stroke="none" 
	d="
M480.016724,769.527710 
	C488.542419,750.304199 496.950897,731.485352 505.833679,711.605042 
	C514.959656,731.962891 523.658630,751.368164 532.592651,771.297791 
	C530.817261,771.454529 529.590210,771.655396 528.362915,771.657104 
	C513.560303,771.677734 498.757324,771.713867 483.955688,771.592163 
	C482.599152,771.581055 481.251343,770.510803 480.016724,769.527710 
z"/>
<path fill="#010101" opacity="1.000000" stroke="none" 
	d="
M236.730713,957.099365 
	C237.209122,956.081177 237.683853,955.094421 238.155914,955.095703 
	C248.632217,955.124207 259.194641,954.457214 269.563507,955.571228 
	C284.348846,957.159729 294.462738,968.721619 293.990143,981.759033 
	C293.461121,996.354248 282.162109,1008.135986 267.241730,1008.882690 
	C257.300934,1009.380249 247.315079,1008.977112 236.725784,1008.977112 
	C236.725784,991.702637 236.725784,974.646851 236.730713,957.099365 
z"/>
</svg>