<?xml version="1.0" encoding="UTF-8"?>
<!DOCTYPE svg PUBLIC "-//W3C//DTD SVG 1.1//EN" "http://www.w3.org/Graphics/SVG/1.1/DTD/svg11.dtd">
<svg xmlns="http://www.w3.org/2000/svg" version="1.1" width="2000px" height="2000px" style="shape-rendering:geometricPrecision; text-rendering:geometricPrecision; image-rendering:optimizeQuality; fill-rule:evenodd; clip-rule:evenodd" xmlns:xlink="http://www.w3.org/1999/xlink">
<g><path style="opacity:0.004" fill="#fefefe" d="M 515.5,55.5 C 516.946,54.3871 518.613,54.2204 520.5,55C 518.866,55.4935 517.199,55.6602 515.5,55.5 Z"/></g>
<g><path style="opacity:0.024" fill="#dcdcdc" d="M 529.5,54.5 C 529.5,55.1667 529.5,55.8333 529.5,56.5C 525.5,55.8333 525.5,55.1667 529.5,54.5 Z"/></g>
<g><path style="opacity:0.996" fill="#fefefe" d="M 532.5,54.5 C 749.833,54.5 967.167,54.5 1184.5,54.5C 1184.5,56.5 1184.5,58.5 1184.5,60.5C 1187.39,60.8064 1190.05,60.4731 1192.5,59.5C 1193.21,58.596 1194.21,58.2627 1195.5,58.5C 1195.82,60.0481 1196.82,60.7148 1198.5,60.5C 1198.5,59.5 1198.5,58.5 1198.5,57.5C 1201.85,57.335 1205.18,57.5017 1208.5,58C 1210.49,58.5743 1211.99,59.741 1213,61.5C 1214.02,60.3128 1215.19,59.3128 1216.5,58.5C 1219.44,59.2435 1222.44,59.7435 1225.5,60C 1226.9,62.5618 1228.57,62.8951 1230.5,61C 1244.59,62.0838 1258.42,64.5838 1272,68.5C 1275.26,66.8151 1277.93,67.4817 1280,70.5C 1280.8,69.1955 1281.97,68.5288 1283.5,68.5C 1353.64,83.5524 1419.97,108.386 1482.5,143C 1484,144.5 1485.5,146 1487,147.5C 1487.41,147.043 1487.91,146.709 1488.5,146.5C 1584.05,201.961 1663.05,275.961 1725.5,368.5C 1726.45,370.045 1726.79,371.712 1726.5,373.5C 1727.83,373.5 1729.17,373.5 1730.5,373.5C 1731.71,377.564 1733.21,381.564 1735,385.5C 1737.81,387.462 1739.64,390.129 1740.5,393.5C 1741.32,394.386 1742.32,394.719 1743.5,394.5C 1743.2,396.604 1743.53,398.604 1744.5,400.5C 1749.3,407.011 1753.8,414.345 1758,422.5C 1761.73,433.956 1767.06,444.623 1774,454.5C 1777.49,461.522 1780.33,468.856 1782.5,476.5C 1783.17,477.167 1783.83,477.833 1784.5,478.5C 1793.01,500.879 1801.01,523.379 1808.5,546C 1807.74,548.389 1808.41,550.555 1810.5,552.5C 1810.29,553.086 1809.96,553.586 1809.5,554C 1811.08,559.5 1812.75,565 1814.5,570.5C 1813.05,572.608 1813.55,574.275 1816,575.5C 1816.65,577.235 1816.48,578.902 1815.5,580.5C 1818.86,582.685 1819.19,585.185 1816.5,588C 1819.62,589.72 1820.28,592.22 1818.5,595.5C 1819.32,596.386 1820.32,596.719 1821.5,596.5C 1821.84,599.144 1821.17,601.477 1819.5,603.5C 1822.23,606.086 1822.9,609.086 1821.5,612.5C 1824.55,626.774 1827.22,641.107 1829.5,655.5C 1829.33,657.715 1828.66,659.715 1827.5,661.5C 1828.95,663.667 1830.11,666 1831,668.5C 1831.33,667.833 1831.67,667.167 1832,666.5C 1832.67,670.833 1832.67,675.167 1832,679.5C 1831.33,678.167 1830.67,678.167 1830,679.5C 1829.51,681.134 1829.34,682.801 1829.5,684.5C 1830.5,684.5 1831.5,684.5 1832.5,684.5C 1832.5,712.167 1832.5,739.833 1832.5,767.5C 1831.5,767.5 1830.5,767.5 1829.5,767.5C 1829.5,769.833 1829.5,772.167 1829.5,774.5C 1830.5,774.5 1831.5,774.5 1832.5,774.5C 1832.67,778.514 1832.5,782.514 1832,786.5C 1831.69,785.692 1831.19,785.025 1830.5,784.5C 1829.75,787.263 1828.75,789.93 1827.5,792.5C 1828.9,793.852 1829.56,795.519 1829.5,797.5C 1827.95,808.216 1826.45,818.883 1825,829.5C 1824.67,829.167 1824.33,828.833 1824,828.5C 1823.87,832.662 1823.03,836.662 1821.5,840.5C 1822.99,843.861 1822.32,846.695 1819.5,849C 1820.57,849.739 1821.24,850.739 1821.5,852C 1820.26,856.412 1818.92,860.745 1817.5,865C 1818.72,866.563 1818.72,868.063 1817.5,869.5C 1815.64,869.461 1814.31,870.294 1813.5,872C 1814.24,873.039 1815.24,873.539 1816.5,873.5C 1816.67,875.993 1815.67,877.826 1813.5,879C 1814.34,880.011 1814.67,881.178 1814.5,882.5C 1809.43,883.131 1808.77,884.797 1812.5,887.5C 1812.84,889.483 1812.18,890.817 1810.5,891.5C 1809.92,890.227 1809.26,890.227 1808.5,891.5C 1808.93,892.293 1809.26,893.127 1809.5,894C 1806.92,895.49 1806.09,897.657 1807,900.5C 1807.67,901.252 1808.5,901.586 1809.5,901.5C 1809.5,902.167 1809.17,902.5 1808.5,902.5C 1805.08,902.238 1804.08,903.572 1805.5,906.5C 1803.03,908.242 1803.03,910.075 1805.5,912C 1802.73,912.691 1802.07,914.191 1803.5,916.5C 1802.74,917.719 1801.74,918.719 1800.5,919.5C 1800.96,920.298 1801.62,920.631 1802.5,920.5C 1802.5,921.5 1802.5,922.5 1802.5,923.5C 1801.5,923.5 1800.5,923.5 1799.5,923.5C 1799.67,925.912 1799,928.079 1797.5,930C 1797.64,931.301 1798.31,932.134 1799.5,932.5C 1799.57,933.959 1799.23,935.292 1798.5,936.5C 1797.85,935.909 1797.18,935.243 1796.5,934.5C 1795.87,936.567 1794.87,938.4 1793.5,940C 1794.37,941.045 1795.37,941.878 1796.5,942.5C 1794.71,947.931 1792.38,952.931 1789.5,957.5C 1788.53,956.249 1787.86,956.582 1787.5,958.5C 1787.75,959.713 1788.41,960.38 1789.5,960.5C 1789.66,961.873 1789.49,963.207 1789,964.5C 1788.62,963.944 1788.12,963.611 1787.5,963.5C 1785.09,963.694 1784.09,965.027 1784.5,967.5C 1785.5,967.5 1786.5,967.5 1787.5,967.5C 1786.64,969.288 1785.64,970.955 1784.5,972.5C 1783.79,971.596 1782.79,971.263 1781.5,971.5C 1781.08,973.781 1781.74,975.448 1783.5,976.5C 1782.16,978.837 1780.83,981.171 1779.5,983.5C 1775.54,984.845 1774.54,987.512 1776.5,991.5C 1775.92,993.411 1774.92,995.078 1773.5,996.5C 1772.6,995.402 1771.77,995.402 1771,996.5C 1769,1000.99 1767.5,1005.66 1766.5,1010.5C 1762.95,1015.1 1759.95,1020.1 1757.5,1025.5C 1753.93,1029.9 1751.93,1034.9 1751.5,1040.5C 1749.15,1042.1 1746.98,1044.1 1745,1046.5C 1744.24,1048.07 1744.4,1049.4 1745.5,1050.5C 1745.74,1051.79 1745.4,1052.79 1744.5,1053.5C 1742.61,1053.3 1741.11,1053.96 1740,1055.5C 1739.35,1058.45 1738.18,1061.45 1736.5,1064.5C 1736.77,1066.1 1736.43,1067.43 1735.5,1068.5C 1734.69,1067.35 1733.69,1067.35 1732.5,1068.5C 1731.43,1071.2 1730.43,1073.87 1729.5,1076.5C 1729.07,1079.15 1727.74,1081.15 1725.5,1082.5C 1725.18,1080.95 1724.18,1080.29 1722.5,1080.5C 1722.12,1082.7 1722.79,1084.36 1724.5,1085.5C 1724.16,1086.34 1723.49,1086.67 1722.5,1086.5C 1722.1,1085.47 1721.44,1085.31 1720.5,1086C 1719.24,1087.74 1718.24,1089.57 1717.5,1091.5C 1716.55,1092.92 1716.22,1094.59 1716.5,1096.5C 1715.53,1098.8 1714.19,1100.8 1712.5,1102.5C 1711.85,1102.2 1711.18,1101.86 1710.5,1101.5C 1709.23,1103.3 1708.57,1105.3 1708.5,1107.5C 1706.97,1110.56 1704.97,1113.23 1702.5,1115.5C 1702.72,1114.32 1702.39,1113.32 1701.5,1112.5C 1700.22,1113.96 1700.22,1115.29 1701.5,1116.5C 1701.73,1118.93 1700.73,1120.6 1698.5,1121.5C 1697.81,1120.23 1696.98,1120.23 1696,1121.5C 1695.51,1122.79 1695.34,1124.13 1695.5,1125.5C 1695.5,1126.17 1695.17,1126.5 1694.5,1126.5C 1693.29,1125.77 1691.96,1125.43 1690.5,1125.5C 1690.52,1127.56 1690.85,1129.56 1691.5,1131.5C 1690.78,1132.55 1689.78,1133.22 1688.5,1133.5C 1685.23,1133.68 1683.56,1135.51 1683.5,1139C 1683.57,1139.76 1683.9,1140.26 1684.5,1140.5C 1684.16,1141.34 1683.49,1141.67 1682.5,1141.5C 1680.52,1141.16 1679.18,1141.82 1678.5,1143.5C 1677.55,1144.92 1677.22,1146.59 1677.5,1148.5C 1675.88,1150.64 1673.88,1152.31 1671.5,1153.5C 1670.51,1153.33 1669.84,1153.66 1669.5,1154.5C 1667.86,1155.7 1667.53,1157.04 1668.5,1158.5C 1666.8,1160.52 1665.14,1162.52 1663.5,1164.5C 1662.43,1163.57 1661.1,1163.23 1659.5,1163.5C 1659.63,1165.29 1659.3,1166.96 1658.5,1168.5C 1655.65,1169.83 1653.98,1172.17 1653.5,1175.5C 1642.14,1187.53 1630.47,1199.19 1618.5,1210.5C 1617.85,1210.2 1617.18,1209.86 1616.5,1209.5C 1615.23,1211.18 1613.56,1212.35 1611.5,1213C 1609.39,1214.26 1608.39,1216.1 1608.5,1218.5C 1606.94,1220.97 1604.94,1222.97 1602.5,1224.5C 1602.26,1223.9 1601.76,1223.57 1601,1223.5C 1597.75,1224.34 1595.92,1226.34 1595.5,1229.5C 1594.16,1231.01 1593,1232.68 1592,1234.5C 1591.31,1235.74 1590.81,1235.74 1590.5,1234.5C 1590.63,1233.76 1590.46,1233.09 1590,1232.5C 1587.93,1233.1 1586.76,1234.44 1586.5,1236.5C 1585.58,1239.09 1583.91,1241.09 1581.5,1242.5C 1581.53,1241.5 1581.03,1240.84 1580,1240.5C 1578.41,1241.36 1577.57,1242.69 1577.5,1244.5C 1576.5,1246.17 1575.17,1247.5 1573.5,1248.5C 1573.05,1246.54 1572.05,1246.2 1570.5,1247.5C 1569,1248.84 1568.33,1250.51 1568.5,1252.5C 1568.16,1253.34 1567.49,1253.67 1566.5,1253.5C 1564.67,1252.28 1563.67,1252.95 1563.5,1255.5C 1563.14,1257.19 1562.14,1258.19 1560.5,1258.5C 1560.22,1256.24 1559.22,1255.91 1557.5,1257.5C 1556.05,1258.85 1555.38,1260.52 1555.5,1262.5C 1555.16,1263.34 1554.49,1263.67 1553.5,1263.5C 1553.62,1260.8 1552.62,1260.13 1550.5,1261.5C 1549.22,1262.96 1549.22,1264.29 1550.5,1265.5C 1550.5,1266.83 1549.83,1267.5 1548.5,1267.5C 1548.18,1265.95 1547.18,1265.29 1545.5,1265.5C 1545.5,1266.5 1545.5,1267.5 1545.5,1268.5C 1545.17,1269.5 1544.5,1270.17 1543.5,1270.5C 1543.16,1268.77 1542.16,1268.27 1540.5,1269C 1539.62,1270.36 1539.29,1271.86 1539.5,1273.5C 1539.5,1273.83 1539.5,1274.17 1539.5,1274.5C 1538.17,1274.83 1536.83,1275.17 1535.5,1275.5C 1530.77,1274.39 1528.43,1276.39 1528.5,1281.5C 1528.16,1282.34 1527.49,1282.67 1526.5,1282.5C 1526.72,1281.32 1526.39,1280.32 1525.5,1279.5C 1523.82,1280.78 1521.99,1281.78 1520,1282.5C 1519.26,1283.75 1519.43,1284.75 1520.5,1285.5C 1520.5,1286.5 1520.5,1287.5 1520.5,1288.5C 1516.99,1289.25 1513.66,1290.58 1510.5,1292.5C 1509.95,1290.45 1508.95,1290.11 1507.5,1291.5C 1506.6,1292.21 1506.26,1293.21 1506.5,1294.5C 1505.56,1295.97 1504.23,1296.97 1502.5,1297.5C 1501.82,1295.82 1500.48,1295.16 1498.5,1295.5C 1498.5,1297.17 1498.5,1298.83 1498.5,1300.5C 1496.71,1301.23 1495.04,1302.23 1493.5,1303.5C 1493.18,1301.95 1492.18,1301.29 1490.5,1301.5C 1490.5,1302.5 1490.5,1303.5 1490.5,1304.5C 1490.16,1305.34 1489.49,1305.67 1488.5,1305.5C 1488.63,1304.62 1488.3,1303.96 1487.5,1303.5C 1485.97,1303.99 1484.64,1304.66 1483.5,1305.5C 1482.83,1305.5 1482.5,1305.83 1482.5,1306.5C 1480.71,1307.48 1479.21,1308.82 1478,1310.5C 1477.67,1310.17 1477.33,1309.83 1477,1309.5C 1475.81,1310.56 1475.31,1311.9 1475.5,1313.5C 1474.5,1314.17 1473.5,1314.83 1472.5,1315.5C 1472.5,1314.5 1472.5,1313.5 1472.5,1312.5C 1468.5,1312.21 1465.5,1313.71 1463.5,1317C 1458.68,1318.43 1454.35,1320.6 1450.5,1323.5C 1445.61,1325.54 1440.95,1327.87 1436.5,1330.5C 1435.09,1330.97 1434.43,1331.97 1434.5,1333.5C 1432.36,1335.15 1430.02,1336.48 1427.5,1337.5C 1427.63,1336.76 1427.46,1336.09 1427,1335.5C 1424.35,1335.84 1421.52,1336.51 1418.5,1337.5C 1418.5,1338.83 1418.5,1340.17 1418.5,1341.5C 1415.54,1342.66 1412.54,1343.66 1409.5,1344.5C 1407.69,1341.66 1406.69,1342 1406.5,1345.5C 1406.18,1347.05 1405.18,1347.71 1403.5,1347.5C 1402.82,1345.82 1401.48,1345.16 1399.5,1345.5C 1399.5,1346.5 1399.5,1347.5 1399.5,1348.5C 1398.71,1349.4 1397.71,1350.07 1396.5,1350.5C 1396.21,1349.35 1395.38,1348.68 1394,1348.5C 1392.93,1348.53 1392.1,1348.86 1391.5,1349.5C 1391.5,1350.17 1391.5,1350.83 1391.5,1351.5C 1388.97,1352.96 1386.31,1354.29 1383.5,1355.5C 1382.45,1353.74 1380.78,1353.08 1378.5,1353.5C 1378.5,1354.83 1378.5,1356.17 1378.5,1357.5C 1377.83,1357.5 1377.17,1357.5 1376.5,1357.5C 1376.63,1356.62 1376.3,1355.96 1375.5,1355.5C 1374.61,1356.32 1374.28,1357.32 1374.5,1358.5C 1374.16,1359.34 1373.49,1359.67 1372.5,1359.5C 1371.82,1357.82 1370.48,1357.16 1368.5,1357.5C 1368.5,1358.5 1368.5,1359.5 1368.5,1360.5C 1365.51,1362.42 1362.18,1363.42 1358.5,1363.5C 1357.71,1361.9 1356.38,1361.23 1354.5,1361.5C 1354.5,1362.5 1354.5,1363.5 1354.5,1364.5C 1353.83,1364.83 1353.17,1365.17 1352.5,1365.5C 1352.18,1363.95 1351.18,1363.29 1349.5,1363.5C 1349.5,1364.5 1349.5,1365.5 1349.5,1366.5C 1348.83,1366.5 1348.17,1366.5 1347.5,1366.5C 1346.79,1365.6 1345.79,1365.26 1344.5,1365.5C 1344.5,1366.5 1344.5,1367.5 1344.5,1368.5C 1343.83,1368.5 1343.17,1368.5 1342.5,1368.5C 1342.73,1366.65 1342.06,1365.81 1340.5,1366C 1339.62,1367.36 1339.29,1368.86 1339.5,1370.5C 1338.83,1370.5 1338.17,1370.5 1337.5,1370.5C 1336.82,1368.82 1335.48,1368.16 1333.5,1368.5C 1333.5,1369.83 1333.5,1371.17 1333.5,1372.5C 1332.5,1372.17 1331.83,1371.5 1331.5,1370.5C 1330.79,1369.6 1329.79,1369.26 1328.5,1369.5C 1328.5,1370.83 1328.5,1372.17 1328.5,1373.5C 1327.39,1373.44 1326.39,1373.11 1325.5,1372.5C 1324.79,1371.6 1323.79,1371.26 1322.5,1371.5C 1322.5,1372.5 1322.5,1373.5 1322.5,1374.5C 1321.5,1374.5 1320.5,1374.5 1319.5,1374.5C 1319.16,1372.77 1318.16,1372.27 1316.5,1373C 1315.66,1374.01 1315.33,1375.18 1315.5,1376.5C 1314.5,1376.5 1313.5,1376.5 1312.5,1376.5C 1312.18,1374.95 1311.18,1374.29 1309.5,1374.5C 1309.5,1375.83 1309.5,1377.17 1309.5,1378.5C 1308.5,1378.5 1307.5,1378.5 1306.5,1378.5C 1305.82,1376.82 1304.48,1376.16 1302.5,1376.5C 1302.5,1377.5 1302.5,1378.5 1302.5,1379.5C 1301.65,1380.62 1300.65,1380.62 1299.5,1379.5C 1299.34,1375.86 1298.18,1375.53 1296,1378.5C 1295.52,1379.45 1295.35,1380.45 1295.5,1381.5C 1294.5,1381.5 1293.5,1381.5 1292.5,1381.5C 1292.5,1380.5 1292.5,1379.5 1292.5,1378.5C 1289.17,1378.5 1287.5,1380.17 1287.5,1383.5C 1286.5,1383.5 1285.5,1383.5 1284.5,1383.5C 1284.5,1382.5 1284.5,1381.5 1284.5,1380.5C 1282.9,1380.23 1281.57,1380.57 1280.5,1381.5C 1280.5,1382.17 1280.5,1382.83 1280.5,1383.5C 1279.47,1384.25 1278.3,1384.92 1277,1385.5C 1276.6,1385.27 1276.43,1384.94 1276.5,1384.5C 1275.82,1382.82 1274.48,1382.16 1272.5,1382.5C 1272.5,1383.5 1272.5,1384.5 1272.5,1385.5C 1270.17,1385.5 1267.83,1385.5 1265.5,1385.5C 1264.79,1384.6 1263.79,1384.26 1262.5,1384.5C 1262.5,1385.5 1262.5,1386.5 1262.5,1387.5C 1260.83,1387.5 1259.17,1387.5 1257.5,1387.5C 1256.82,1385.82 1255.48,1385.16 1253.5,1385.5C 1253.5,1386.83 1253.5,1388.17 1253.5,1389.5C 1251.83,1389.5 1250.17,1389.5 1248.5,1389.5C 1248.78,1387.65 1248.11,1386.32 1246.5,1385.5C 1243.47,1386.48 1241.8,1388.48 1241.5,1391.5C 1239.83,1391.5 1238.17,1391.5 1236.5,1391.5C 1235.91,1387.08 1233.91,1386.41 1230.5,1389.5C 1229.61,1390.32 1229.28,1391.32 1229.5,1392.5C 1226.45,1393.83 1223.45,1393.5 1220.5,1391.5C 1220.53,1390.5 1220.03,1389.84 1219,1389.5C 1216.48,1389.82 1214.98,1391.16 1214.5,1393.5C 1212.17,1394.83 1209.83,1394.83 1207.5,1393.5C 1206.5,1390.83 1205.5,1390.83 1204.5,1393.5C 1203.5,1393.5 1202.5,1393.5 1201.5,1393.5C 1200.08,1392.55 1198.41,1392.22 1196.5,1392.5C 1196.5,1393.5 1196.5,1394.5 1196.5,1395.5C 1189.5,1395.5 1182.5,1395.5 1175.5,1395.5C 1171.97,1393.58 1167.97,1392.91 1163.5,1393.5C 1163.5,1394.83 1163.5,1396.17 1163.5,1397.5C 1022.5,1397.5 881.5,1397.5 740.5,1397.5C 739.796,1395.66 738.463,1395.16 736.5,1396C 733.812,1398.83 731.812,1402 730.5,1405.5C 724.833,1411.83 718.833,1417.83 712.5,1423.5C 712.483,1421.97 711.816,1421.47 710.5,1422C 708.678,1424.91 706.345,1427.08 703.5,1428.5C 699.662,1430.99 696.995,1434.33 695.5,1438.5C 694.766,1439.71 694.433,1441.04 694.5,1442.5C 693.448,1442.35 692.448,1442.52 691.5,1443C 686.605,1448.06 681.605,1452.9 676.5,1457.5C 676.631,1456.76 676.464,1456.09 676,1455.5C 670.032,1460.56 664.199,1465.73 658.5,1471C 657.62,1472.36 657.286,1473.86 657.5,1475.5C 652.5,1481.17 647.167,1486.5 641.5,1491.5C 641.631,1490.76 641.464,1490.09 641,1489.5C 638.386,1492.79 635.219,1495.29 631.5,1497C 628.485,1500.16 626.152,1503.66 624.5,1507.5C 618.834,1513.5 612.834,1519.17 606.5,1524.5C 606.103,1523.47 605.437,1523.31 604.5,1524C 602.131,1527.23 599.131,1529.39 595.5,1530.5C 595.5,1531.83 595.5,1533.17 595.5,1534.5C 595.158,1535.34 594.492,1535.67 593.5,1535.5C 592.167,1535.5 591.5,1536.17 591.5,1537.5C 591.672,1538.49 591.338,1539.16 590.5,1539.5C 589.791,1538.6 588.791,1538.26 587.5,1538.5C 587.5,1539.5 587.5,1540.5 587.5,1541.5C 582.833,1548.17 577.167,1553.83 570.5,1558.5C 570.103,1557.47 569.437,1557.31 568.5,1558C 565.604,1561.07 562.604,1563.9 559.5,1566.5C 558.053,1568.4 556.386,1570.07 554.5,1571.5C 552.896,1572.29 552.229,1573.62 552.5,1575.5C 546.833,1581.83 540.833,1587.83 534.5,1593.5C 534.483,1591.97 533.816,1591.47 532.5,1592C 530.592,1595.41 527.925,1597.91 524.5,1599.5C 520.988,1601.67 518.655,1604.67 517.5,1608.5C 511.472,1614.86 505.472,1621.19 499.5,1627.5C 499.631,1626.62 499.298,1625.96 498.5,1625.5C 495.591,1628.58 492.258,1631.08 488.5,1633C 485.694,1635.81 482.86,1638.64 480,1641.5C 479.51,1642.79 479.343,1644.13 479.5,1645.5C 474.167,1650.83 468.833,1656.17 463.5,1661.5C 463.631,1660.62 463.298,1659.96 462.5,1659.5C 456.799,1664.13 451.299,1669.13 446,1674.5C 445.209,1675.74 444.709,1677.08 444.5,1678.5C 439.548,1684.12 434.215,1689.45 428.5,1694.5C 428.103,1693.47 427.437,1693.31 426.5,1694C 421.655,1698.37 416.821,1702.87 412,1707.5C 411.209,1708.74 410.709,1710.08 410.5,1711.5C 404.469,1717.87 398.136,1723.87 391.5,1729.5C 391.565,1729.06 391.399,1728.73 391,1728.5C 388.736,1731.43 385.902,1733.6 382.5,1735C 381.663,1736.01 381.33,1737.18 381.5,1738.5C 381.144,1740.19 380.144,1741.19 378.5,1741.5C 377.209,1741.26 376.209,1741.6 375.5,1742.5C 375.5,1743.5 375.5,1744.5 375.5,1745.5C 369.167,1751.5 362.833,1757.5 356.5,1763.5C 356.103,1762.47 355.437,1762.31 354.5,1763C 351.174,1766.15 348.174,1769.32 345.5,1772.5C 342.09,1772.38 340.756,1774.05 341.5,1777.5C 340.833,1777.83 340.167,1778.17 339.5,1778.5C 339.631,1777.62 339.298,1776.96 338.5,1776.5C 337.548,1778.05 337.215,1779.71 337.5,1781.5C 332.124,1786.84 326.791,1792.18 321.5,1797.5C 321.53,1796.5 321.03,1795.84 320,1795.5C 316.917,1799.09 313.417,1802.09 309.5,1804.5C 308.492,1806.34 306.992,1807.67 305,1808.5C 304.51,1809.79 304.343,1811.13 304.5,1812.5C 298.194,1818.81 291.86,1825.14 285.5,1831.5C 285.649,1830.45 285.483,1829.45 285,1828.5C 280.009,1833.91 274.509,1838.75 268.5,1843C 267.62,1844.36 267.286,1845.86 267.5,1847.5C 262.167,1853.5 256.5,1859.17 250.5,1864.5C 250.631,1863.76 250.464,1863.09 250,1862.5C 246.897,1866.11 243.397,1869.11 239.5,1871.5C 237.205,1874.3 234.705,1876.96 232,1879.5C 231.517,1880.45 231.351,1881.45 231.5,1882.5C 225.833,1888.83 219.833,1894.83 213.5,1900.5C 213.631,1899.62 213.298,1898.96 212.5,1898.5C 210.034,1902.3 206.701,1904.97 202.5,1906.5C 199.945,1908.7 198.279,1911.37 197.5,1914.5C 190.521,1922.81 182.854,1930.48 174.5,1937.5C 174.631,1936.76 174.464,1936.09 174,1935.5C 172.764,1937.54 170.931,1938.71 168.5,1939C 167.402,1939.77 167.402,1940.6 168.5,1941.5C 167.167,1941.5 165.833,1941.5 164.5,1941.5C 164.5,1432.17 164.5,922.833 164.5,413.5C 165.5,413.5 166.5,413.5 167.5,413.5C 167.5,411.5 167.5,409.5 167.5,407.5C 166.5,407.5 165.5,407.5 164.5,407.5C 164.183,404.428 164.516,401.428 165.5,398.5C 166.192,399.025 166.692,399.692 167,400.5C 167.454,398.464 168.287,396.63 169.5,395C 166.978,390.306 167.645,385.973 171.5,382C 170.196,381.196 169.529,380.029 169.5,378.5C 173.29,364.001 176.79,349.334 180,334.5C 185.551,320.552 191.218,305.552 197,289.5C 201.394,281.048 206.061,272.714 211,264.5C 211.192,262.423 211.692,260.423 212.5,258.5C 254.163,189.982 309.496,136.815 378.5,99C 384.646,96.3228 390.646,93.4894 396.5,90.5C 397.086,90.7093 397.586,91.0426 398,91.5C 404.87,87.3017 412.037,83.4684 419.5,80C 431.428,76.8255 443.095,73.1588 454.5,69C 466.854,67.1919 478.854,64.5252 490.5,61C 493.099,60.231 495.599,60.3977 498,61.5C 502.067,58.5756 506.233,58.2423 510.5,60.5C 511.568,61.4345 512.901,61.7678 514.5,61.5C 514.5,60.1667 514.5,58.8333 514.5,57.5C 516.833,57.5 519.167,57.5 521.5,57.5C 521.5,58.5 521.5,59.5 521.5,60.5C 525.308,60.8368 528.974,60.3368 532.5,59C 532.966,57.7012 532.966,56.2012 532.5,54.5 Z"/></g>
<g><path style="opacity:0.132" fill="#e8e8e8" d="M 1185.5,54.5 C 1187.53,54.3379 1189.53,54.5045 1191.5,55C 1190.83,55.6667 1190.17,56.3333 1189.5,57C 1190.76,57.4169 1191.42,58.2502 1191.5,59.5C 1189.5,59.5 1187.5,59.5 1185.5,59.5C 1185.5,57.8333 1185.5,56.1667 1185.5,54.5 Z"/></g>
<g><path style="opacity:0.004" fill="#fefffe" d="M 1203.5,55.5 C 1203.9,54.475 1204.56,54.3083 1205.5,55C 1204.91,55.4643 1204.24,55.631 1203.5,55.5 Z"/></g>
<g><path style="opacity:0.878" fill="#f4f4f4" d="M 1184.5,54.5 C 1184.83,54.5 1185.17,54.5 1185.5,54.5C 1185.5,56.1667 1185.5,57.8333 1185.5,59.5C 1187.5,59.5 1189.5,59.5 1191.5,59.5C 1191.83,59.5 1192.17,59.5 1192.5,59.5C 1190.05,60.4731 1187.39,60.8064 1184.5,60.5C 1184.5,58.5 1184.5,56.5 1184.5,54.5 Z"/></g>
<g><path style="opacity:0.255" fill="#ebebeb" d="M 1198.5,57.5 C 1198.5,58.5 1198.5,59.5 1198.5,60.5C 1196.82,60.7148 1195.82,60.0481 1195.5,58.5C 1196.61,58.4431 1197.61,58.1098 1198.5,57.5 Z"/></g>
<g><path style="opacity:0.386" fill="#f0f0f0" d="M 529.5,54.5 C 530.5,54.5 531.5,54.5 532.5,54.5C 532.966,56.2012 532.966,57.7012 532.5,59C 528.974,60.3368 525.308,60.8368 521.5,60.5C 521.5,59.5 521.5,58.5 521.5,57.5C 523.05,58.4408 524.716,59.1075 526.5,59.5C 528.179,59.7148 529.179,59.0481 529.5,57.5C 529.5,57.1667 529.5,56.8333 529.5,56.5C 529.5,55.8333 529.5,55.1667 529.5,54.5 Z"/></g>
<g><path style="opacity:0.195" fill="#e0e0e0" d="M 529.5,57.5 C 529.179,59.0481 528.179,59.7148 526.5,59.5C 526.821,57.9519 527.821,57.2852 529.5,57.5 Z"/></g>
<g><path style="opacity:0.569" fill="#e8e8e8" d="M 514.5,57.5 C 514.5,58.8333 514.5,60.1667 514.5,61.5C 512.901,61.7678 511.568,61.4345 510.5,60.5C 511.795,59.5116 513.128,58.5116 514.5,57.5 Z"/></g>
<g><path style="opacity:0.204" fill="#f6f6f6" d="M 1817.5,869.5 C 1815.86,870.705 1815.53,872.038 1816.5,873.5C 1815.24,873.539 1814.24,873.039 1813.5,872C 1814.31,870.294 1815.64,869.461 1817.5,869.5 Z"/></g>
<g><path style="opacity:0.314" fill="#f6f6f6" d="M 1814.5,882.5 C 1813.83,884.167 1813.17,885.833 1812.5,887.5C 1808.77,884.797 1809.43,883.131 1814.5,882.5 Z"/></g>
<g><path style="opacity:0.312" fill="#f5f5f5" d="M 1810.5,891.5 C 1810.75,894.244 1810.09,896.744 1808.5,899C 1808.74,899.902 1809.08,900.735 1809.5,901.5C 1808.5,901.586 1807.67,901.252 1807,900.5C 1806.09,897.657 1806.92,895.49 1809.5,894C 1809.26,893.127 1808.93,892.293 1808.5,891.5C 1809.26,890.227 1809.92,890.227 1810.5,891.5 Z"/></g>
<g><path style="opacity:0.253" fill="#f6f6f6" d="M 1808.5,902.5 C 1807.91,903.151 1807.24,903.818 1806.5,904.5C 1807.17,905.5 1807.83,906.5 1808.5,907.5C 1806.67,912.032 1804.67,916.365 1802.5,920.5C 1801.62,920.631 1800.96,920.298 1800.5,919.5C 1801.74,918.719 1802.74,917.719 1803.5,916.5C 1802.07,914.191 1802.73,912.691 1805.5,912C 1803.03,910.075 1803.03,908.242 1805.5,906.5C 1804.08,903.572 1805.08,902.238 1808.5,902.5 Z"/></g>
<g><path style="opacity:0.26" fill="#f5f5f5" d="M 1802.5,923.5 C 1800.88,926.228 1799.88,929.228 1799.5,932.5C 1799.88,929.228 1800.88,926.228 1802.5,923.5 Z"/></g>
<g><path style="opacity:0.332" fill="#f6f6f6" d="M 1798.5,936.5 C 1798.4,938.703 1797.73,940.703 1796.5,942.5C 1795.37,941.878 1794.37,941.045 1793.5,940C 1794.87,938.4 1795.87,936.567 1796.5,934.5C 1797.18,935.243 1797.85,935.909 1798.5,936.5 Z"/></g>
<g><path style="opacity:0.389" fill="#f5f5f5" d="M 1789.5,957.5 C 1789.5,958.5 1789.5,959.5 1789.5,960.5C 1788.41,960.38 1787.75,959.713 1787.5,958.5C 1787.86,956.582 1788.53,956.249 1789.5,957.5 Z"/></g>
<g><path style="opacity:0.11" fill="#f0f0f0" d="M 1787.5,963.5 C 1787.5,964.833 1787.5,966.167 1787.5,967.5C 1786.5,967.5 1785.5,967.5 1784.5,967.5C 1784.09,965.027 1785.09,963.694 1787.5,963.5 Z"/></g>
<g><path style="opacity:0.358" fill="#f6f6f6" d="M 1784.5,972.5 C 1783.77,973.708 1783.43,975.041 1783.5,976.5C 1781.74,975.448 1781.08,973.781 1781.5,971.5C 1782.79,971.263 1783.79,971.596 1784.5,972.5 Z"/></g>
<g><path style="opacity:0.143" fill="#f2f2f2" d="M 1779.5,983.5 C 1779.1,986.486 1778.1,989.152 1776.5,991.5C 1774.54,987.512 1775.54,984.845 1779.5,983.5 Z"/></g>
<g><path style="opacity:0.191" fill="#f1f1f1" d="M 1773.5,996.5 C 1773.94,996.435 1774.27,996.601 1774.5,997C 1772.17,1001.84 1769.51,1006.34 1766.5,1010.5C 1767.5,1005.66 1769,1000.99 1771,996.5C 1771.77,995.402 1772.6,995.402 1773.5,996.5 Z"/></g>
<g><path style="opacity:0.067" fill="#f4f4f4" d="M 1766.5,1010.5 C 1766.66,1011.87 1766.49,1013.21 1766,1014.5C 1764.07,1018.15 1762.23,1021.81 1760.5,1025.5C 1759.5,1025.5 1758.5,1025.5 1757.5,1025.5C 1759.95,1020.1 1762.95,1015.1 1766.5,1010.5 Z"/></g>
<g><path style="opacity:0.031" fill="#eeeeee" d="M 1757.5,1025.5 C 1758.5,1025.5 1759.5,1025.5 1760.5,1025.5C 1759.37,1027.13 1758.04,1028.63 1756.5,1030C 1756.96,1030.41 1757.29,1030.91 1757.5,1031.5C 1756.24,1032.38 1755.07,1033.38 1754,1034.5C 1754,1037.05 1753.16,1039.05 1751.5,1040.5C 1751.93,1034.9 1753.93,1029.9 1757.5,1025.5 Z"/></g>
<g><path style="opacity:0.237" fill="#f1f1f1" d="M 1751.5,1040.5 C 1749.45,1043.84 1747.45,1047.17 1745.5,1050.5C 1744.4,1049.4 1744.24,1048.07 1745,1046.5C 1746.98,1044.1 1749.15,1042.1 1751.5,1040.5 Z"/></g>
<g><path style="opacity:0.286" fill="#f5f5f5" d="M 1744.5,1053.5 C 1742.1,1056 1740.44,1059 1739.5,1062.5C 1738.64,1063.43 1737.64,1064.09 1736.5,1064.5C 1738.18,1061.45 1739.35,1058.45 1740,1055.5C 1741.11,1053.96 1742.61,1053.3 1744.5,1053.5 Z"/></g>
<g><path style="opacity:0.258" fill="#f5f5f5" d="M 1735.5,1068.5 C 1733.67,1071.35 1731.67,1074.02 1729.5,1076.5C 1730.43,1073.87 1731.43,1071.2 1732.5,1068.5C 1733.69,1067.35 1734.69,1067.35 1735.5,1068.5 Z"/></g>
<g><path style="opacity:0.582" fill="#f4f4f4" d="M 1725.5,1082.5 C 1724.6,1083.21 1724.26,1084.21 1724.5,1085.5C 1722.79,1084.36 1722.12,1082.7 1722.5,1080.5C 1724.18,1080.29 1725.18,1080.95 1725.5,1082.5 Z"/></g>
<g><path style="opacity:0.322" fill="#f4f4f4" d="M 1722.5,1086.5 C 1722.22,1087.78 1721.55,1088.78 1720.5,1089.5C 1719.71,1090.4 1718.71,1091.07 1717.5,1091.5C 1718.24,1089.57 1719.24,1087.74 1720.5,1086C 1721.44,1085.31 1722.1,1085.47 1722.5,1086.5 Z"/></g>
<g><path style="opacity:0.417" fill="#f4f4f4" d="M 1717.5,1091.5 C 1717.5,1092.83 1718.17,1093.5 1719.5,1093.5C 1718.83,1094.83 1717.83,1095.83 1716.5,1096.5C 1716.22,1094.59 1716.55,1092.92 1717.5,1091.5 Z"/></g>
<g><path style="opacity:0.2" fill="#ebebeb" d="M 1720.5,1089.5 C 1721.04,1089.56 1721.38,1089.89 1721.5,1090.5C 1720.39,1091.27 1719.72,1092.27 1719.5,1093.5C 1718.17,1093.5 1717.5,1092.83 1717.5,1091.5C 1718.71,1091.07 1719.71,1090.4 1720.5,1089.5 Z"/></g>
<g><path style="opacity:0.441" fill="#f6f6f6" d="M 1712.5,1102.5 C 1711.88,1104.75 1710.54,1106.42 1708.5,1107.5C 1708.57,1105.3 1709.23,1103.3 1710.5,1101.5C 1711.18,1101.86 1711.85,1102.2 1712.5,1102.5 Z"/></g>
<g><path style="opacity:0.529" fill="#f6f6f6" d="M 1702.5,1115.5 C 1702.5,1116.17 1702.17,1116.5 1701.5,1116.5C 1700.22,1115.29 1700.22,1113.96 1701.5,1112.5C 1702.39,1113.32 1702.72,1114.32 1702.5,1115.5 Z"/></g>
<g><path style="opacity:0.274" fill="#f7f7f7" d="M 1698.5,1121.5 C 1697.97,1123.23 1696.97,1124.56 1695.5,1125.5C 1695.34,1124.13 1695.51,1122.79 1696,1121.5C 1696.98,1120.23 1697.81,1120.23 1698.5,1121.5 Z"/></g>
<g><path style="opacity:0.737" fill="#f0f0f0" d="M 1694.5,1126.5 C 1693.31,1128.11 1692.31,1129.78 1691.5,1131.5C 1690.85,1129.56 1690.52,1127.56 1690.5,1125.5C 1691.96,1125.43 1693.29,1125.77 1694.5,1126.5 Z"/></g>
<g><path style="opacity:0.261" fill="#f2f2f2" d="M 1688.5,1133.5 C 1687.54,1136.07 1686.2,1138.41 1684.5,1140.5C 1683.9,1140.26 1683.57,1139.76 1683.5,1139C 1683.56,1135.51 1685.23,1133.68 1688.5,1133.5 Z"/></g>
<g><path style="opacity:0.441" fill="#f0f0f0" d="M 1682.5,1141.5 C 1682.5,1142.83 1681.83,1143.5 1680.5,1143.5C 1679.83,1143.5 1679.17,1143.5 1678.5,1143.5C 1679.18,1141.82 1680.52,1141.16 1682.5,1141.5 Z"/></g>
<g><path style="opacity:0.071" fill="#dfdfdf" d="M 1678.5,1143.5 C 1679.17,1143.5 1679.83,1143.5 1680.5,1143.5C 1680.67,1144.49 1680.34,1145.16 1679.5,1145.5C 1678.66,1145.16 1678.33,1144.49 1678.5,1143.5 Z"/></g>
<g><path style="opacity:0.187" fill="#ededed" d="M 1678.5,1143.5 C 1678.33,1144.49 1678.66,1145.16 1679.5,1145.5C 1679.57,1147.03 1678.91,1148.03 1677.5,1148.5C 1677.22,1146.59 1677.55,1144.92 1678.5,1143.5 Z"/></g>
<g><path style="opacity:0.111" fill="#e8e8e8" d="M 1671.5,1153.5 C 1671.34,1155.15 1670.67,1156.49 1669.5,1157.5C 1669.5,1156.5 1669.5,1155.5 1669.5,1154.5C 1669.84,1153.66 1670.51,1153.33 1671.5,1153.5 Z"/></g>
<g><path style="opacity:0.363" fill="#f4f4f4" d="M 1669.5,1154.5 C 1669.5,1155.5 1669.5,1156.5 1669.5,1157.5C 1669.5,1158.17 1669.17,1158.5 1668.5,1158.5C 1667.53,1157.04 1667.86,1155.7 1669.5,1154.5 Z"/></g>
<g><path style="opacity:0.48" fill="#f0f0f0" d="M 1663.5,1164.5 C 1662.15,1166.19 1660.48,1167.53 1658.5,1168.5C 1659.3,1166.96 1659.63,1165.29 1659.5,1163.5C 1661.1,1163.23 1662.43,1163.57 1663.5,1164.5 Z"/></g>
<g><path style="opacity:0.138" fill="#f3f3f3" d="M 1658.5,1168.5 C 1657.99,1171.67 1656.32,1174.01 1653.5,1175.5C 1653.98,1172.17 1655.65,1169.83 1658.5,1168.5 Z"/></g>
<g><path style="opacity:0.298" fill="#f7f7f7" d="M 1618.5,1210.5 C 1615.21,1213.16 1611.87,1215.82 1608.5,1218.5C 1608.39,1216.1 1609.39,1214.26 1611.5,1213C 1613.56,1212.35 1615.23,1211.18 1616.5,1209.5C 1617.18,1209.86 1617.85,1210.2 1618.5,1210.5 Z"/></g>
<g><path style="opacity:0.35" fill="#f7f7f7" d="M 1602.5,1224.5 C 1600.5,1226.61 1598.17,1228.28 1595.5,1229.5C 1595.92,1226.34 1597.75,1224.34 1601,1223.5C 1601.76,1223.57 1602.26,1223.9 1602.5,1224.5 Z"/></g>
<g><path style="opacity:0.193" fill="#f4f4f4" d="M 1590.5,1234.5 C 1589.4,1235.6 1588.06,1236.27 1586.5,1236.5C 1586.76,1234.44 1587.93,1233.1 1590,1232.5C 1590.46,1233.09 1590.63,1233.76 1590.5,1234.5 Z"/></g>
<g><path style="opacity:0.182" fill="#f3f3f3" d="M 1581.5,1242.5 C 1580.17,1243.17 1578.83,1243.83 1577.5,1244.5C 1577.57,1242.69 1578.41,1241.36 1580,1240.5C 1581.03,1240.84 1581.53,1241.5 1581.5,1242.5 Z"/></g>
<g><path style="opacity:0.227" fill="#f2f2f2" d="M 1573.5,1248.5 C 1571.52,1248.74 1569.86,1250.07 1568.5,1252.5C 1568.33,1250.51 1569,1248.84 1570.5,1247.5C 1572.05,1246.2 1573.05,1246.54 1573.5,1248.5 Z"/></g>
<g><path style="opacity:0.2" fill="#eeeeee" d="M 1566.5,1253.5 C 1565.71,1254.4 1564.71,1255.07 1563.5,1255.5C 1563.67,1252.95 1564.67,1252.28 1566.5,1253.5 Z"/></g>
<g><path style="opacity:0.32" fill="#f7f7f7" d="M 1560.5,1258.5 C 1558.86,1259.8 1557.19,1261.14 1555.5,1262.5C 1555.38,1260.52 1556.05,1258.85 1557.5,1257.5C 1559.22,1255.91 1560.22,1256.24 1560.5,1258.5 Z"/></g>
<g><path style="opacity:0.451" fill="#f2f2f2" d="M 1553.5,1263.5 C 1552.22,1263.78 1551.22,1264.45 1550.5,1265.5C 1549.22,1264.29 1549.22,1262.96 1550.5,1261.5C 1552.62,1260.13 1553.62,1260.8 1553.5,1263.5 Z"/></g>
<g><path style="opacity:0.359" fill="#f2f2f2" d="M 1548.5,1267.5 C 1547.61,1268.11 1546.61,1268.44 1545.5,1268.5C 1545.5,1267.5 1545.5,1266.5 1545.5,1265.5C 1547.18,1265.29 1548.18,1265.95 1548.5,1267.5 Z"/></g>
<g><path style="opacity:0.166" fill="#f1f1f1" d="M 1543.5,1270.5 C 1542.07,1271.34 1540.74,1272.34 1539.5,1273.5C 1539.29,1271.86 1539.62,1270.36 1540.5,1269C 1542.16,1268.27 1543.16,1268.77 1543.5,1270.5 Z"/></g>
<g><path style="opacity:0.005" fill="#fefffe" d="M 1539.5,1274.5 C 1542,1274.51 1542.17,1275.18 1540,1276.5C 1539.54,1275.91 1539.37,1275.24 1539.5,1274.5 Z"/></g>
<g><path style="opacity:0.49" fill="#f2f2f2" d="M 1535.5,1275.5 C 1533.2,1277.5 1530.86,1279.5 1528.5,1281.5C 1528.43,1276.39 1530.77,1274.39 1535.5,1275.5 Z"/></g>
<g><path style="opacity:0.585" fill="#f3f3f3" d="M 1526.5,1282.5 C 1524.64,1283.84 1522.64,1284.84 1520.5,1285.5C 1519.43,1284.75 1519.26,1283.75 1520,1282.5C 1521.99,1281.78 1523.82,1280.78 1525.5,1279.5C 1526.39,1280.32 1526.72,1281.32 1526.5,1282.5 Z"/></g>
<g><path style="opacity:0.327" fill="#e4e4e4" d="M 1507.5,1291.5 C 1508.83,1291.5 1509.5,1292.17 1509.5,1293.5C 1508.39,1293.56 1507.39,1293.89 1506.5,1294.5C 1506.26,1293.21 1506.6,1292.21 1507.5,1291.5 Z"/></g>
<g><path style="opacity:0.008" fill="#efefef" d="M 1507.5,1291.5 C 1508.95,1290.11 1509.95,1290.45 1510.5,1292.5C 1510.5,1293.17 1510.17,1293.5 1509.5,1293.5C 1509.5,1292.17 1508.83,1291.5 1507.5,1291.5 Z"/></g>
<g><path style="opacity:0.667" fill="#f1f1f1" d="M 1502.5,1297.5 C 1501.2,1298.49 1499.87,1299.49 1498.5,1300.5C 1498.5,1298.83 1498.5,1297.17 1498.5,1295.5C 1500.48,1295.16 1501.82,1295.82 1502.5,1297.5 Z"/></g>
<g><path style="opacity:0.222" fill="#e9e9e9" d="M 1493.5,1303.5 C 1492.39,1303.56 1491.39,1303.89 1490.5,1304.5C 1490.5,1303.5 1490.5,1302.5 1490.5,1301.5C 1492.18,1301.29 1493.18,1301.95 1493.5,1303.5 Z"/></g>
<g><path style="opacity:0.379" fill="#f6f6f6" d="M 1488.5,1305.5 C 1488.03,1306.91 1487.03,1307.57 1485.5,1307.5C 1485.5,1306.17 1484.83,1305.5 1483.5,1305.5C 1484.64,1304.66 1485.97,1303.99 1487.5,1303.5C 1488.3,1303.96 1488.63,1304.62 1488.5,1305.5 Z"/></g>
<g><path style="opacity:0.175" fill="#e3e3e3" d="M 1483.5,1305.5 C 1484.83,1305.5 1485.5,1306.17 1485.5,1307.5C 1484.39,1307.56 1483.39,1307.89 1482.5,1308.5C 1482.5,1307.83 1482.5,1307.17 1482.5,1306.5C 1482.5,1305.83 1482.83,1305.5 1483.5,1305.5 Z"/></g>
<g><path style="opacity:0.278" fill="#f5f5f5" d="M 1482.5,1306.5 C 1482.5,1307.17 1482.5,1307.83 1482.5,1308.5C 1480.5,1310.61 1478.17,1312.28 1475.5,1313.5C 1475.31,1311.9 1475.81,1310.56 1477,1309.5C 1477.33,1309.83 1477.67,1310.17 1478,1310.5C 1479.21,1308.82 1480.71,1307.48 1482.5,1306.5 Z"/></g>
<g><path style="opacity:0.239" fill="#f0f0f0" d="M 1472.5,1315.5 C 1467.85,1317.81 1463.18,1320.14 1458.5,1322.5C 1458.63,1321.62 1458.3,1320.96 1457.5,1320.5C 1455.34,1322.02 1453,1323.02 1450.5,1323.5C 1454.35,1320.6 1458.68,1318.43 1463.5,1317C 1465.5,1313.71 1468.5,1312.21 1472.5,1312.5C 1472.5,1313.5 1472.5,1314.5 1472.5,1315.5 Z"/></g>
<g><path style="opacity:0.161" fill="#ececec" d="M 1458.5,1322.5 C 1454.04,1324.96 1449.37,1326.96 1444.5,1328.5C 1441.78,1328.96 1439.11,1329.63 1436.5,1330.5C 1440.95,1327.87 1445.61,1325.54 1450.5,1323.5C 1453,1323.02 1455.34,1322.02 1457.5,1320.5C 1458.3,1320.96 1458.63,1321.62 1458.5,1322.5 Z"/></g>
<g><path style="opacity:0.147" fill="#e6e6e6" d="M 1444.5,1328.5 C 1441.21,1330.16 1437.87,1331.83 1434.5,1333.5C 1434.43,1331.97 1435.09,1330.97 1436.5,1330.5C 1439.11,1329.63 1441.78,1328.96 1444.5,1328.5 Z"/></g>
<g><path style="opacity:0.675" fill="#f2f2f2" d="M 1427.5,1337.5 C 1424.46,1338.52 1421.46,1339.85 1418.5,1341.5C 1418.5,1340.17 1418.5,1338.83 1418.5,1337.5C 1421.52,1336.51 1424.35,1335.84 1427,1335.5C 1427.46,1336.09 1427.63,1336.76 1427.5,1337.5 Z"/></g>
<g><path style="opacity:0.564" fill="#f6f6f6" d="M 1409.5,1344.5 C 1408.79,1345.4 1407.79,1345.74 1406.5,1345.5C 1406.69,1342 1407.69,1341.66 1409.5,1344.5 Z"/></g>
<g><path style="opacity:0.204" fill="#efefef" d="M 1403.5,1347.5 C 1402.04,1347.43 1400.71,1347.77 1399.5,1348.5C 1399.5,1347.5 1399.5,1346.5 1399.5,1345.5C 1401.48,1345.16 1402.82,1345.82 1403.5,1347.5 Z"/></g>
<g><path style="opacity:0.257" fill="#f6f6f6" d="M 1391.5,1349.5 C 1392.1,1348.86 1392.93,1348.53 1394,1348.5C 1395.38,1348.68 1396.21,1349.35 1396.5,1350.5C 1396.16,1351.34 1395.49,1351.67 1394.5,1351.5C 1394.18,1349.95 1393.18,1349.29 1391.5,1349.5 Z"/></g>
<g><path style="opacity:0.12" fill="#e9e9e9" d="M 1391.5,1349.5 C 1393.18,1349.29 1394.18,1349.95 1394.5,1351.5C 1393.5,1351.5 1392.5,1351.5 1391.5,1351.5C 1391.5,1350.83 1391.5,1350.17 1391.5,1349.5 Z"/></g>
<g><path style="opacity:0.353" fill="#f2f2f2" d="M 1383.5,1355.5 C 1381.49,1355.39 1379.82,1356.06 1378.5,1357.5C 1378.5,1356.17 1378.5,1354.83 1378.5,1353.5C 1380.78,1353.08 1382.45,1353.74 1383.5,1355.5 Z"/></g>
<g><path style="opacity:0.127" fill="#f1f1f1" d="M 1376.5,1357.5 C 1376.16,1358.34 1375.49,1358.67 1374.5,1358.5C 1374.28,1357.32 1374.61,1356.32 1375.5,1355.5C 1376.3,1355.96 1376.63,1356.62 1376.5,1357.5 Z"/></g>
<g><path style="opacity:0.221" fill="#f2f2f2" d="M 1372.5,1359.5 C 1371.17,1359.83 1369.83,1360.17 1368.5,1360.5C 1368.5,1359.5 1368.5,1358.5 1368.5,1357.5C 1370.48,1357.16 1371.82,1357.82 1372.5,1359.5 Z"/></g>
<g><path style="opacity:0.211" fill="#f3f3f3" d="M 1358.5,1363.5 C 1357.43,1364.43 1356.1,1364.77 1354.5,1364.5C 1354.5,1363.5 1354.5,1362.5 1354.5,1361.5C 1356.38,1361.23 1357.71,1361.9 1358.5,1363.5 Z"/></g>
<g><path style="opacity:0.124" fill="#f3f3f3" d="M 1352.5,1365.5 C 1351.79,1366.4 1350.79,1366.74 1349.5,1366.5C 1349.5,1365.5 1349.5,1364.5 1349.5,1363.5C 1351.18,1363.29 1352.18,1363.95 1352.5,1365.5 Z"/></g>
<g><path style="opacity:0.201" fill="#f4f4f4" d="M 1342.5,1368.5 C 1341.78,1369.55 1340.78,1370.22 1339.5,1370.5C 1339.29,1368.86 1339.62,1367.36 1340.5,1366C 1342.06,1365.81 1342.73,1366.65 1342.5,1368.5 Z"/></g>
<g><path style="opacity:0.004" fill="#ebebeb" d="M 1347.5,1366.5 C 1346.78,1367.55 1345.78,1368.22 1344.5,1368.5C 1344.5,1367.5 1344.5,1366.5 1344.5,1365.5C 1345.79,1365.26 1346.79,1365.6 1347.5,1366.5 Z"/></g>
<g><path style="opacity:0.165" fill="#f1f1f1" d="M 1337.5,1370.5 C 1335.94,1370.73 1334.6,1371.4 1333.5,1372.5C 1333.5,1371.17 1333.5,1369.83 1333.5,1368.5C 1335.48,1368.16 1336.82,1368.82 1337.5,1370.5 Z"/></g>
<g><path style="opacity:0.051" fill="#e6e6e6" d="M 1331.5,1370.5 C 1330.9,1371.9 1329.9,1372.9 1328.5,1373.5C 1328.5,1372.17 1328.5,1370.83 1328.5,1369.5C 1329.79,1369.26 1330.79,1369.6 1331.5,1370.5 Z"/></g>
<g><path style="opacity:0.198" fill="#e9e9e9" d="M 1325.5,1372.5 C 1325.03,1373.91 1324.03,1374.57 1322.5,1374.5C 1322.5,1373.5 1322.5,1372.5 1322.5,1371.5C 1323.79,1371.26 1324.79,1371.6 1325.5,1372.5 Z"/></g>
<g><path style="opacity:0.148" fill="#eeeeee" d="M 1319.5,1374.5 C 1317.94,1374.73 1316.6,1375.4 1315.5,1376.5C 1315.33,1375.18 1315.66,1374.01 1316.5,1373C 1318.16,1372.27 1319.16,1372.77 1319.5,1374.5 Z"/></g>
<g><path style="opacity:0.216" fill="#eeeeee" d="M 1312.5,1376.5 C 1311.5,1377.17 1310.5,1377.83 1309.5,1378.5C 1309.5,1377.17 1309.5,1375.83 1309.5,1374.5C 1311.18,1374.29 1312.18,1374.95 1312.5,1376.5 Z"/></g>
<g><path style="opacity:0.383" fill="#f1f1f1" d="M 1299.5,1379.5 C 1298.4,1380.6 1297.06,1381.27 1295.5,1381.5C 1295.35,1380.45 1295.52,1379.45 1296,1378.5C 1298.18,1375.53 1299.34,1375.86 1299.5,1379.5 Z"/></g>
<g><path style="opacity:0.012" fill="#ececec" d="M 1306.5,1378.5 C 1305.04,1378.43 1303.71,1378.77 1302.5,1379.5C 1302.5,1378.5 1302.5,1377.5 1302.5,1376.5C 1304.48,1376.16 1305.82,1376.82 1306.5,1378.5 Z"/></g>
<g><path style="opacity:0.423" fill="#f2f2f2" d="M 1292.5,1381.5 C 1290.49,1381.39 1288.82,1382.06 1287.5,1383.5C 1287.5,1380.17 1289.17,1378.5 1292.5,1378.5C 1292.5,1379.5 1292.5,1380.5 1292.5,1381.5 Z"/></g>
<g><path style="opacity:0.584" fill="#f3f3f3" d="M 1280.5,1381.5 C 1281.57,1380.57 1282.9,1380.23 1284.5,1380.5C 1284.5,1381.5 1284.5,1382.5 1284.5,1383.5C 1284.17,1383.5 1283.83,1383.5 1283.5,1383.5C 1283.18,1381.95 1282.18,1381.29 1280.5,1381.5 Z"/></g>
<g><path style="opacity:0.14" fill="#e6e6e6" d="M 1280.5,1381.5 C 1282.18,1381.29 1283.18,1381.95 1283.5,1383.5C 1282.5,1383.5 1281.5,1383.5 1280.5,1383.5C 1280.5,1382.83 1280.5,1382.17 1280.5,1381.5 Z"/></g>
<g><path style="opacity:0.243" fill="#eeeeee" d="M 1276.5,1384.5 C 1275.88,1384.39 1275.38,1384.06 1275,1383.5C 1274.58,1384.76 1273.75,1385.42 1272.5,1385.5C 1272.5,1384.5 1272.5,1383.5 1272.5,1382.5C 1274.48,1382.16 1275.82,1382.82 1276.5,1384.5 Z"/></g>
<g><path style="opacity:0.431" fill="#f5f5f5" d="M 1265.5,1385.5 C 1265.03,1386.91 1264.03,1387.57 1262.5,1387.5C 1262.5,1386.5 1262.5,1385.5 1262.5,1384.5C 1263.79,1384.26 1264.79,1384.6 1265.5,1385.5 Z"/></g>
<g><path style="opacity:0.212" fill="#f3f3f3" d="M 1257.5,1387.5 C 1255.8,1387.53 1254.47,1388.19 1253.5,1389.5C 1253.5,1388.17 1253.5,1386.83 1253.5,1385.5C 1255.48,1385.16 1256.82,1385.82 1257.5,1387.5 Z"/></g>
<g><path style="opacity:0.203" fill="#f4f4f4" d="M 1248.5,1389.5 C 1245.81,1389.17 1243.48,1389.83 1241.5,1391.5C 1241.8,1388.48 1243.47,1386.48 1246.5,1385.5C 1248.11,1386.32 1248.78,1387.65 1248.5,1389.5 Z"/></g>
<g><path style="opacity:0.238" fill="#f3f3f3" d="M 1236.5,1391.5 C 1234.13,1390.71 1231.8,1391.04 1229.5,1392.5C 1229.28,1391.32 1229.61,1390.32 1230.5,1389.5C 1233.91,1386.41 1235.91,1387.08 1236.5,1391.5 Z"/></g>
<g><path style="opacity:0.514" fill="#f1f1f1" d="M 1207.5,1393.5 C 1206.5,1393.5 1205.5,1393.5 1204.5,1393.5C 1205.5,1390.83 1206.5,1390.83 1207.5,1393.5 Z"/></g>
<g><path style="opacity:0.137" fill="#f0f0f0" d="M 1220.5,1391.5 C 1218.86,1393.08 1216.86,1393.75 1214.5,1393.5C 1214.98,1391.16 1216.48,1389.82 1219,1389.5C 1220.03,1389.84 1220.53,1390.5 1220.5,1391.5 Z"/></g>
<g><path style="opacity:0.198" fill="#f2f2f2" d="M 1201.5,1393.5 C 1200.45,1395.26 1198.78,1395.92 1196.5,1395.5C 1196.5,1394.5 1196.5,1393.5 1196.5,1392.5C 1198.41,1392.22 1200.08,1392.55 1201.5,1393.5 Z"/></g>
<g><path style="opacity:0.184" fill="#f1f1f1" d="M 1175.5,1395.5 C 1171.81,1397.34 1167.81,1398.01 1163.5,1397.5C 1163.5,1396.17 1163.5,1394.83 1163.5,1393.5C 1167.97,1392.91 1171.97,1393.58 1175.5,1395.5 Z"/></g>
<g><path style="opacity:0.226" fill="#f2f2f2" d="M 740.5,1397.5 C 736.584,1399.41 733.251,1402.08 730.5,1405.5C 731.812,1402 733.812,1398.83 736.5,1396C 738.463,1395.16 739.796,1395.66 740.5,1397.5 Z"/></g>
<g><path style="opacity:0.441" fill="#f6f6f6" d="M 712.5,1423.5 C 710.5,1425.5 708.5,1427.5 706.5,1429.5C 705.609,1428.89 704.609,1428.56 703.5,1428.5C 706.345,1427.08 708.678,1424.91 710.5,1422C 711.816,1421.47 712.483,1421.97 712.5,1423.5 Z"/></g>
<g><path style="opacity:0.341" fill="#f1f1f1" d="M 703.5,1428.5 C 704.609,1428.56 705.609,1428.89 706.5,1429.5C 702.59,1432.06 698.923,1435.06 695.5,1438.5C 696.995,1434.33 699.662,1430.99 703.5,1428.5 Z"/></g>
<g><path style="opacity:0.176" fill="#f4f4f4" d="M 676.5,1457.5 C 670.167,1463.5 663.833,1469.5 657.5,1475.5C 657.286,1473.86 657.62,1472.36 658.5,1471C 664.199,1465.73 670.032,1460.56 676,1455.5C 676.464,1456.09 676.631,1456.76 676.5,1457.5 Z"/></g>
<g><path style="opacity:0.271" fill="#f7f7f7" d="M 641.5,1491.5 C 635.684,1496.59 630.017,1501.93 624.5,1507.5C 626.152,1503.66 628.485,1500.16 631.5,1497C 635.219,1495.29 638.386,1492.79 641,1489.5C 641.464,1490.09 641.631,1490.76 641.5,1491.5 Z"/></g>
<g><path style="opacity:0.285" fill="#f4f4f4" d="M 606.5,1524.5 C 603.776,1528.89 600.109,1532.23 595.5,1534.5C 595.5,1533.17 595.5,1531.83 595.5,1530.5C 599.131,1529.39 602.131,1527.23 604.5,1524C 605.437,1523.31 606.103,1523.47 606.5,1524.5 Z"/></g>
<g><path style="opacity:0.104" fill="#e8e8e8" d="M 593.5,1535.5 C 593.5,1536.83 592.833,1537.5 591.5,1537.5C 591.5,1536.17 592.167,1535.5 593.5,1535.5 Z"/></g>
<g><path style="opacity:0.355" fill="#f0f0f0" d="M 590.5,1539.5 C 589.778,1540.55 588.778,1541.22 587.5,1541.5C 587.5,1540.5 587.5,1539.5 587.5,1538.5C 588.791,1538.26 589.791,1538.6 590.5,1539.5 Z"/></g>
<g><path style="opacity:0.465" fill="#f4f4f4" d="M 570.5,1558.5 C 568.428,1562.24 565.428,1564.91 561.5,1566.5C 560.833,1566.5 560.167,1566.5 559.5,1566.5C 562.604,1563.9 565.604,1561.07 568.5,1558C 569.437,1557.31 570.103,1557.47 570.5,1558.5 Z"/></g>
<g><path style="opacity:0.175" fill="#e4e4e4" d="M 559.5,1566.5 C 560.167,1566.5 560.833,1566.5 561.5,1566.5C 559.5,1569.17 557.167,1571.5 554.5,1573.5C 554.5,1572.83 554.5,1572.17 554.5,1571.5C 556.386,1570.07 558.053,1568.4 559.5,1566.5 Z"/></g>
<g><path style="opacity:0.165" fill="#f1f1f1" d="M 554.5,1571.5 C 554.5,1572.17 554.5,1572.83 554.5,1573.5C 554.167,1574.5 553.5,1575.17 552.5,1575.5C 552.229,1573.62 552.896,1572.29 554.5,1571.5 Z"/></g>
<g><path style="opacity:0.533" fill="#f5f5f5" d="M 534.5,1593.5 C 532.063,1596.61 529.063,1598.94 525.5,1600.5C 525.5,1599.83 525.167,1599.5 524.5,1599.5C 527.925,1597.91 530.592,1595.41 532.5,1592C 533.816,1591.47 534.483,1591.97 534.5,1593.5 Z"/></g>
<g><path style="opacity:0.157" fill="#efefef" d="M 524.5,1599.5 C 525.167,1599.5 525.5,1599.83 525.5,1600.5C 523.272,1603.64 520.605,1606.31 517.5,1608.5C 518.655,1604.67 520.988,1601.67 524.5,1599.5 Z"/></g>
<g><path style="opacity:0.242" fill="#f3f3f3" d="M 499.5,1627.5 C 496.588,1630.58 493.254,1633.08 489.5,1635C 486.3,1638.7 482.967,1642.2 479.5,1645.5C 479.343,1644.13 479.51,1642.79 480,1641.5C 482.86,1638.64 485.694,1635.81 488.5,1633C 492.258,1631.08 495.591,1628.58 498.5,1625.5C 499.298,1625.96 499.631,1626.62 499.5,1627.5 Z"/></g>
<g><path style="opacity:0.172" fill="#f4f4f4" d="M 463.5,1661.5 C 457.323,1667.41 450.99,1673.08 444.5,1678.5C 444.709,1677.08 445.209,1675.74 446,1674.5C 451.299,1669.13 456.799,1664.13 462.5,1659.5C 463.298,1659.96 463.631,1660.62 463.5,1661.5 Z"/></g>
<g><path style="opacity:0.29" fill="#f7f7f7" d="M 428.5,1694.5 C 422.966,1700.61 416.966,1706.28 410.5,1711.5C 410.709,1710.08 411.209,1708.74 412,1707.5C 416.821,1702.87 421.655,1698.37 426.5,1694C 427.437,1693.31 428.103,1693.47 428.5,1694.5 Z"/></g>
<g><path style="opacity:0.333" fill="#f5f5f5" d="M 391.5,1729.5 C 389.093,1733.58 385.76,1736.58 381.5,1738.5C 381.33,1737.18 381.663,1736.01 382.5,1735C 385.902,1733.6 388.736,1731.43 391,1728.5C 391.399,1728.73 391.565,1729.06 391.5,1729.5 Z"/></g>
<g><path style="opacity:0.031" fill="#f4f4f4" d="M 375.5,1742.5 C 376.209,1741.6 377.209,1741.26 378.5,1741.5C 378.672,1742.49 378.338,1743.16 377.5,1743.5C 377.158,1742.66 376.492,1742.33 375.5,1742.5 Z"/></g>
<g><path style="opacity:0.004" fill="#e8e8e8" d="M 375.5,1742.5 C 376.492,1742.33 377.158,1742.66 377.5,1743.5C 376.833,1744.17 376.167,1744.83 375.5,1745.5C 375.5,1744.5 375.5,1743.5 375.5,1742.5 Z"/></g>
<g><path style="opacity:0.23" fill="#f5f5f5" d="M 356.5,1763.5 C 353.707,1767.63 350.04,1770.63 345.5,1772.5C 348.174,1769.32 351.174,1766.15 354.5,1763C 355.437,1762.31 356.103,1762.47 356.5,1763.5 Z"/></g>
<g><path style="opacity:0.175" fill="#f2f2f2" d="M 345.5,1772.5 C 344.54,1774.46 343.207,1776.13 341.5,1777.5C 340.756,1774.05 342.09,1772.38 345.5,1772.5 Z"/></g>
<g><path style="opacity:0.371" fill="#f5f5f5" d="M 339.5,1778.5 C 339.068,1779.71 338.401,1780.71 337.5,1781.5C 337.215,1779.71 337.548,1778.05 338.5,1776.5C 339.298,1776.96 339.631,1777.62 339.5,1778.5 Z"/></g>
<g><path style="opacity:0.387" fill="#f5f5f5" d="M 321.5,1797.5 C 319.548,1799.45 317.548,1801.45 315.5,1803.5C 314.311,1804.43 312.978,1804.76 311.5,1804.5C 310.833,1804.5 310.167,1804.5 309.5,1804.5C 313.417,1802.09 316.917,1799.09 320,1795.5C 321.03,1795.84 321.53,1796.5 321.5,1797.5 Z"/></g>
<g><path style="opacity:0.259" fill="#ededed" d="M 309.5,1804.5 C 310.167,1804.5 310.833,1804.5 311.5,1804.5C 309.533,1807.47 307.2,1810.14 304.5,1812.5C 304.343,1811.13 304.51,1809.79 305,1808.5C 306.992,1807.67 308.492,1806.34 309.5,1804.5 Z"/></g>
<g><path style="opacity:0.396" fill="#f4f4f4" d="M 285.5,1831.5 C 279.541,1836.82 273.541,1842.16 267.5,1847.5C 267.286,1845.86 267.62,1844.36 268.5,1843C 274.509,1838.75 280.009,1833.91 285,1828.5C 285.483,1829.45 285.649,1830.45 285.5,1831.5 Z"/></g>
<g><path style="opacity:0.377" fill="#f6f6f6" d="M 250.5,1864.5 C 247.833,1867.17 245.167,1869.83 242.5,1872.5C 241.791,1871.6 240.791,1871.26 239.5,1871.5C 243.397,1869.11 246.897,1866.11 250,1862.5C 250.464,1863.09 250.631,1863.76 250.5,1864.5 Z"/></g>
<g><path style="opacity:0.232" fill="#f1f1f1" d="M 239.5,1871.5 C 240.791,1871.26 241.791,1871.6 242.5,1872.5C 238.56,1875.44 234.893,1878.77 231.5,1882.5C 231.351,1881.45 231.517,1880.45 232,1879.5C 234.705,1876.96 237.205,1874.3 239.5,1871.5 Z"/></g>
<g><path style="opacity:0.502" fill="#f5f5f5" d="M 213.5,1900.5 C 208.147,1905.19 202.814,1909.86 197.5,1914.5C 198.279,1911.37 199.945,1908.7 202.5,1906.5C 206.701,1904.97 210.034,1902.3 212.5,1898.5C 213.298,1898.96 213.631,1899.62 213.5,1900.5 Z"/></g>
<g><path style="opacity:0.374" fill="#f6f6f6" d="M 174.5,1937.5 C 172.853,1939.33 170.853,1940.66 168.5,1941.5C 167.402,1940.6 167.402,1939.77 168.5,1939C 170.931,1938.71 172.764,1937.54 174,1935.5C 174.464,1936.09 174.631,1936.76 174.5,1937.5 Z"/></g>
<g><path style="opacity:0.019" fill="#fafafa" d="M 164.5,1942.5 C 166.75,1942.18 168.75,1942.68 170.5,1944C 169.5,1944.17 168.5,1944.33 167.5,1944.5C 165.97,1944.36 164.97,1943.69 164.5,1942.5 Z"/></g>
</svg>
