<?xml version="1.0" encoding="UTF-8"?>
<!DOCTYPE svg PUBLIC "-//W3C//DTD SVG 1.1//EN" "http://www.w3.org/Graphics/SVG/1.1/DTD/svg11.dtd">
<svg xmlns="http://www.w3.org/2000/svg" version="1.1" width="1000px" height="1000px" style="shape-rendering:geometricPrecision; text-rendering:geometricPrecision; image-rendering:optimizeQuality; fill-rule:evenodd; clip-rule:evenodd" xmlns:xlink="http://www.w3.org/1999/xlink">
<g><path style="opacity:0.996" fill="#fefefe" d="M 248.5,5.5 C 249.601,6.59832 250.934,6.76498 252.5,6C 253.252,5.32924 253.586,4.4959 253.5,3.5C 367.833,3.5 482.167,3.5 596.5,3.5C 596.5,4.5 596.5,5.5 596.5,6.5C 598.099,6.76781 599.432,6.43448 600.5,5.5C 602.367,5.04504 604.2,4.37838 606,3.5C 608.671,6.02108 611.671,6.68775 615,5.5C 696.965,16.073 768.465,49.573 829.5,106C 916.603,194.603 950.603,298.603 931.5,418C 931.095,418.945 930.428,419.612 929.5,420C 929.633,426.827 928.3,433.494 925.5,440C 924.87,446.782 922.87,453.782 919.5,461C 919.957,461.414 920.291,461.914 920.5,462.5C 915.579,476.295 909.913,489.629 903.5,502.5C 900.582,507.333 897.916,512.333 895.5,517.5C 892.381,525.143 888.547,532.476 884,539.5C 875.667,551.65 866.834,563.317 857.5,574.5C 855.952,574.821 855.285,575.821 855.5,577.5C 848.435,586.399 840.769,594.899 832.5,603C 806.184,627.4 777.85,648.233 747.5,665.5C 747.631,664.761 747.464,664.094 747,663.5C 744.795,664.412 742.962,665.745 741.5,667.5C 740.486,668.674 739.153,669.34 737.5,669.5C 735.973,669.427 734.973,670.094 734.5,671.5C 732.447,671.402 730.78,672.069 729.5,673.5C 712.646,682.236 694.979,689.236 676.5,694.5C 675.432,693.566 674.099,693.232 672.5,693.5C 672.5,694.5 672.5,695.5 672.5,696.5C 671.883,696.389 671.383,696.056 671,695.5C 662.072,698.821 653.072,700.821 644,701.5C 633.138,703.763 622.138,705.43 611,706.5C 609.439,706.397 607.939,706.063 606.5,705.5C 604.715,706.663 602.715,707.33 600.5,707.5C 597.383,706.877 594.383,706.877 591.5,707.5C 590.726,706.853 589.726,706.52 588.5,706.5C 586.97,706.64 585.97,707.307 585.5,708.5C 510.833,708.333 436.166,708.5 361.5,709C 331.58,738.251 301.58,767.585 271.5,797C 270.906,797.464 270.239,797.631 269.5,797.5C 267.167,797.833 265.833,799.167 265.5,801.5C 211.469,853.532 157.136,905.198 102.5,956.5C 99.5,957.5 97.5,959.5 96.5,962.5C 85.5481,972.785 74.8814,983.452 64.5,994.5C 63.675,995.386 62.675,995.719 61.5,995.5C 61.3333,727.833 61.5,460.166 62,192.5C 69.2428,122.873 103.743,69.0395 165.5,31C 189.532,17.2653 215.199,9.09862 242.5,6.5C 243.623,7.75742 244.289,7.42409 244.5,5.5C 244.62,4.41383 245.287,3.74716 246.5,3.5C 247.713,3.74716 248.38,4.41383 248.5,5.5 Z"/></g>
<g><path style="opacity:0.092" fill="#e7e7e7" d="M 253.5,3.5 C 253.586,4.4959 253.252,5.32924 252.5,6C 250.934,6.76498 249.601,6.59832 248.5,5.5C 250.322,5.16916 251.989,4.50249 253.5,3.5 Z"/></g>
<g><path style="opacity:0.757" fill="#eeeeee" d="M 596.5,3.5 C 598.483,3.15684 599.817,3.82351 600.5,5.5C 599.432,6.43448 598.099,6.76781 596.5,6.5C 596.5,5.5 596.5,4.5 596.5,3.5 Z"/></g>
<g><path style="opacity:0.98" fill="#eaeaea" d="M 244.5,5.5 C 244.289,7.42409 243.623,7.75742 242.5,6.5C 242.842,5.66175 243.508,5.32842 244.5,5.5 Z"/></g>
<g><path style="opacity:0.027" fill="#f1f1f1" d="M 903.5,502.5 C 902.122,508.26 899.455,513.26 895.5,517.5C 897.916,512.333 900.582,507.333 903.5,502.5 Z"/></g>
<g><path style="opacity:0.286" fill="#e9e9e9" d="M 857.5,574.5 C 857.068,575.71 856.401,576.71 855.5,577.5C 855.285,575.821 855.952,574.821 857.5,574.5 Z"/></g>
<g><path style="opacity:0.327" fill="#f0f0f0" d="M 747.5,665.5 C 745.589,665.566 743.589,666.233 741.5,667.5C 742.962,665.745 744.795,664.412 747,663.5C 747.464,664.094 747.631,664.761 747.5,665.5 Z"/></g>
<g><path style="opacity:0.043" fill="#e9e9e9" d="M 737.5,669.5 C 737.027,670.906 736.027,671.573 734.5,671.5C 734.973,670.094 735.973,669.427 737.5,669.5 Z"/></g>
<g><path style="opacity:0.196" fill="#e9e9e9" d="M 734.5,671.5 C 733.22,672.931 731.553,673.598 729.5,673.5C 730.78,672.069 732.447,671.402 734.5,671.5 Z"/></g>
<g><path style="opacity:0.247" fill="#efefef" d="M 676.5,694.5 C 675.167,695.167 673.833,695.833 672.5,696.5C 672.5,695.5 672.5,694.5 672.5,693.5C 674.099,693.232 675.432,693.566 676.5,694.5 Z"/></g>
<g><path style="opacity:0.3" fill="#f1f1f1" d="M 591.5,707.5 C 589.506,708.15 587.506,708.483 585.5,708.5C 585.97,707.307 586.97,706.64 588.5,706.5C 589.726,706.52 590.726,706.853 591.5,707.5 Z"/></g>
<g><path style="opacity:0.008" fill="#e2e2e2" d="M 269.5,797.5 C 268.5,799.167 267.167,800.5 265.5,801.5C 265.833,799.167 267.167,797.833 269.5,797.5 Z"/></g>
<g><path style="opacity:0.071" fill="#f1f1f1" d="M 102.5,956.5 C 100.833,958.833 98.8333,960.833 96.5,962.5C 97.5,959.5 99.5,957.5 102.5,956.5 Z"/></g>
</svg>
