<?xml version="1.0" encoding="UTF-8"?>
<!DOCTYPE svg PUBLIC "-//W3C//DTD SVG 1.1//EN" "http://www.w3.org/Graphics/SVG/1.1/DTD/svg11.dtd">
<svg xmlns="http://www.w3.org/2000/svg" version="1.1" width="2000px" height="2000px" style="shape-rendering:geometricPrecision; text-rendering:geometricPrecision; image-rendering:optimizeQuality; fill-rule:evenodd; clip-rule:evenodd" xmlns:xlink="http://www.w3.org/1999/xlink">
<g><path style="opacity:0.004" fill="#fefefe" d="M 587.5,192.5 C 588.978,192.238 590.311,192.571 591.5,193.5C 590.833,193.833 590.167,194.167 589.5,194.5C 588.287,194.253 587.62,193.586 587.5,192.5 Z"/></g>
<g><path style="opacity:0.996" fill="#fefefe" d="M 601.5,192.5 C 787.167,192.5 972.833,192.5 1158.5,192.5C 1158.18,194.75 1158.68,196.75 1160,198.5C 1161.6,198.129 1163.1,197.795 1164.5,197.5C 1167.64,197.741 1170.8,197.074 1174,195.5C 1320.04,209.55 1446.04,269.884 1552,376.5C 1617.31,445.081 1663.65,524.748 1691,615.5C 1691.98,623.637 1694.15,631.637 1697.5,639.5C 1698.14,642.15 1698.14,644.984 1697.5,648C 1700.86,650.034 1701.19,652.368 1698.5,655C 1699.45,655.483 1700.45,655.649 1701.5,655.5C 1701,660.248 1701,664.915 1701.5,669.5C 1703.04,674.215 1704.37,679.049 1705.5,684C 1705.36,685.226 1705.02,686.393 1704.5,687.5C 1705.92,693.632 1707.26,699.799 1708.5,706C 1709.54,714.395 1709.54,722.895 1708.5,731.5C 1709.83,731.5 1711.17,731.5 1712.5,731.5C 1712.5,754.833 1712.5,778.167 1712.5,801.5C 1711.17,801.5 1709.83,801.5 1708.5,801.5C 1709.48,810.075 1709.48,818.575 1708.5,827C 1707.29,833.069 1705.95,839.069 1704.5,845C 1705.59,847.064 1705.76,849.231 1705,851.5C 1704.12,855.792 1702.95,859.959 1701.5,864C 1703.01,866.766 1702.68,869.266 1700.5,871.5C 1700.74,874.594 1700.74,877.594 1700.5,880.5C 1698.63,890.098 1695.63,899.432 1691.5,908.5C 1690.95,910.394 1689.95,912.06 1688.5,913.5C 1691.43,915.738 1691.1,916.738 1687.5,916.5C 1688.74,918.773 1688.4,920.606 1686.5,922C 1687.07,922.995 1687.73,923.828 1688.5,924.5C 1687.49,927.844 1686.49,931.177 1685.5,934.5C 1684.76,934.369 1684.09,934.536 1683.5,935C 1682.26,935.69 1682.26,936.19 1683.5,936.5C 1683.5,936.833 1683.5,937.167 1683.5,937.5C 1682.77,938.712 1681.77,939.712 1680.5,940.5C 1680.86,941.522 1681.52,942.189 1682.5,942.5C 1682.5,943.5 1682.5,944.5 1682.5,945.5C 1680.7,944.395 1679.53,945.061 1679,947.5C 1678.27,949.157 1678.77,950.157 1680.5,950.5C 1678.44,954.345 1676.77,958.345 1675.5,962.5C 1674.5,962.5 1673.5,962.5 1672.5,962.5C 1672.29,964.179 1672.95,965.179 1674.5,965.5C 1671.97,968.53 1670.64,971.863 1670.5,975.5C 1667.69,975.958 1667.02,977.291 1668.5,979.5C 1668.67,980.492 1668.34,981.158 1667.5,981.5C 1666.24,983.29 1664.74,984.957 1663,986.5C 1662.22,988.387 1662.39,990.054 1663.5,991.5C 1662.12,995.241 1660.12,998.574 1657.5,1001.5C 1655.98,1004.72 1654.65,1008.06 1653.5,1011.5C 1650.67,1015.16 1648.33,1019.16 1646.5,1023.5C 1645.33,1024.51 1644.66,1025.85 1644.5,1027.5C 1643.9,1032.29 1641.73,1036.29 1638,1039.5C 1637.16,1041.61 1636.32,1043.61 1635.5,1045.5C 1633.98,1045.51 1632.82,1046.18 1632,1047.5C 1631.62,1050.06 1630.78,1052.39 1629.5,1054.5C 1628.21,1055.47 1628.21,1056.47 1629.5,1057.5C 1629.04,1058.3 1628.38,1058.63 1627.5,1058.5C 1626.67,1057.67 1625.84,1058 1625,1059.5C 1624.73,1061.33 1623.89,1062.83 1622.5,1064C 1622.73,1064.4 1623.06,1064.57 1623.5,1064.5C 1622.77,1066.51 1621.94,1068.51 1621,1070.5C 1618.61,1069.4 1618.11,1070.06 1619.5,1072.5C 1619.14,1073.52 1618.48,1074.19 1617.5,1074.5C 1616.79,1073.6 1615.79,1073.26 1614.5,1073.5C 1613.36,1076.02 1612.69,1078.69 1612.5,1081.5C 1607.83,1088.82 1602.83,1095.82 1597.5,1102.5C 1596.92,1101.23 1596.26,1101.23 1595.5,1102.5C 1594.75,1103.74 1594.42,1105.07 1594.5,1106.5C 1594.17,1107.5 1593.5,1108.17 1592.5,1108.5C 1591.7,1107.12 1591.03,1107.28 1590.5,1109C 1590.57,1109.76 1590.9,1110.26 1591.5,1110.5C 1590.5,1112.17 1589.17,1113.5 1587.5,1114.5C 1586.92,1113.23 1586.26,1113.23 1585.5,1114.5C 1584.75,1115.74 1584.42,1117.07 1584.5,1118.5C 1584.31,1120.91 1582.97,1121.91 1580.5,1121.5C 1578.79,1122.64 1578.12,1124.3 1578.5,1126.5C 1577.83,1127.83 1576.83,1128.83 1575.5,1129.5C 1575.44,1128.96 1575.11,1128.62 1574.5,1128.5C 1572.42,1129.99 1571.42,1131.99 1571.5,1134.5C 1570.3,1136.91 1568.63,1138.91 1566.5,1140.5C 1565.79,1139.6 1564.79,1139.26 1563.5,1139.5C 1563.5,1140.83 1563.5,1142.17 1563.5,1143.5C 1562.83,1143.83 1562.17,1144.17 1561.5,1144.5C 1559.9,1145.29 1559.23,1146.62 1559.5,1148.5C 1549.81,1159.19 1539.47,1169.19 1528.5,1178.5C 1526.2,1179.79 1523.86,1181.12 1521.5,1182.5C 1520.87,1183.42 1520.54,1184.42 1520.5,1185.5C 1518.83,1187.83 1516.83,1189.83 1514.5,1191.5C 1514.44,1190.96 1514.11,1190.62 1513.5,1190.5C 1512.3,1191.53 1510.97,1192.36 1509.5,1193C 1508.23,1193.98 1508.23,1194.81 1509.5,1195.5C 1508.5,1197.17 1507.17,1198.5 1505.5,1199.5C 1503.29,1198.02 1501.96,1198.69 1501.5,1201.5C 1500.4,1203.39 1499.06,1205.06 1497.5,1206.5C 1495.29,1205.02 1493.96,1205.69 1493.5,1208.5C 1492.83,1209.83 1491.83,1210.83 1490.5,1211.5C 1488.29,1210.02 1486.96,1210.69 1486.5,1213.5C 1486.57,1215.03 1485.91,1216.03 1484.5,1216.5C 1484.19,1215.52 1483.52,1214.86 1482.5,1214.5C 1481.57,1215.69 1481.24,1217.02 1481.5,1218.5C 1481.16,1219.34 1480.49,1219.67 1479.5,1219.5C 1476.67,1217.97 1475.34,1218.97 1475.5,1222.5C 1474.92,1224.65 1473.76,1224.98 1472,1223.5C 1470.81,1224.56 1470.31,1225.9 1470.5,1227.5C 1467.68,1227.66 1465.68,1228.99 1464.5,1231.5C 1463.5,1228.83 1462.5,1228.83 1461.5,1231.5C 1461.44,1232.61 1461.11,1233.61 1460.5,1234.5C 1459.5,1234.5 1458.5,1234.5 1457.5,1234.5C 1453.81,1234.32 1451.81,1235.99 1451.5,1239.5C 1451.5,1240.17 1451.17,1240.5 1450.5,1240.5C 1450.63,1239.62 1450.3,1238.96 1449.5,1238.5C 1447.83,1239.33 1446.17,1240.17 1444.5,1241C 1443.23,1241.98 1443.23,1242.81 1444.5,1243.5C 1445.04,1243.56 1445.38,1243.89 1445.5,1244.5C 1442.25,1245.76 1439.25,1247.42 1436.5,1249.5C 1436.16,1247.77 1435.16,1247.27 1433.5,1248C 1432.66,1249.01 1432.33,1250.18 1432.5,1251.5C 1432.03,1252.91 1431.03,1253.57 1429.5,1253.5C 1428.05,1252.11 1427.05,1252.45 1426.5,1254.5C 1425.97,1256.45 1424.63,1257.45 1422.5,1257.5C 1421.05,1256.11 1420.05,1256.45 1419.5,1258.5C 1419.57,1260.03 1418.91,1261.03 1417.5,1261.5C 1417.41,1258.39 1416.08,1258.06 1413.5,1260.5C 1411.64,1262.71 1409.3,1264.04 1406.5,1264.5C 1406.5,1265.5 1406.5,1266.5 1406.5,1267.5C 1405.61,1268.11 1404.61,1268.44 1403.5,1268.5C 1403.63,1267.62 1403.3,1266.96 1402.5,1266.5C 1401.21,1267.1 1399.87,1267.6 1398.5,1268C 1395.6,1270.44 1392.6,1272.61 1389.5,1274.5C 1386.25,1274.79 1383.58,1276.13 1381.5,1278.5C 1378.76,1278.71 1376.43,1279.71 1374.5,1281.5C 1373.17,1281.5 1372.5,1282.17 1372.5,1283.5C 1370.95,1285.38 1368.95,1286.38 1366.5,1286.5C 1366.57,1286.06 1366.4,1285.73 1366,1285.5C 1364.08,1286.32 1362.08,1286.98 1360,1287.5C 1358.97,1287.84 1358.47,1288.5 1358.5,1289.5C 1357.1,1290.93 1355.43,1292.1 1353.5,1293C 1352.21,1293.49 1350.87,1293.66 1349.5,1293.5C 1348.38,1292.24 1347.71,1292.58 1347.5,1294.5C 1347.17,1295.5 1346.5,1296.17 1345.5,1296.5C 1345.38,1295.41 1344.71,1294.75 1343.5,1294.5C 1342.29,1294.75 1341.62,1295.41 1341.5,1296.5C 1340.24,1298.64 1338.58,1299.31 1336.5,1298.5C 1334.27,1300.72 1331.61,1302.06 1328.5,1302.5C 1325.84,1300.83 1324.17,1301.5 1323.5,1304.5C 1323.17,1304.5 1322.83,1304.5 1322.5,1304.5C 1321.61,1303.22 1320.61,1303.22 1319.5,1304.5C 1319.86,1305.18 1320.2,1305.85 1320.5,1306.5C 1319.83,1306.5 1319.17,1306.5 1318.5,1306.5C 1317.5,1303.83 1316.5,1303.83 1315.5,1306.5C 1313.08,1308.86 1310.08,1309.86 1306.5,1309.5C 1305.79,1308.6 1304.79,1308.26 1303.5,1308.5C 1303.5,1309.5 1303.5,1310.5 1303.5,1311.5C 1301.5,1311.83 1299.5,1312.17 1297.5,1312.5C 1296.79,1311.6 1295.79,1311.26 1294.5,1311.5C 1294.5,1312.5 1294.5,1313.5 1294.5,1314.5C 1294.17,1314.5 1293.83,1314.5 1293.5,1314.5C 1293.72,1313.32 1293.39,1312.32 1292.5,1311.5C 1290.89,1312.32 1290.22,1313.65 1290.5,1315.5C 1289.83,1315.5 1289.17,1315.5 1288.5,1315.5C 1287.05,1314.11 1286.05,1314.45 1285.5,1316.5C 1284.51,1316.67 1283.84,1316.34 1283.5,1315.5C 1283.44,1314.96 1283.11,1314.62 1282.5,1314.5C 1281.29,1315.58 1280.63,1316.91 1280.5,1318.5C 1279.74,1318.08 1278.9,1317.74 1278,1317.5C 1276.7,1318.71 1275.2,1319.37 1273.5,1319.5C 1271.95,1317.02 1270.62,1317.35 1269.5,1320.5C 1268.83,1320.5 1268.17,1320.5 1267.5,1320.5C 1266.38,1319.24 1265.71,1319.58 1265.5,1321.5C 1264.12,1322.8 1262.62,1322.8 1261,1321.5C 1259.28,1324.73 1257.28,1325.06 1255,1322.5C 1254.52,1323.45 1254.35,1324.45 1254.5,1325.5C 1253.17,1325.5 1251.83,1325.5 1250.5,1325.5C 1249.82,1323.82 1248.48,1323.16 1246.5,1323.5C 1246.5,1324.5 1246.5,1325.5 1246.5,1326.5C 1245.5,1327.83 1244.5,1327.83 1243.5,1326.5C 1243.53,1325.5 1243.03,1324.84 1242,1324.5C 1240.25,1324.75 1239.42,1325.75 1239.5,1327.5C 1238.5,1327.5 1237.5,1327.5 1236.5,1327.5C 1236.18,1325.95 1235.18,1325.29 1233.5,1325.5C 1233.5,1326.83 1233.5,1328.17 1233.5,1329.5C 1231.44,1329.48 1229.44,1329.15 1227.5,1328.5C 1225.67,1327.28 1224.67,1327.95 1224.5,1330.5C 1222.53,1330.74 1220.7,1330.41 1219,1329.5C 1217.56,1331.16 1215.72,1331.82 1213.5,1331.5C 1213.13,1330.31 1212.3,1329.64 1211,1329.5C 1209.05,1329.71 1207.88,1330.71 1207.5,1332.5C 1206.73,1333.15 1205.73,1333.48 1204.5,1333.5C 1202.97,1333.36 1201.97,1332.69 1201.5,1331.5C 1201.1,1330.47 1200.44,1330.31 1199.5,1331C 1197.94,1331.76 1196.94,1332.93 1196.5,1334.5C 1193.76,1335.49 1191.09,1335.16 1188.5,1333.5C 1186.67,1332.28 1185.67,1332.95 1185.5,1335.5C 1183.28,1336.37 1180.95,1336.7 1178.5,1336.5C 1177.86,1333.32 1176.86,1332.98 1175.5,1335.5C 1174.39,1335.56 1173.39,1335.89 1172.5,1336.5C 1172.53,1335.5 1172.03,1334.84 1171,1334.5C 1169.25,1334.75 1168.42,1335.75 1168.5,1337.5C 1162.5,1337.5 1156.5,1337.5 1150.5,1337.5C 1150.53,1336.5 1150.03,1335.84 1149,1335.5C 1146.62,1336.72 1144.28,1336.72 1142,1335.5C 1140.96,1336.24 1140.46,1337.24 1140.5,1338.5C 1020.17,1338.5 899.833,1338.5 779.5,1338.5C 779.217,1337.71 778.717,1337.04 778,1336.5C 775.91,1338.42 774.077,1340.42 772.5,1342.5C 769.925,1346.42 766.925,1350.09 763.5,1353.5C 761.11,1356.23 758.443,1358.56 755.5,1360.5C 755.095,1359.45 754.429,1359.45 753.5,1360.5C 752.048,1361.94 751.048,1363.61 750.5,1365.5C 748.517,1365.16 747.183,1365.82 746.5,1367.5C 740.202,1375.47 733.202,1382.8 725.5,1389.5C 725.103,1388.47 724.437,1388.31 723.5,1389C 721.429,1391.41 719.096,1393.41 716.5,1395C 714.21,1396.78 712.543,1398.94 711.5,1401.5C 704.758,1410.24 697.091,1417.91 688.5,1424.5C 686.027,1424.09 684.694,1425.09 684.5,1427.5C 678.554,1434.11 672.221,1440.45 665.5,1446.5C 662.572,1448.4 659.572,1450.4 656.5,1452.5C 655.614,1453.32 655.281,1454.32 655.5,1455.5C 653.614,1456.93 651.947,1458.6 650.5,1460.5C 650.44,1459.96 650.107,1459.62 649.5,1459.5C 648.614,1460.32 648.281,1461.32 648.5,1462.5C 644.167,1467.5 639.5,1472.17 634.5,1476.5C 634.103,1475.47 633.437,1475.31 632.5,1476C 629.938,1478.73 627.271,1481.23 624.5,1483.5C 624.262,1485.4 623.262,1486.74 621.5,1487.5C 620.167,1487.5 619.5,1488.17 619.5,1489.5C 615.167,1495.83 609.833,1501.17 603.5,1505.5C 599.723,1507.71 596.39,1510.37 593.5,1513.5C 593.5,1514.17 593.167,1514.5 592.5,1514.5C 590.088,1514.69 589.088,1516.03 589.5,1518.5C 584.5,1524.17 579.167,1529.5 573.5,1534.5C 573.103,1533.47 572.437,1533.31 571.5,1534C 569.507,1536.75 567.007,1538.91 564,1540.5C 563.536,1541.09 563.369,1541.76 563.5,1542.5C 560.5,1543.5 558.5,1545.5 557.5,1548.5C 553.561,1554.11 548.894,1559.11 543.5,1563.5C 540.905,1563.04 539.238,1564.37 538.5,1567.5C 533.132,1569.53 529.465,1573.2 527.5,1578.5C 522.833,1583.17 518.167,1587.83 513.5,1592.5C 513.103,1591.47 512.437,1591.31 511.5,1592C 509.461,1594.37 507.128,1596.37 504.5,1598C 501.882,1600.11 499.882,1602.61 498.5,1605.5C 493.167,1611.5 487.5,1617.17 481.5,1622.5C 481.565,1622.06 481.399,1621.73 481,1621.5C 479.064,1624.1 476.564,1625.94 473.5,1627C 472.242,1628.74 471.242,1630.57 470.5,1632.5C 464.83,1639.17 458.497,1645.17 451.5,1650.5C 448.732,1652.09 446.065,1653.92 443.5,1656C 442.748,1656.67 442.414,1657.5 442.5,1658.5C 441.118,1660.55 439.452,1662.22 437.5,1663.5C 437.44,1662.96 437.107,1662.62 436.5,1662.5C 435.614,1663.32 435.281,1664.32 435.5,1665.5C 431.119,1670.55 426.452,1675.21 421.5,1679.5C 421.44,1678.96 421.107,1678.62 420.5,1678.5C 418.293,1681.2 415.626,1683.37 412.5,1685C 411.177,1685.82 410.511,1686.98 410.5,1688.5C 404.869,1695.8 398.536,1702.46 391.5,1708.5C 391.103,1707.47 390.437,1707.31 389.5,1708C 385.167,1711.83 380.833,1715.67 376.5,1719.5C 375.614,1720.32 375.281,1721.32 375.5,1722.5C 371.539,1728.13 366.873,1733.13 361.5,1737.5C 361.103,1736.47 360.437,1736.31 359.5,1737C 356.938,1739.73 354.271,1742.23 351.5,1744.5C 351.167,1745.5 350.5,1746.17 349.5,1746.5C 347.413,1747.58 346.08,1749.25 345.5,1751.5C 340.882,1757.45 335.548,1762.79 329.5,1767.5C 329.565,1767.06 329.399,1766.73 329,1766.5C 325.321,1769.84 321.488,1773.01 317.5,1776C 316.418,1777.33 315.751,1778.83 315.5,1780.5C 309.833,1786.83 303.833,1792.83 297.5,1798.5C 294.561,1799.46 292.228,1801.12 290.5,1803.5C 289.167,1803.5 287.833,1803.5 286.5,1803.5C 286.5,1368.83 286.5,934.167 286.5,499.5C 287.833,499.5 289.167,499.5 290.5,499.5C 290.276,495.821 289.942,492.154 289.5,488.5C 290.304,486.811 291.304,485.145 292.5,483.5C 291.809,478.906 291.809,474.406 292.5,470C 293.834,466.018 295.167,462.018 296.5,458C 295.978,457.439 295.645,456.772 295.5,456C 297.078,453.032 297.745,449.865 297.5,446.5C 312.171,391.617 338.838,343.617 377.5,302.5C 420.455,257.378 471.455,225.544 530.5,207C 542.779,204.877 554.779,202.21 566.5,199C 568.568,198.313 570.568,198.48 572.5,199.5C 576.112,196.628 579.778,196.295 583.5,198.5C 584.209,199.404 585.209,199.737 586.5,199.5C 586.5,198.5 586.5,197.5 586.5,196.5C 587.919,195.549 589.585,195.216 591.5,195.5C 591.414,196.496 591.748,197.329 592.5,198C 598.133,199.989 601.133,198.156 601.5,192.5 Z"/></g>
<g><path style="opacity:0.004" fill="#fefffe" d="M 1174.5,192.5 C 1176.34,192.639 1176.67,193.306 1175.5,194.5C 1174.7,194.043 1174.37,193.376 1174.5,192.5 Z"/></g>
<g><path style="opacity:0.257" fill="#ededed" d="M 1158.5,192.5 C 1160.29,192.215 1161.95,192.548 1163.5,193.5C 1162.35,194.731 1161.18,194.731 1160,193.5C 1159.09,196.232 1159.76,196.899 1162,195.5C 1163.01,196.056 1163.84,196.722 1164.5,197.5C 1163.1,197.795 1161.6,198.129 1160,198.5C 1158.68,196.75 1158.18,194.75 1158.5,192.5 Z"/></g>
<g><path style="opacity:0.459" fill="#f1f1f1" d="M 601.5,192.5 C 601.133,198.156 598.133,199.989 592.5,198C 591.748,197.329 591.414,196.496 591.5,195.5C 592.458,195.953 593.292,196.619 594,197.5C 594.85,196.576 595.85,196.576 597,197.5C 599.787,196.267 601.287,194.6 601.5,192.5 Z"/></g>
<g><path style="opacity:0.433" fill="#f0f0f0" d="M 586.5,196.5 C 586.5,197.5 586.5,198.5 586.5,199.5C 585.209,199.737 584.209,199.404 583.5,198.5C 584.5,197.833 585.5,197.167 586.5,196.5 Z"/></g>
<g><path style="opacity:0.004" fill="#fefffe" d="M 297.5,446.5 C 296.833,445.167 296.833,445.167 297.5,446.5 Z"/></g>
<g><path style="opacity:0.015" fill="#fefefe" d="M 289.5,488.5 C 287.698,496.542 286.698,496.208 286.5,487.5C 287.791,487.263 288.791,487.596 289.5,488.5 Z"/></g>
<g><path style="opacity:0.004" fill="#fefefe" d="M 1710.5,715.5 C 1711.79,716.871 1712.45,718.705 1712.5,721C 1712.17,722.833 1711.83,724.667 1711.5,726.5C 1710.51,722.893 1710.18,719.226 1710.5,715.5 Z"/></g>
<g><path style="opacity:0.005" fill="#fdfdfd" d="M 1710.5,807.5 C 1711.78,808.694 1712.44,810.36 1712.5,812.5C 1712.17,814.167 1711.83,815.833 1711.5,817.5C 1710.85,814.499 1710.51,811.166 1710.5,807.5 Z"/></g>
<g><path style="opacity:0.329" fill="#f5f5f5" d="M 1691.5,908.5 C 1691.7,910.963 1691.7,913.463 1691.5,916C 1689.81,918.603 1688.81,921.436 1688.5,924.5C 1687.73,923.828 1687.07,922.995 1686.5,922C 1688.4,920.606 1688.74,918.773 1687.5,916.5C 1691.1,916.738 1691.43,915.738 1688.5,913.5C 1689.95,912.06 1690.95,910.394 1691.5,908.5 Z"/></g>
<g><path style="opacity:0.02" fill="#f4f4f4" d="M 1685.5,934.5 C 1685.17,935.5 1684.5,936.167 1683.5,936.5C 1682.26,936.19 1682.26,935.69 1683.5,935C 1684.09,934.536 1684.76,934.369 1685.5,934.5 Z"/></g>
<g><path style="opacity:0.46" fill="#f7f7f7" d="M 1683.5,937.5 C 1684.1,937.735 1684.43,938.235 1684.5,939C 1683.57,940.077 1682.9,941.244 1682.5,942.5C 1681.52,942.189 1680.86,941.522 1680.5,940.5C 1681.77,939.712 1682.77,938.712 1683.5,937.5 Z"/></g>
<g><path style="opacity:0.295" fill="#f6f6f6" d="M 1682.5,945.5 C 1681.83,947.167 1681.17,948.833 1680.5,950.5C 1678.77,950.157 1678.27,949.157 1679,947.5C 1679.53,945.061 1680.7,944.395 1682.5,945.5 Z"/></g>
<g><path style="opacity:0.078" fill="#f3f3f3" d="M 1675.5,962.5 C 1674.89,963.391 1674.56,964.391 1674.5,965.5C 1672.95,965.179 1672.29,964.179 1672.5,962.5C 1673.5,962.5 1674.5,962.5 1675.5,962.5 Z"/></g>
<g><path style="opacity:0.3" fill="#f5f5f5" d="M 1670.5,975.5 C 1670.01,976.995 1669.34,978.329 1668.5,979.5C 1667.02,977.291 1667.69,975.958 1670.5,975.5 Z"/></g>
<g><path style="opacity:0.123" fill="#f4f4f4" d="M 1667.5,981.5 C 1666.14,984.908 1664.8,988.241 1663.5,991.5C 1662.39,990.054 1662.22,988.387 1663,986.5C 1664.74,984.957 1666.24,983.29 1667.5,981.5 Z"/></g>
<g><path style="opacity:0.226" fill="#f6f6f6" d="M 1657.5,1001.5 C 1657.51,1005.47 1656.18,1008.81 1653.5,1011.5C 1654.65,1008.06 1655.98,1004.72 1657.5,1001.5 Z"/></g>
<g><path style="opacity:0.131" fill="#f4f4f4" d="M 1653.5,1011.5 C 1652.17,1014.83 1650.83,1018.17 1649.5,1021.5C 1648.5,1022.17 1647.5,1022.83 1646.5,1023.5C 1648.33,1019.16 1650.67,1015.16 1653.5,1011.5 Z"/></g>
<g><path style="opacity:0.004" fill="#f1f2f1" d="M 1649.5,1021.5 C 1650.83,1022.17 1650.83,1022.17 1649.5,1021.5 Z"/></g>
<g><path style="opacity:0.106" fill="#efefef" d="M 1646.5,1023.5 C 1646.77,1025.38 1646.1,1026.71 1644.5,1027.5C 1644.66,1025.85 1645.33,1024.51 1646.5,1023.5 Z"/></g>
<g><path style="opacity:0.24" fill="#f5f5f5" d="M 1635.5,1045.5 C 1633.28,1048.04 1632.12,1051.04 1632,1054.5C 1631.23,1053.4 1630.4,1053.4 1629.5,1054.5C 1630.78,1052.39 1631.62,1050.06 1632,1047.5C 1632.82,1046.18 1633.98,1045.51 1635.5,1045.5 Z"/></g>
<g><path style="opacity:0.315" fill="#f5f5f5" d="M 1627.5,1058.5 C 1626.34,1060.68 1625.01,1062.68 1623.5,1064.5C 1623.06,1064.57 1622.73,1064.4 1622.5,1064C 1623.89,1062.83 1624.73,1061.33 1625,1059.5C 1625.84,1058 1626.67,1057.67 1627.5,1058.5 Z"/></g>
<g><path style="opacity:0.004" fill="#f1f1f1" d="M 1617.5,1074.5 C 1615.07,1075.28 1615.07,1076.45 1617.5,1078C 1616.45,1078.49 1615.45,1078.33 1614.5,1077.5C 1613.41,1078.39 1613.41,1079.39 1614.5,1080.5C 1614.04,1081.3 1613.38,1081.63 1612.5,1081.5C 1612.69,1078.69 1613.36,1076.02 1614.5,1073.5C 1615.79,1073.26 1616.79,1073.6 1617.5,1074.5 Z"/></g>
<g><path style="opacity:0.329" fill="#f7f7f7" d="M 1597.5,1102.5 C 1596.97,1104.23 1595.97,1105.56 1594.5,1106.5C 1594.42,1105.07 1594.75,1103.74 1595.5,1102.5C 1596.26,1101.23 1596.92,1101.23 1597.5,1102.5 Z"/></g>
<g><path style="opacity:0.039" fill="#ececec" d="M 1592.5,1108.5 C 1591.66,1108.84 1591.33,1109.51 1591.5,1110.5C 1590.9,1110.26 1590.57,1109.76 1590.5,1109C 1591.03,1107.28 1591.7,1107.12 1592.5,1108.5 Z"/></g>
<g><path style="opacity:0.177" fill="#f2f2f2" d="M 1587.5,1114.5 C 1586.97,1116.23 1585.97,1117.56 1584.5,1118.5C 1584.42,1117.07 1584.75,1115.74 1585.5,1114.5C 1586.26,1113.23 1586.92,1113.23 1587.5,1114.5 Z"/></g>
<g><path style="opacity:0.329" fill="#efefef" d="M 1580.5,1121.5 C 1580.2,1123.4 1579.54,1125.07 1578.5,1126.5C 1578.12,1124.3 1578.79,1122.64 1580.5,1121.5 Z"/></g>
<g><path style="opacity:0.627" fill="#f3f3f3" d="M 1575.5,1129.5 C 1573.87,1130.95 1572.53,1132.62 1571.5,1134.5C 1571.42,1131.99 1572.42,1129.99 1574.5,1128.5C 1575.11,1128.62 1575.44,1128.96 1575.5,1129.5 Z"/></g>
<g><path style="opacity:0.345" fill="#efefef" d="M 1566.5,1140.5 C 1565.1,1141.1 1564.1,1142.1 1563.5,1143.5C 1563.5,1142.17 1563.5,1140.83 1563.5,1139.5C 1564.79,1139.26 1565.79,1139.6 1566.5,1140.5 Z"/></g>
<g><path style="opacity:0.276" fill="#f4f4f4" d="M 1561.5,1144.5 C 1561.34,1146.15 1560.67,1147.49 1559.5,1148.5C 1559.23,1146.62 1559.9,1145.29 1561.5,1144.5 Z"/></g>
<g><path style="opacity:0.528" fill="#f6f6f6" d="M 1528.5,1178.5 C 1526.45,1181.52 1523.78,1183.85 1520.5,1185.5C 1520.54,1184.42 1520.87,1183.42 1521.5,1182.5C 1523.86,1181.12 1526.2,1179.79 1528.5,1178.5 Z"/></g>
<g><path style="opacity:0.369" fill="#f6f6f6" d="M 1514.5,1191.5 C 1512.86,1192.83 1511.2,1194.17 1509.5,1195.5C 1508.23,1194.81 1508.23,1193.98 1509.5,1193C 1510.97,1192.36 1512.3,1191.53 1513.5,1190.5C 1514.11,1190.62 1514.44,1190.96 1514.5,1191.5 Z"/></g>
<g><path style="opacity:0.108" fill="#f5f5f5" d="M 1505.5,1199.5 C 1504.33,1200.34 1503,1201.01 1501.5,1201.5C 1501.96,1198.69 1503.29,1198.02 1505.5,1199.5 Z"/></g>
<g><path style="opacity:0.2" fill="#f3f3f3" d="M 1497.5,1206.5 C 1495.94,1206.73 1494.6,1207.4 1493.5,1208.5C 1493.96,1205.69 1495.29,1205.02 1497.5,1206.5 Z"/></g>
<g><path style="opacity:0.102" fill="#f2f2f2" d="M 1490.5,1211.5 C 1488.94,1211.73 1487.6,1212.4 1486.5,1213.5C 1486.96,1210.69 1488.29,1210.02 1490.5,1211.5 Z"/></g>
<g><path style="opacity:0.187" fill="#f2f2f2" d="M 1484.5,1216.5 C 1483.22,1216.78 1482.22,1217.45 1481.5,1218.5C 1481.24,1217.02 1481.57,1215.69 1482.5,1214.5C 1483.52,1214.86 1484.19,1215.52 1484.5,1216.5 Z"/></g>
<g><path style="opacity:0.471" fill="#f7f7f7" d="M 1479.5,1219.5 C 1478.2,1220.49 1476.87,1221.49 1475.5,1222.5C 1475.34,1218.97 1476.67,1217.97 1479.5,1219.5 Z"/></g>
<g><path style="opacity:0.012" fill="#f2f2f2" d="M 1464.5,1231.5 C 1463.5,1230.17 1462.5,1230.17 1461.5,1231.5C 1462.5,1228.83 1463.5,1228.83 1464.5,1231.5 Z"/></g>
<g><path style="opacity:0.289" fill="#f5f5f5" d="M 1457.5,1234.5 C 1457.32,1237.17 1456.15,1237.84 1454,1236.5C 1453.15,1237.57 1452.31,1238.57 1451.5,1239.5C 1451.81,1235.99 1453.81,1234.32 1457.5,1234.5 Z"/></g>
<g><path style="opacity:0.007" fill="#fefffe" d="M 1460.5,1234.5 C 1461.55,1234.35 1462.55,1234.52 1463.5,1235C 1462.25,1235.74 1461.25,1235.57 1460.5,1234.5 Z"/></g>
<g><path style="opacity:0.388" fill="#f3f3f3" d="M 1450.5,1240.5 C 1449.21,1242.25 1447.71,1242.58 1446,1241.5C 1445.28,1242.04 1444.78,1242.71 1444.5,1243.5C 1443.23,1242.81 1443.23,1241.98 1444.5,1241C 1446.17,1240.17 1447.83,1239.33 1449.5,1238.5C 1450.3,1238.96 1450.63,1239.62 1450.5,1240.5 Z"/></g>
<g><path style="opacity:0.176" fill="#f0f0f0" d="M 1436.5,1249.5 C 1434.8,1249.53 1433.47,1250.19 1432.5,1251.5C 1432.33,1250.18 1432.66,1249.01 1433.5,1248C 1435.16,1247.27 1436.16,1247.77 1436.5,1249.5 Z"/></g>
<g><path style="opacity:0.198" fill="#efefef" d="M 1429.5,1253.5 C 1428.39,1253.56 1427.39,1253.89 1426.5,1254.5C 1427.05,1252.45 1428.05,1252.11 1429.5,1253.5 Z"/></g>
<g><path style="opacity:0.263" fill="#f0f0f0" d="M 1422.5,1257.5 C 1421.39,1257.56 1420.39,1257.89 1419.5,1258.5C 1420.05,1256.45 1421.05,1256.11 1422.5,1257.5 Z"/></g>
<g><path style="opacity:0.345" fill="#f5f5f5" d="M 1417.5,1261.5 C 1416.04,1261.57 1414.71,1261.23 1413.5,1260.5C 1416.08,1258.06 1417.41,1258.39 1417.5,1261.5 Z"/></g>
<g><path style="opacity:0.241" fill="#f4f4f4" d="M 1413.5,1260.5 C 1412.19,1263.81 1409.86,1266.14 1406.5,1267.5C 1406.5,1266.5 1406.5,1265.5 1406.5,1264.5C 1409.3,1264.04 1411.64,1262.71 1413.5,1260.5 Z"/></g>
<g><path style="opacity:0.124" fill="#f0f0f0" d="M 1403.5,1268.5 C 1399.89,1270.27 1396.39,1272.27 1393,1274.5C 1392.01,1273.83 1390.85,1273.83 1389.5,1274.5C 1392.6,1272.61 1395.6,1270.44 1398.5,1268C 1399.87,1267.6 1401.21,1267.1 1402.5,1266.5C 1403.3,1266.96 1403.63,1267.62 1403.5,1268.5 Z"/></g>
<g><path style="opacity:0.196" fill="#efefef" d="M 1389.5,1274.5 C 1387.15,1276.34 1384.48,1277.67 1381.5,1278.5C 1383.58,1276.13 1386.25,1274.79 1389.5,1274.5 Z"/></g>
<g><path style="opacity:0.231" fill="#eeeeee" d="M 1381.5,1278.5 C 1379.81,1280.82 1377.48,1281.82 1374.5,1281.5C 1376.43,1279.71 1378.76,1278.71 1381.5,1278.5 Z"/></g>
<g><path style="opacity:0.102" fill="#eeeeee" d="M 1374.5,1281.5 C 1374.17,1282.5 1373.5,1283.17 1372.5,1283.5C 1372.5,1282.17 1373.17,1281.5 1374.5,1281.5 Z"/></g>
<g><path style="opacity:0.318" fill="#f5f5f5" d="M 1366.5,1286.5 C 1366.39,1287.12 1366.06,1287.62 1365.5,1288C 1363.13,1288.44 1360.8,1288.94 1358.5,1289.5C 1358.47,1288.5 1358.97,1287.84 1360,1287.5C 1362.08,1286.98 1364.08,1286.32 1366,1285.5C 1366.4,1285.73 1366.57,1286.06 1366.5,1286.5 Z"/></g>
<g><path style="opacity:0.422" fill="#f3f3f3" d="M 1349.5,1293.5 C 1349.16,1294.34 1348.49,1294.67 1347.5,1294.5C 1347.71,1292.58 1348.38,1292.24 1349.5,1293.5 Z"/></g>
<g><path style="opacity:0.509" fill="#f4f4f4" d="M 1345.5,1296.5 C 1344.17,1296.5 1342.83,1296.5 1341.5,1296.5C 1341.62,1295.41 1342.29,1294.75 1343.5,1294.5C 1344.71,1294.75 1345.38,1295.41 1345.5,1296.5 Z"/></g>
<g><path style="opacity:0.123" fill="#f2f2f2" d="M 1322.5,1304.5 C 1321.83,1305.17 1321.17,1305.83 1320.5,1306.5C 1320.2,1305.85 1319.86,1305.18 1319.5,1304.5C 1320.61,1303.22 1321.61,1303.22 1322.5,1304.5 Z"/></g>
<g><path style="opacity:0.051" fill="#f2f2f2" d="M 1328.5,1302.5 C 1326.97,1303.31 1325.31,1303.98 1323.5,1304.5C 1324.17,1301.5 1325.84,1300.83 1328.5,1302.5 Z"/></g>
<g><path style="opacity:0.533" fill="#f4f4f4" d="M 1318.5,1306.5 C 1317.5,1306.5 1316.5,1306.5 1315.5,1306.5C 1316.5,1303.83 1317.5,1303.83 1318.5,1306.5 Z"/></g>
<g><path style="opacity:0.4" fill="#f4f4f4" d="M 1306.5,1309.5 C 1305.5,1310.17 1304.5,1310.83 1303.5,1311.5C 1303.5,1310.5 1303.5,1309.5 1303.5,1308.5C 1304.79,1308.26 1305.79,1308.6 1306.5,1309.5 Z"/></g>
<g><path style="opacity:0.067" fill="#f0f0f0" d="M 1297.5,1312.5 C 1296.17,1312.5 1295.5,1313.17 1295.5,1314.5C 1295.17,1314.5 1294.83,1314.5 1294.5,1314.5C 1294.5,1313.5 1294.5,1312.5 1294.5,1311.5C 1295.79,1311.26 1296.79,1311.6 1297.5,1312.5 Z"/></g>
<g><path style="opacity:0.163" fill="#f4f4f4" d="M 1293.5,1314.5 C 1292.39,1314.56 1291.39,1314.89 1290.5,1315.5C 1290.22,1313.65 1290.89,1312.32 1292.5,1311.5C 1293.39,1312.32 1293.72,1313.32 1293.5,1314.5 Z"/></g>
<g><path style="opacity:0.004" fill="#e1e1e1" d="M 1295.5,1314.5 C 1296.36,1313.54 1297.03,1313.54 1297.5,1314.5C 1296.74,1315.77 1296.08,1315.77 1295.5,1314.5 Z"/></g>
<g><path style="opacity:0.149" fill="#f2f2f2" d="M 1288.5,1315.5 C 1287.39,1315.56 1286.39,1315.89 1285.5,1316.5C 1286.05,1314.45 1287.05,1314.11 1288.5,1315.5 Z"/></g>
<g><path style="opacity:0.014" fill="#f2f2f2" d="M 1283.5,1315.5 C 1282.9,1316.9 1281.9,1317.9 1280.5,1318.5C 1280.63,1316.91 1281.29,1315.58 1282.5,1314.5C 1283.11,1314.62 1283.44,1314.96 1283.5,1315.5 Z"/></g>
<g><path style="opacity:0.62" fill="#f4f4f4" d="M 1273.5,1319.5 C 1272.88,1319.39 1272.38,1319.06 1272,1318.5C 1271.58,1319.67 1270.91,1320.67 1270,1321.5C 1269.6,1321.27 1269.43,1320.94 1269.5,1320.5C 1270.62,1317.35 1271.95,1317.02 1273.5,1319.5 Z"/></g>
<g><path style="opacity:0.276" fill="#ededed" d="M 1267.5,1320.5 C 1266.83,1320.83 1266.17,1321.17 1265.5,1321.5C 1265.71,1319.58 1266.38,1319.24 1267.5,1320.5 Z"/></g>
<g><path style="opacity:0.333" fill="#f1f1f1" d="M 1250.5,1325.5 C 1249.04,1324.53 1247.7,1324.86 1246.5,1326.5C 1246.5,1325.5 1246.5,1324.5 1246.5,1323.5C 1248.48,1323.16 1249.82,1323.82 1250.5,1325.5 Z"/></g>
<g><path style="opacity:0.329" fill="#f2f2f2" d="M 1243.5,1326.5 C 1242.04,1325.53 1240.7,1325.86 1239.5,1327.5C 1239.42,1325.75 1240.25,1324.75 1242,1324.5C 1243.03,1324.84 1243.53,1325.5 1243.5,1326.5 Z"/></g>
<g><path style="opacity:0.46" fill="#f3f3f3" d="M 1236.5,1327.5 C 1235.88,1327.39 1235.38,1327.06 1235,1326.5C 1234.77,1327.74 1234.27,1328.74 1233.5,1329.5C 1233.5,1328.17 1233.5,1326.83 1233.5,1325.5C 1235.18,1325.29 1236.18,1325.95 1236.5,1327.5 Z"/></g>
<g><path style="opacity:0.116" fill="#f3f3f3" d="M 1227.5,1328.5 C 1227.03,1329.91 1226.03,1330.57 1224.5,1330.5C 1224.67,1327.95 1225.67,1327.28 1227.5,1328.5 Z"/></g>
<g><path style="opacity:0.269" fill="#f3f3f3" d="M 1213.5,1331.5 C 1211.44,1331.52 1209.44,1331.85 1207.5,1332.5C 1207.88,1330.71 1209.05,1329.71 1211,1329.5C 1212.3,1329.64 1213.13,1330.31 1213.5,1331.5 Z"/></g>
<g><path style="opacity:0.176" fill="#f3f3f3" d="M 1201.5,1331.5 C 1200,1332.75 1198.33,1333.75 1196.5,1334.5C 1196.94,1332.93 1197.94,1331.76 1199.5,1331C 1200.44,1330.31 1201.1,1330.47 1201.5,1331.5 Z"/></g>
<g><path style="opacity:0.214" fill="#efefef" d="M 1188.5,1333.5 C 1187.5,1334.17 1186.5,1334.83 1185.5,1335.5C 1185.67,1332.95 1186.67,1332.28 1188.5,1333.5 Z"/></g>
<g><path style="opacity:0.133" fill="#f4f4f4" d="M 1178.5,1336.5 C 1177.61,1335.89 1176.61,1335.56 1175.5,1335.5C 1176.86,1332.98 1177.86,1333.32 1178.5,1336.5 Z"/></g>
<g><path style="opacity:0.148" fill="#f2f2f2" d="M 1172.5,1336.5 C 1171.04,1336.43 1169.71,1336.77 1168.5,1337.5C 1168.42,1335.75 1169.25,1334.75 1171,1334.5C 1172.03,1334.84 1172.53,1335.5 1172.5,1336.5 Z"/></g>
<g><path style="opacity:0.144" fill="#f2f2f2" d="M 1150.5,1337.5 C 1147.24,1338.32 1143.9,1338.66 1140.5,1338.5C 1140.46,1337.24 1140.96,1336.24 1142,1335.5C 1144.28,1336.72 1146.62,1336.72 1149,1335.5C 1150.03,1335.84 1150.53,1336.5 1150.5,1337.5 Z"/></g>
<g><path style="opacity:0.149" fill="#f2f2f2" d="M 779.5,1338.5 C 777.167,1339.83 774.833,1341.17 772.5,1342.5C 774.077,1340.42 775.91,1338.42 778,1336.5C 778.717,1337.04 779.217,1337.71 779.5,1338.5 Z"/></g>
<g><path style="opacity:0.325" fill="#f6f6f6" d="M 755.5,1360.5 C 754.167,1362.5 752.5,1364.17 750.5,1365.5C 751.048,1363.61 752.048,1361.94 753.5,1360.5C 754.429,1359.45 755.095,1359.45 755.5,1360.5 Z"/></g>
<g><path style="opacity:0.265" fill="#f3f3f3" d="M 750.5,1365.5 C 749.486,1366.67 748.153,1367.34 746.5,1367.5C 747.183,1365.82 748.517,1365.16 750.5,1365.5 Z"/></g>
<g><path style="opacity:0.396" fill="#f6f6f6" d="M 725.5,1389.5 C 721.7,1394.42 717.033,1398.42 711.5,1401.5C 712.543,1398.94 714.21,1396.78 716.5,1395C 719.096,1393.41 721.429,1391.41 723.5,1389C 724.437,1388.31 725.103,1388.47 725.5,1389.5 Z"/></g>
<g><path style="opacity:0.122" fill="#f4f4f4" d="M 688.5,1424.5 C 687.205,1425.49 685.872,1426.49 684.5,1427.5C 684.694,1425.09 686.027,1424.09 688.5,1424.5 Z"/></g>
<g><path style="opacity:0.349" fill="#f5f5f5" d="M 665.5,1446.5 C 662.756,1450.25 659.423,1453.25 655.5,1455.5C 655.281,1454.32 655.614,1453.32 656.5,1452.5C 659.572,1450.4 662.572,1448.4 665.5,1446.5 Z"/></g>
<g><path style="opacity:0.407" fill="#f4f4f4" d="M 650.5,1460.5 C 649.833,1461.17 649.167,1461.83 648.5,1462.5C 648.281,1461.32 648.614,1460.32 649.5,1459.5C 650.107,1459.62 650.44,1459.96 650.5,1460.5 Z"/></g>
<g><path style="opacity:0.48" fill="#f5f5f5" d="M 634.5,1476.5 C 632.4,1478.5 630.4,1480.66 628.5,1483C 627.207,1483.49 625.873,1483.66 624.5,1483.5C 627.271,1481.23 629.938,1478.73 632.5,1476C 633.437,1475.31 634.103,1475.47 634.5,1476.5 Z"/></g>
<g><path style="opacity:0.118" fill="#ededed" d="M 621.5,1487.5 C 621.167,1488.5 620.5,1489.17 619.5,1489.5C 619.5,1488.17 620.167,1487.5 621.5,1487.5 Z"/></g>
<g><path style="opacity:0.393" fill="#f4f4f4" d="M 603.5,1505.5 C 601.034,1509.3 597.701,1511.97 593.5,1513.5C 596.39,1510.37 599.723,1507.71 603.5,1505.5 Z"/></g>
<g><path style="opacity:0.247" fill="#f2f2f2" d="M 592.5,1514.5 C 591.488,1515.87 590.488,1517.2 589.5,1518.5C 589.088,1516.03 590.088,1514.69 592.5,1514.5 Z"/></g>
<g><path style="opacity:0.44" fill="#f5f5f5" d="M 573.5,1534.5 C 571.034,1538.3 567.701,1540.97 563.5,1542.5C 563.369,1541.76 563.536,1541.09 564,1540.5C 567.007,1538.91 569.507,1536.75 571.5,1534C 572.437,1533.31 573.103,1533.47 573.5,1534.5 Z"/></g>
<g><path style="opacity:0.106" fill="#f1f1f1" d="M 563.5,1542.5 C 561.833,1544.83 559.833,1546.83 557.5,1548.5C 558.5,1545.5 560.5,1543.5 563.5,1542.5 Z"/></g>
<g><path style="opacity:0.442" fill="#f7f7f7" d="M 543.5,1563.5 C 541.833,1564.83 540.167,1566.17 538.5,1567.5C 539.238,1564.37 540.905,1563.04 543.5,1563.5 Z"/></g>
<g><path style="opacity:0.155" fill="#f4f4f4" d="M 538.5,1567.5 C 537.781,1569.89 536.115,1571.39 533.5,1572C 531.266,1574.06 529.266,1576.23 527.5,1578.5C 529.465,1573.2 533.132,1569.53 538.5,1567.5 Z"/></g>
<g><path style="opacity:0.347" fill="#f7f7f7" d="M 513.5,1592.5 C 508.273,1596.61 503.273,1600.94 498.5,1605.5C 499.882,1602.61 501.882,1600.11 504.5,1598C 507.128,1596.37 509.461,1594.37 511.5,1592C 512.437,1591.31 513.103,1591.47 513.5,1592.5 Z"/></g>
<g><path style="opacity:0.118" fill="#f4f4f4" d="M 481.5,1622.5 C 478.442,1626.52 474.775,1629.86 470.5,1632.5C 471.242,1630.57 472.242,1628.74 473.5,1627C 476.564,1625.94 479.064,1624.1 481,1621.5C 481.399,1621.73 481.565,1622.06 481.5,1622.5 Z"/></g>
<g><path style="opacity:0.004" fill="#e2e3e2" d="M 468.5,1635.5 C 469.833,1636.17 469.833,1636.17 468.5,1635.5 Z"/></g>
<g><path style="opacity:0.393" fill="#f5f5f5" d="M 451.5,1650.5 C 449.349,1654.15 446.349,1656.82 442.5,1658.5C 442.414,1657.5 442.748,1656.67 443.5,1656C 446.065,1653.92 448.732,1652.09 451.5,1650.5 Z"/></g>
<g><path style="opacity:0.259" fill="#f3f3f3" d="M 437.5,1663.5 C 437.167,1664.5 436.5,1665.17 435.5,1665.5C 435.281,1664.32 435.614,1663.32 436.5,1662.5C 437.107,1662.62 437.44,1662.96 437.5,1663.5 Z"/></g>
<g><path style="opacity:0.381" fill="#f4f4f4" d="M 421.5,1679.5 C 418.707,1683.63 415.04,1686.63 410.5,1688.5C 410.511,1686.98 411.177,1685.82 412.5,1685C 415.626,1683.37 418.293,1681.2 420.5,1678.5C 421.107,1678.62 421.44,1678.96 421.5,1679.5 Z"/></g>
<g><path style="opacity:0.051" fill="#f3f3f3" d="M 391.5,1708.5 C 386.361,1713.34 381.028,1718 375.5,1722.5C 375.281,1721.32 375.614,1720.32 376.5,1719.5C 380.833,1715.67 385.167,1711.83 389.5,1708C 390.437,1707.31 391.103,1707.47 391.5,1708.5 Z"/></g>
<g><path style="opacity:0.337" fill="#f6f6f6" d="M 361.5,1737.5 C 359.188,1739.15 357.188,1741.15 355.5,1743.5C 354.264,1744.25 352.93,1744.58 351.5,1744.5C 354.271,1742.23 356.938,1739.73 359.5,1737C 360.437,1736.31 361.103,1736.47 361.5,1737.5 Z"/></g>
<g><path style="opacity:0.098" fill="#f2f2f2" d="M 349.5,1746.5 C 348.92,1748.75 347.587,1750.42 345.5,1751.5C 346.08,1749.25 347.413,1747.58 349.5,1746.5 Z"/></g>
<g><path style="opacity:0.344" fill="#f6f6f6" d="M 329.5,1767.5 C 324.875,1771.82 320.208,1776.16 315.5,1780.5C 315.751,1778.83 316.418,1777.33 317.5,1776C 321.488,1773.01 325.321,1769.84 329,1766.5C 329.399,1766.73 329.565,1767.06 329.5,1767.5 Z"/></g>
<g><path style="opacity:0.277" fill="#f7f7f7" d="M 297.5,1798.5 C 295.704,1800.9 293.37,1802.57 290.5,1803.5C 292.228,1801.12 294.561,1799.46 297.5,1798.5 Z"/></g>
<g><path style="opacity:0.017" fill="#fbfbfb" d="M 286.5,1804.5 C 288.604,1804.2 290.604,1804.53 292.5,1805.5C 291.5,1805.83 290.5,1806.17 289.5,1806.5C 287.97,1806.36 286.97,1805.69 286.5,1804.5 Z"/></g>
</svg>
