<?xml version="1.0" encoding="UTF-8"?>
<!DOCTYPE svg PUBLIC "-//W3C//DTD SVG 1.1//EN" "http://www.w3.org/Graphics/SVG/1.1/DTD/svg11.dtd">
<svg xmlns="http://www.w3.org/2000/svg" version="1.1" width="1000px" height="1000px" style="shape-rendering:geometricPrecision; text-rendering:geometricPrecision; image-rendering:optimizeQuality; fill-rule:evenodd; clip-rule:evenodd" xmlns:xlink="http://www.w3.org/1999/xlink">
<g><path style="opacity:0.998" fill="#fefefe" d="M 251.5,-0.5 C 254.167,-0.5 256.833,-0.5 259.5,-0.5C 368.833,0.833333 478.167,0.833333 587.5,-0.5C 591.167,-0.5 594.833,-0.5 598.5,-0.5C 598.833,0.833333 599.167,0.833333 599.5,-0.5C 599.833,-0.5 600.167,-0.5 600.5,-0.5C 600.866,0.694594 601.699,1.36126 603,1.5C 606.616,-0.123337 609.95,0.209996 613,2.5C 615.916,0.986521 618.582,1.31985 621,3.5C 626.743,2.84225 632.41,3.50892 638,5.5C 639.117,5.33494 640.284,5.0016 641.5,4.5C 748.568,26.6179 831.734,83.6179 891,175.5C 908.614,205.897 921.781,236.897 930.5,268.5C 929.332,269.906 929.665,271.072 931.5,272C 931.043,272.414 930.709,272.914 930.5,273.5C 933.074,280.695 934.408,287.695 934.5,294.5C 936.636,295.852 936.97,297.518 935.5,299.5C 937.531,301.249 937.865,303.249 936.5,305.5C 937.507,312.385 938.84,319.218 940.5,326C 946.464,461.082 893.797,568.082 782.5,647C 745.502,671.744 705.335,689.578 662,700.5C 661.667,700.167 661.333,699.833 661,699.5C 655.135,701.542 649.135,703.209 643,704.5C 642.228,704.355 641.561,704.022 641,703.5C 633.094,705.917 625.094,706.917 617,706.5C 614.293,708.781 611.293,709.115 608,707.5C 607.055,707.905 606.388,708.572 606,709.5C 525.227,710.774 444.227,710.774 363,709.5C 324.724,745.448 286.891,781.614 249.5,818C 186.173,877.66 123.173,937.66 60.5,998C 59.552,998.483 58.552,998.649 57.5,998.5C 57.3333,728.833 57.5,459.166 58,189.5C 62.2378,135.887 86.0711,89.3869 129.5,50C 162.204,22.2548 200.371,5.75484 244,0.5C 245.533,0.772819 247.033,1.10615 248.5,1.5C 250.179,1.71481 251.179,1.04814 251.5,-0.5 Z"/></g>
<g><path style="opacity:0.576" fill="#eaeaea" d="M 249.5,-0.5 C 250.167,-0.5 250.833,-0.5 251.5,-0.5C 251.179,1.04814 250.179,1.71481 248.5,1.5C 248.833,0.833333 249.167,0.166667 249.5,-0.5 Z"/></g>
</svg>
